<svg xmlns="http://www.w3.org/2000/svg" xmlns:xlink="http://www.w3.org/1999/xlink" width="500" zoomAndPan="magnify" viewBox="0 0 375 374.999991" height="500" preserveAspectRatio="xMidYMid meet" version="1.0"><defs><clipPath id="873b95a70e"><path d="M 0 0 L 369.214844 0 L 369.214844 375 L 0 375 Z M 0 0 " clip-rule="nonzero"/></clipPath><clipPath id="e4e63d796e"><path d="M 184.609375 0 C 82.652344 0 0 83.945312 0 187.5 C 0 291.054688 82.652344 375 184.609375 375 C 286.5625 375 369.214844 291.054688 369.214844 187.5 C 369.214844 83.945312 286.5625 0 184.609375 0 Z M 184.609375 0 " clip-rule="nonzero"/></clipPath><clipPath id="788d100569"><path d="M 0 0 L 369.214844 0 L 369.214844 375 L 0 375 Z M 0 0 " clip-rule="nonzero"/></clipPath><clipPath id="3061e7b6c5"><path d="M 184.609375 0 C 82.652344 0 0 83.945312 0 187.5 C 0 291.054688 82.652344 375 184.609375 375 C 286.5625 375 369.214844 291.054688 369.214844 187.5 C 369.214844 83.945312 286.5625 0 184.609375 0 Z M 184.609375 0 " clip-rule="nonzero"/></clipPath><clipPath id="998779c58a"><rect x="0" width="370" y="0" height="375"/></clipPath></defs><rect x="-37.5" width="450" fill="#ffffff" y="-37.499999" height="449.999989" fill-opacity="1"/><rect x="-37.5" width="450" fill="#1c1e1a" y="-37.499999" height="449.999989" fill-opacity="1"/><g clip-path="url(#873b95a70e)"><g clip-path="url(#e4e63d796e)"><g transform="matrix(1, 0, 0, 1, 0, 0)"><g clip-path="url(#998779c58a)"><g clip-path="url(#788d100569)"><g clip-path="url(#3061e7b6c5)"><path fill="#2a2d24" d="M 0 0 L 369.214844 0 L 369.214844 374.984375 L 0 374.984375 Z M 0 0 " fill-opacity="1" fill-rule="nonzero"/></g></g></g></g></g></g><path fill="#f88e37" d="M 144.695312 107.527344 C 135.523438 121.058594 121.023438 133.550781 108.726562 145.550781 C 57.019531 192.96875 78.808594 271.652344 138.542969 299.964844 C 187.203125 324.730469 253.195312 309.453125 284.835938 265.242188 C 285.015625 264.996094 285.167969 264.734375 285.296875 264.453125 C 285.421875 264.175781 285.523438 263.886719 285.59375 263.589844 C 285.664062 263.289062 285.703125 262.988281 285.714844 262.683594 C 285.726562 262.375 285.707031 262.070312 285.65625 261.769531 C 285.609375 261.46875 285.53125 261.171875 285.421875 260.886719 C 285.316406 260.597656 285.179688 260.324219 285.019531 260.066406 C 284.859375 259.804688 284.671875 259.5625 284.464844 259.339844 C 284.253906 259.113281 284.027344 258.914062 283.777344 258.734375 C 283.527344 258.554688 283.261719 258.402344 282.984375 258.277344 C 282.707031 258.152344 282.417969 258.054688 282.117188 257.984375 C 281.820312 257.914062 281.515625 257.875 281.210938 257.867188 C 280.90625 257.855469 280.601562 257.875 280.296875 257.925781 C 279.996094 257.976562 279.703125 258.058594 279.414062 258.164062 C 279.128906 258.273438 278.855469 258.410156 278.597656 258.574219 C 278.335938 258.734375 278.09375 258.921875 277.871094 259.132812 C 277.648438 259.339844 277.449219 259.570312 277.273438 259.820312 C 251.976562 295.089844 193.359375 317.292969 142.65625 291.617188 C 91.796875 265.851562 65.320312 200.992188 115.195312 152.25 C 128.023438 139.738281 142.597656 127.210938 152.40625 112.75 C 152.574219 112.5 152.71875 112.230469 152.835938 111.949219 C 152.957031 111.667969 153.042969 111.378906 153.105469 111.078125 C 153.167969 110.78125 153.199219 110.476562 153.199219 110.171875 C 153.199219 109.867188 153.171875 109.566406 153.113281 109.265625 C 153.054688 108.964844 152.96875 108.675781 152.855469 108.390625 C 152.738281 108.109375 152.597656 107.839844 152.429688 107.585938 C 152.261719 107.332031 152.070312 107.097656 151.855469 106.878906 C 151.640625 106.660156 151.40625 106.46875 151.15625 106.296875 C 150.902344 106.125 150.636719 105.980469 150.355469 105.863281 C 150.074219 105.742188 149.78125 105.652344 149.484375 105.589844 C 149.183594 105.53125 148.882812 105.496094 148.578125 105.496094 C 148.273438 105.492188 147.96875 105.519531 147.671875 105.578125 C 147.371094 105.632812 147.078125 105.71875 146.796875 105.835938 C 146.511719 105.949219 146.246094 106.089844 145.988281 106.257812 C 145.734375 106.425781 145.496094 106.617188 145.28125 106.828125 C 145.0625 107.042969 144.867188 107.277344 144.695312 107.527344 Z M 144.695312 107.527344 " fill-opacity="1" fill-rule="nonzero"/><path fill="#f88e37" d="M 220.296875 117.257812 C 223.542969 83.367188 194.019531 59.683594 165.144531 51.996094 C 164.226562 51.636719 163.277344 51.402344 162.296875 51.292969 C 161.3125 51.1875 160.335938 51.210938 159.359375 51.367188 C 158.386719 51.523438 157.449219 51.804688 156.546875 52.214844 C 155.648438 52.621094 154.820312 53.140625 154.058594 53.773438 C 153.472656 54.464844 152.988281 55.222656 152.609375 56.046875 C 152.230469 56.871094 151.96875 57.730469 151.824219 58.625 C 151.679688 59.519531 151.65625 60.417969 151.757812 61.320312 C 151.855469 62.222656 152.074219 63.09375 152.414062 63.933594 C 153.628906 67.773438 154.339844 71.707031 154.546875 75.726562 C 154.753906 79.75 154.453125 83.734375 153.640625 87.679688 C 153.578125 87.976562 153.542969 88.28125 153.539062 88.585938 C 153.539062 88.890625 153.5625 89.195312 153.617188 89.492188 C 153.675781 89.792969 153.757812 90.085938 153.871094 90.371094 C 153.984375 90.652344 154.125 90.925781 154.292969 91.179688 C 154.460938 91.4375 154.648438 91.675781 154.863281 91.894531 C 155.074219 92.113281 155.308594 92.308594 155.558594 92.480469 C 155.8125 92.652344 156.078125 92.800781 156.359375 92.921875 C 156.640625 93.042969 156.929688 93.136719 157.226562 93.199219 C 167.621094 94.832031 163.53125 67.9375 161.375 61.410156 C 160.894531 60.269531 161.867188 60.863281 162.820312 61.007812 C 190.285156 67.984375 217.574219 92.082031 210.054688 122.882812 C 208.011719 134.976562 204.921875 153.25 217.964844 159.695312 C 232.847656 167.421875 249.582031 149.75 253.414062 137.359375 C 254.082031 134.878906 254.109375 135.441406 256.089844 136.824219 C 258.0625 138.222656 259.976562 139.699219 261.832031 141.25 C 263.683594 142.804688 265.472656 144.433594 267.191406 146.132812 C 268.910156 147.835938 270.558594 149.605469 272.132812 151.441406 C 273.707031 153.277344 275.203125 155.175781 276.621094 157.132812 C 278.039062 159.09375 279.375 161.105469 280.628906 163.175781 C 281.882812 165.242188 283.046875 167.359375 284.128906 169.523438 C 285.207031 171.691406 286.195312 173.894531 287.09375 176.140625 C 287.992188 178.386719 288.796875 180.664062 289.507812 182.976562 C 290.21875 185.289062 290.832031 187.625 291.351562 189.988281 C 291.871094 192.351562 292.292969 194.730469 292.617188 197.128906 C 292.941406 199.523438 293.164062 201.929688 293.289062 204.347656 C 293.417969 206.761719 293.445312 209.179688 293.371094 211.597656 C 293.296875 214.015625 293.128906 216.425781 292.855469 218.828125 C 292.585938 221.230469 292.21875 223.621094 291.75 225.992188 C 291.285156 228.367188 290.722656 230.71875 290.0625 233.042969 C 289.402344 235.371094 288.648438 237.667969 287.800781 239.933594 C 287.699219 240.214844 287.625 240.507812 287.578125 240.804688 C 287.53125 241.101562 287.515625 241.402344 287.527344 241.703125 C 287.539062 242.003906 287.582031 242.304688 287.652344 242.597656 C 287.722656 242.890625 287.820312 243.171875 287.945312 243.449219 C 288.070312 243.722656 288.222656 243.980469 288.398438 244.226562 C 288.574219 244.472656 288.773438 244.699219 288.992188 244.902344 C 289.210938 245.109375 289.449219 245.292969 289.707031 245.453125 C 289.960938 245.613281 290.230469 245.75 290.511719 245.855469 C 290.792969 245.964844 291.082031 246.042969 291.378906 246.097656 C 291.675781 246.148438 291.976562 246.171875 292.277344 246.164062 C 292.578125 246.160156 292.878906 246.125 293.171875 246.058594 C 293.46875 245.996094 293.753906 245.902344 294.03125 245.78125 C 294.304688 245.664062 294.570312 245.515625 294.816406 245.347656 C 295.066406 245.175781 295.296875 244.984375 295.507812 244.765625 C 295.71875 244.550781 295.90625 244.316406 296.070312 244.066406 C 296.238281 243.8125 296.375 243.546875 296.492188 243.269531 C 312.230469 202.257812 298.226562 156.476562 261.644531 129.355469 C 254.371094 123.207031 246.828125 125.257812 244.53125 134.574219 C 242.476562 141.113281 231.867188 155.808594 222.09375 151.351562 C 213.507812 146.722656 219.359375 127.058594 220.296875 117.257812 Z M 220.296875 117.257812 " fill-opacity="1" fill-rule="nonzero"/><path fill="#f88e37" d="M 164.644531 207.28125 L 175.503906 207.28125 C 175.71875 207.28125 175.902344 207.359375 176.054688 207.507812 C 176.207031 207.660156 176.28125 207.84375 176.28125 208.058594 C 176.28125 208.363281 176.3125 208.667969 176.371094 208.964844 C 176.433594 209.265625 176.519531 209.558594 176.636719 209.839844 C 176.753906 210.121094 176.898438 210.390625 177.066406 210.644531 C 177.238281 210.898438 177.429688 211.132812 177.644531 211.351562 C 177.863281 211.566406 178.097656 211.757812 178.351562 211.929688 C 178.605469 212.097656 178.875 212.242188 179.15625 212.359375 C 179.4375 212.476562 179.730469 212.5625 180.03125 212.625 C 180.328125 212.683594 180.632812 212.714844 180.9375 212.714844 C 181.242188 212.714844 181.546875 212.683594 181.84375 212.625 C 182.144531 212.5625 182.4375 212.476562 182.71875 212.359375 C 183 212.242188 183.269531 212.097656 183.523438 211.929688 C 183.777344 211.757812 184.011719 211.566406 184.230469 211.351562 C 184.445312 211.132812 184.636719 210.898438 184.808594 210.644531 C 184.976562 210.390625 185.121094 210.121094 185.238281 209.839844 C 185.355469 209.558594 185.441406 209.265625 185.503906 208.964844 C 185.5625 208.667969 185.59375 208.363281 185.59375 208.058594 C 185.589844 207.398438 185.527344 206.742188 185.398438 206.089844 C 185.265625 205.441406 185.074219 204.8125 184.820312 204.199219 C 184.566406 203.589844 184.257812 203.007812 183.890625 202.457031 C 183.519531 201.90625 183.101562 201.398438 182.636719 200.929688 C 182.167969 200.460938 181.65625 200.042969 181.105469 199.675781 C 180.554688 199.308594 179.976562 198.996094 179.363281 198.742188 C 178.753906 198.488281 178.121094 198.296875 177.472656 198.167969 C 176.824219 198.039062 176.167969 197.972656 175.503906 197.972656 L 164.644531 197.972656 C 163.984375 197.972656 163.328125 198.039062 162.679688 198.167969 C 162.03125 198.296875 161.398438 198.488281 160.789062 198.742188 C 160.175781 198.996094 159.59375 199.308594 159.042969 199.675781 C 158.496094 200.042969 157.984375 200.460938 157.515625 200.929688 C 157.046875 201.398438 156.628906 201.90625 156.261719 202.457031 C 155.894531 203.007812 155.582031 203.589844 155.328125 204.199219 C 155.078125 204.8125 154.882812 205.441406 154.753906 206.089844 C 154.625 206.742188 154.558594 207.398438 154.558594 208.058594 L 154.558594 229.78125 C 154.558594 230.441406 154.625 231.097656 154.753906 231.746094 C 154.882812 232.394531 155.078125 233.027344 155.332031 233.636719 C 155.582031 234.25 155.894531 234.828125 156.261719 235.378906 C 156.628906 235.929688 157.046875 236.441406 157.515625 236.90625 C 157.984375 237.375 158.496094 237.792969 159.046875 238.160156 C 159.59375 238.53125 160.175781 238.839844 160.789062 239.09375 C 161.398438 239.347656 162.03125 239.539062 162.679688 239.667969 C 163.328125 239.796875 163.984375 239.863281 164.644531 239.863281 L 175.503906 239.863281 C 176.167969 239.863281 176.824219 239.796875 177.472656 239.667969 C 178.121094 239.539062 178.753906 239.347656 179.363281 239.09375 C 179.976562 238.839844 180.554688 238.53125 181.105469 238.160156 C 181.65625 237.792969 182.167969 237.375 182.632812 236.90625 C 183.101562 236.441406 183.519531 235.929688 183.890625 235.378906 C 184.257812 234.828125 184.566406 234.25 184.820312 233.636719 C 185.074219 233.027344 185.265625 232.394531 185.398438 231.746094 C 185.527344 231.097656 185.589844 230.441406 185.59375 229.78125 C 185.59375 229.472656 185.5625 229.171875 185.503906 228.871094 C 185.441406 228.570312 185.355469 228.28125 185.238281 228 C 185.121094 227.714844 184.976562 227.449219 184.808594 227.195312 C 184.636719 226.941406 184.445312 226.703125 184.230469 226.488281 C 184.011719 226.273438 183.777344 226.078125 183.523438 225.910156 C 183.269531 225.738281 183 225.597656 182.71875 225.480469 C 182.4375 225.363281 182.144531 225.273438 181.84375 225.214844 C 181.546875 225.15625 181.242188 225.125 180.9375 225.125 C 180.632812 225.125 180.328125 225.15625 180.03125 225.214844 C 179.730469 225.273438 179.4375 225.363281 179.15625 225.480469 C 178.875 225.597656 178.605469 225.738281 178.351562 225.910156 C 178.097656 226.078125 177.863281 226.273438 177.644531 226.488281 C 177.429688 226.703125 177.238281 226.941406 177.066406 227.195312 C 176.898438 227.449219 176.753906 227.714844 176.636719 228 C 176.519531 228.28125 176.433594 228.570312 176.371094 228.871094 C 176.3125 229.171875 176.28125 229.472656 176.28125 229.78125 C 176.28125 229.992188 176.207031 230.175781 176.054688 230.328125 C 175.902344 230.480469 175.71875 230.554688 175.503906 230.554688 L 164.644531 230.554688 C 164.433594 230.554688 164.25 230.480469 164.097656 230.328125 C 163.945312 230.175781 163.871094 229.992188 163.867188 229.78125 L 163.867188 208.058594 C 163.867188 207.84375 163.945312 207.660156 164.097656 207.507812 C 164.25 207.359375 164.429688 207.28125 164.644531 207.28125 Z M 164.644531 207.28125 " fill-opacity="1" fill-rule="nonzero"/><path fill="#f88e37" d="M 223.023438 239.863281 C 223.332031 239.863281 223.632812 239.835938 223.933594 239.773438 C 224.234375 239.714844 224.523438 239.625 224.804688 239.511719 C 225.089844 239.394531 225.355469 239.25 225.609375 239.078125 C 225.867188 238.910156 226.101562 238.71875 226.316406 238.5 C 226.53125 238.285156 226.726562 238.050781 226.894531 237.796875 C 227.066406 237.542969 227.207031 237.273438 227.324219 236.992188 C 227.441406 236.707031 227.53125 236.417969 227.589844 236.117188 C 227.648438 235.816406 227.679688 235.515625 227.679688 235.210938 L 227.679688 208.058594 C 227.679688 207.398438 227.613281 206.742188 227.484375 206.089844 C 227.355469 205.441406 227.164062 204.8125 226.910156 204.199219 C 226.65625 203.589844 226.34375 203.007812 225.976562 202.457031 C 225.609375 201.90625 225.191406 201.398438 224.722656 200.929688 C 224.253906 200.460938 223.746094 200.042969 223.195312 199.675781 C 222.644531 199.308594 222.0625 198.996094 221.453125 198.742188 C 220.839844 198.488281 220.210938 198.296875 219.558594 198.167969 C 218.910156 198.039062 218.253906 197.972656 217.59375 197.972656 L 206.734375 197.972656 C 206.070312 197.972656 205.414062 198.039062 204.765625 198.167969 C 204.117188 198.296875 203.488281 198.488281 202.875 198.742188 C 202.261719 198.996094 201.683594 199.308594 201.132812 199.675781 C 200.582031 200.042969 200.074219 200.460938 199.605469 200.929688 C 199.136719 201.398438 198.71875 201.90625 198.351562 202.457031 C 197.980469 203.007812 197.671875 203.589844 197.417969 204.199219 C 197.164062 204.8125 196.972656 205.441406 196.84375 206.089844 C 196.710938 206.742188 196.648438 207.398438 196.648438 208.058594 L 196.648438 235.210938 C 196.652344 235.511719 196.6875 235.808594 196.75 236.105469 C 196.816406 236.398438 196.90625 236.6875 197.027344 236.964844 C 197.148438 237.238281 197.292969 237.503906 197.460938 237.753906 C 197.632812 238 197.828125 238.230469 198.042969 238.441406 C 198.257812 238.652344 198.492188 238.84375 198.742188 239.007812 C 198.996094 239.175781 199.261719 239.3125 199.542969 239.429688 C 199.820312 239.542969 200.109375 239.628906 200.40625 239.6875 C 200.699219 239.746094 201 239.773438 201.300781 239.773438 C 201.605469 239.773438 201.902344 239.746094 202.199219 239.6875 C 202.496094 239.628906 202.78125 239.542969 203.0625 239.429688 C 203.34375 239.3125 203.609375 239.175781 203.859375 239.007812 C 204.113281 238.84375 204.347656 238.652344 204.5625 238.441406 C 204.777344 238.230469 204.96875 238 205.140625 237.75 C 205.3125 237.503906 205.457031 237.238281 205.578125 236.960938 C 205.695312 236.683594 205.789062 236.398438 205.851562 236.105469 C 205.914062 235.808594 205.949219 235.511719 205.957031 235.210938 L 205.957031 223.574219 L 218.371094 223.574219 L 218.371094 235.210938 C 218.371094 235.515625 218.398438 235.816406 218.460938 236.117188 C 218.519531 236.417969 218.605469 236.707031 218.722656 236.992188 C 218.839844 237.273438 218.984375 237.542969 219.15625 237.796875 C 219.324219 238.050781 219.515625 238.285156 219.734375 238.5 C 219.949219 238.71875 220.183594 238.910156 220.4375 239.078125 C 220.691406 239.25 220.960938 239.394531 221.242188 239.511719 C 221.527344 239.625 221.816406 239.714844 222.117188 239.773438 C 222.417969 239.835938 222.71875 239.863281 223.023438 239.863281 Z M 205.957031 214.261719 L 205.957031 208.058594 C 205.957031 207.84375 206.03125 207.660156 206.183594 207.507812 C 206.335938 207.359375 206.519531 207.28125 206.734375 207.28125 L 217.59375 207.28125 C 217.808594 207.28125 217.992188 207.359375 218.140625 207.507812 C 218.292969 207.660156 218.371094 207.84375 218.371094 208.058594 L 218.371094 214.261719 Z M 205.957031 214.261719 " fill-opacity="1" fill-rule="nonzero"/><path fill="#f88e37" d="M 142.574219 199.832031 C 142.390625 199.589844 142.183594 199.363281 141.957031 199.160156 C 141.730469 198.957031 141.484375 198.777344 141.222656 198.621094 C 140.957031 198.464844 140.683594 198.335938 140.394531 198.234375 C 140.105469 198.132812 139.8125 198.0625 139.507812 198.019531 C 139.207031 197.976562 138.902344 197.960938 138.597656 197.976562 C 138.292969 197.996094 137.992188 198.042969 137.695312 198.117188 C 137.398438 198.195312 137.113281 198.296875 136.839844 198.429688 C 136.5625 198.5625 136.304688 198.71875 136.058594 198.902344 L 121.785156 209.609375 L 121.785156 202.625 C 121.785156 202.320312 121.757812 202.019531 121.695312 201.71875 C 121.636719 201.417969 121.546875 201.128906 121.429688 200.84375 C 121.316406 200.5625 121.171875 200.292969 121 200.039062 C 120.832031 199.785156 120.636719 199.550781 120.421875 199.335938 C 120.207031 199.121094 119.972656 198.925781 119.71875 198.757812 C 119.464844 198.585938 119.195312 198.441406 118.914062 198.328125 C 118.628906 198.210938 118.339844 198.121094 118.039062 198.0625 C 117.738281 198 117.4375 197.972656 117.132812 197.972656 C 116.824219 197.972656 116.523438 198 116.222656 198.0625 C 115.921875 198.121094 115.632812 198.210938 115.351562 198.328125 C 115.066406 198.441406 114.800781 198.585938 114.546875 198.757812 C 114.292969 198.925781 114.054688 199.121094 113.839844 199.335938 C 113.625 199.550781 113.429688 199.785156 113.261719 200.039062 C 113.089844 200.292969 112.949219 200.5625 112.832031 200.84375 C 112.714844 201.128906 112.625 201.417969 112.566406 201.71875 C 112.507812 202.019531 112.476562 202.320312 112.476562 202.625 L 112.476562 235.210938 C 112.476562 235.515625 112.507812 235.816406 112.566406 236.117188 C 112.625 236.417969 112.714844 236.707031 112.832031 236.992188 C 112.949219 237.273438 113.089844 237.542969 113.261719 237.796875 C 113.429688 238.050781 113.625 238.285156 113.839844 238.5 C 114.054688 238.714844 114.292969 238.910156 114.546875 239.078125 C 114.800781 239.25 115.066406 239.394531 115.351562 239.507812 C 115.632812 239.625 115.921875 239.714844 116.222656 239.773438 C 116.523438 239.835938 116.824219 239.863281 117.132812 239.863281 C 117.4375 239.863281 117.738281 239.835938 118.039062 239.773438 C 118.339844 239.714844 118.628906 239.625 118.914062 239.507812 C 119.195312 239.394531 119.464844 239.25 119.71875 239.078125 C 119.972656 238.910156 120.207031 238.714844 120.421875 238.5 C 120.636719 238.285156 120.832031 238.050781 121 237.796875 C 121.171875 237.542969 121.316406 237.273438 121.429688 236.992188 C 121.546875 236.707031 121.636719 236.417969 121.695312 236.117188 C 121.757812 235.816406 121.785156 235.515625 121.785156 235.210938 L 121.785156 228.226562 L 136.058594 238.933594 C 136.304688 239.109375 136.5625 239.257812 136.835938 239.386719 C 137.113281 239.511719 137.394531 239.609375 137.6875 239.679688 C 137.984375 239.75 138.28125 239.792969 138.582031 239.804688 C 138.882812 239.816406 139.183594 239.800781 139.480469 239.753906 C 139.78125 239.707031 140.070312 239.636719 140.355469 239.53125 C 140.636719 239.429688 140.910156 239.300781 141.167969 239.148438 C 141.425781 238.992188 141.667969 238.8125 141.894531 238.609375 C 142.117188 238.410156 142.320312 238.1875 142.5 237.945312 C 142.679688 237.703125 142.835938 237.449219 142.96875 237.175781 C 143.097656 236.902344 143.203125 236.621094 143.28125 236.332031 C 143.355469 236.039062 143.402344 235.742188 143.421875 235.441406 C 143.441406 235.140625 143.429688 234.839844 143.390625 234.539062 C 143.351562 234.242188 143.28125 233.949219 143.183594 233.664062 C 143.089844 233.378906 142.964844 233.101562 142.816406 232.839844 C 142.664062 232.578125 142.492188 232.335938 142.292969 232.105469 C 142.097656 231.878906 141.878906 231.671875 141.640625 231.484375 L 124.890625 218.917969 L 141.640625 206.347656 C 141.886719 206.167969 142.109375 205.960938 142.316406 205.734375 C 142.519531 205.507812 142.699219 205.261719 142.855469 205 C 143.011719 204.734375 143.140625 204.460938 143.242188 204.171875 C 143.34375 203.882812 143.414062 203.585938 143.457031 203.285156 C 143.5 202.980469 143.515625 202.679688 143.5 202.371094 C 143.480469 202.066406 143.433594 201.765625 143.359375 201.472656 C 143.285156 201.175781 143.179688 200.890625 143.046875 200.613281 C 142.914062 200.335938 142.757812 200.078125 142.574219 199.832031 Z M 142.574219 199.832031 " fill-opacity="1" fill-rule="nonzero"/><path fill="#f88e37" d="M 243.390625 197.972656 C 243.082031 197.972656 242.78125 198 242.480469 198.0625 C 242.179688 198.121094 241.890625 198.210938 241.609375 198.324219 C 241.324219 198.441406 241.058594 198.585938 240.804688 198.757812 C 240.546875 198.925781 240.3125 199.117188 240.097656 199.335938 C 239.882812 199.550781 239.6875 199.785156 239.519531 200.039062 C 239.347656 200.292969 239.207031 200.5625 239.089844 200.84375 C 238.972656 201.128906 238.882812 201.417969 238.824219 201.71875 C 238.765625 202.019531 238.734375 202.320312 238.734375 202.625 L 238.734375 235.210938 C 238.734375 235.515625 238.765625 235.816406 238.824219 236.117188 C 238.882812 236.417969 238.972656 236.707031 239.089844 236.992188 C 239.207031 237.273438 239.347656 237.542969 239.519531 237.796875 C 239.6875 238.050781 239.882812 238.285156 240.097656 238.5 C 240.3125 238.71875 240.546875 238.910156 240.804688 239.078125 C 241.058594 239.25 241.324219 239.394531 241.609375 239.511719 C 241.890625 239.625 242.179688 239.714844 242.480469 239.773438 C 242.78125 239.835938 243.082031 239.863281 243.390625 239.863281 L 265.109375 239.863281 C 265.410156 239.859375 265.707031 239.824219 266.003906 239.757812 C 266.296875 239.695312 266.585938 239.601562 266.863281 239.484375 C 267.136719 239.363281 267.402344 239.21875 267.652344 239.046875 C 267.898438 238.878906 268.128906 238.683594 268.339844 238.46875 C 268.550781 238.253906 268.742188 238.019531 268.90625 237.765625 C 269.074219 237.515625 269.210938 237.25 269.328125 236.96875 C 269.441406 236.691406 269.527344 236.402344 269.585938 236.105469 C 269.644531 235.808594 269.671875 235.511719 269.671875 235.210938 C 269.671875 234.90625 269.644531 234.609375 269.585938 234.3125 C 269.527344 234.015625 269.441406 233.726562 269.328125 233.449219 C 269.210938 233.167969 269.074219 232.902344 268.90625 232.652344 C 268.742188 232.398438 268.550781 232.164062 268.339844 231.949219 C 268.128906 231.734375 267.898438 231.539062 267.648438 231.371094 C 267.402344 231.199219 267.136719 231.054688 266.859375 230.933594 C 266.582031 230.816406 266.296875 230.722656 266.003906 230.660156 C 265.707031 230.59375 265.410156 230.558594 265.109375 230.554688 L 248.042969 230.554688 L 248.042969 202.625 C 248.042969 202.320312 248.015625 202.019531 247.953125 201.71875 C 247.894531 201.417969 247.808594 201.128906 247.691406 200.84375 C 247.574219 200.5625 247.429688 200.292969 247.261719 200.039062 C 247.089844 199.785156 246.898438 199.550781 246.679688 199.335938 C 246.464844 199.117188 246.230469 198.925781 245.976562 198.757812 C 245.722656 198.585938 245.453125 198.441406 245.171875 198.324219 C 244.886719 198.210938 244.597656 198.121094 244.296875 198.0625 C 243.996094 198 243.695312 197.972656 243.390625 197.972656 Z M 243.390625 197.972656 " fill-opacity="1" fill-rule="nonzero"/></svg>