<svg xmlns="http://www.w3.org/2000/svg" xmlns:xlink="http://www.w3.org/1999/xlink" width="500" zoomAndPan="magnify" viewBox="0 0 375 374.999991" height="500" preserveAspectRatio="xMidYMid meet" version="1.2"><defs><clipPath id="e8c46ca921"><path d="M 5.332031 5.332031 L 367.003906 5.332031 L 367.003906 369 L 5.332031 369 Z M 5.332031 5.332031 "/></clipPath><clipPath id="330c967c49"><path d="M 186.167969 5.332031 C 86.292969 5.332031 5.332031 86.691406 5.332031 187.054688 C 5.332031 287.417969 86.292969 368.78125 186.167969 368.78125 C 286.039062 368.78125 367.003906 287.417969 367.003906 187.054688 C 367.003906 86.691406 286.039062 5.332031 186.167969 5.332031 Z M 186.167969 5.332031 "/></clipPath><clipPath id="e9cec4b6f2"><path d="M 49.410156 49.410156 L 325.410156 49.410156 L 325.410156 325.410156 L 49.410156 325.410156 Z M 49.410156 49.410156 "/></clipPath></defs><g id="e169e7c335"><rect x="0" width="375" y="0" height="374.999991" style="fill:#ffffff;fill-opacity:1;stroke:none;"/><rect x="0" width="375" y="0" height="374.999991" style="fill:#ffffff;fill-opacity:1;stroke:none;"/><g clip-rule="nonzero" clip-path="url(#e8c46ca921)"><g clip-rule="nonzero" clip-path="url(#330c967c49)"><path style=" stroke:none;fill-rule:nonzero;fill:#fffca8;fill-opacity:1;" d="M 5.332031 5.332031 L 367.003906 5.332031 L 367.003906 368.414062 L 5.332031 368.414062 Z M 5.332031 5.332031 "/></g></g><g clip-rule="nonzero" clip-path="url(#e9cec4b6f2)"><path style=" stroke:none;fill-rule:nonzero;fill:#ffec7b;fill-opacity:1;" d="M 325.410156 187.410156 C 325.410156 189.667969 325.355469 191.925781 325.246094 194.183594 C 325.132812 196.4375 324.96875 198.691406 324.746094 200.9375 C 324.523438 203.183594 324.25 205.425781 323.917969 207.660156 C 323.585938 209.894531 323.199219 212.117188 322.757812 214.332031 C 322.320312 216.546875 321.824219 218.75 321.273438 220.941406 C 320.726562 223.132812 320.125 225.308594 319.46875 227.46875 C 318.8125 229.632812 318.105469 231.777344 317.34375 233.902344 C 316.582031 236.027344 315.769531 238.136719 314.90625 240.222656 C 314.042969 242.308594 313.128906 244.371094 312.160156 246.414062 C 311.195312 248.457031 310.179688 250.472656 309.117188 252.464844 C 308.050781 254.457031 306.9375 256.421875 305.777344 258.355469 C 304.617188 260.292969 303.410156 262.203125 302.152344 264.078125 C 300.898438 265.957031 299.597656 267.804688 298.253906 269.617188 C 296.910156 271.429688 295.519531 273.210938 294.085938 274.957031 C 292.652344 276.703125 291.179688 278.414062 289.664062 280.085938 C 288.144531 281.757812 286.589844 283.394531 284.992188 284.992188 C 283.394531 286.589844 281.757812 288.144531 280.085938 289.664062 C 278.414062 291.179688 276.703125 292.652344 274.957031 294.085938 C 273.210938 295.519531 271.429688 296.910156 269.617188 298.253906 C 267.804688 299.597656 265.957031 300.898438 264.078125 302.152344 C 262.203125 303.410156 260.292969 304.617188 258.355469 305.777344 C 256.421875 306.9375 254.457031 308.050781 252.464844 309.117188 C 250.472656 310.179688 248.457031 311.195312 246.414062 312.160156 C 244.371094 313.128906 242.308594 314.042969 240.222656 314.90625 C 238.136719 315.769531 236.027344 316.582031 233.902344 317.34375 C 231.777344 318.105469 229.632812 318.8125 227.46875 319.46875 C 225.308594 320.125 223.132812 320.726562 220.941406 321.273438 C 218.75 321.824219 216.546875 322.320312 214.332031 322.757812 C 212.117188 323.199219 209.894531 323.585938 207.660156 323.917969 C 205.425781 324.25 203.183594 324.523438 200.9375 324.746094 C 198.691406 324.96875 196.4375 325.132812 194.183594 325.246094 C 191.925781 325.355469 189.667969 325.410156 187.410156 325.410156 C 185.152344 325.410156 182.894531 325.355469 180.640625 325.246094 C 178.382812 325.132812 176.132812 324.96875 173.882812 324.746094 C 171.636719 324.523438 169.394531 324.25 167.164062 323.917969 C 164.929688 323.585938 162.703125 323.199219 160.488281 322.757812 C 158.273438 322.320312 156.070312 321.824219 153.878906 321.273438 C 151.6875 320.726562 149.511719 320.125 147.351562 319.46875 C 145.191406 318.8125 143.046875 318.105469 140.921875 317.34375 C 138.792969 316.582031 136.6875 315.769531 134.601562 314.90625 C 132.515625 314.042969 130.449219 313.128906 128.410156 312.160156 C 126.367188 311.195312 124.351562 310.179688 122.359375 309.117188 C 120.367188 308.050781 118.402344 306.9375 116.464844 305.777344 C 114.527344 304.617188 112.621094 303.410156 110.742188 302.152344 C 108.863281 300.898438 107.019531 299.597656 105.203125 298.253906 C 103.390625 296.910156 101.609375 295.519531 99.863281 294.085938 C 98.117188 292.652344 96.410156 291.179688 94.734375 289.664062 C 93.0625 288.144531 91.425781 286.589844 89.832031 284.992188 C 88.234375 283.394531 86.675781 281.757812 85.160156 280.085938 C 83.644531 278.414062 82.167969 276.703125 80.734375 274.957031 C 79.304688 273.210938 77.914062 271.429688 76.570312 269.617188 C 75.222656 267.804688 73.921875 265.957031 72.667969 264.078125 C 71.414062 262.203125 70.207031 260.292969 69.042969 258.355469 C 67.882812 256.421875 66.769531 254.457031 65.707031 252.464844 C 64.640625 250.472656 63.625 248.457031 62.660156 246.414062 C 61.695312 244.371094 60.78125 242.308594 59.914062 240.222656 C 59.050781 238.136719 58.238281 236.027344 57.476562 233.902344 C 56.71875 231.777344 56.007812 229.632812 55.351562 227.46875 C 54.699219 225.308594 54.09375 223.132812 53.546875 220.941406 C 52.996094 218.75 52.503906 216.546875 52.0625 214.332031 C 51.621094 212.117188 51.234375 209.894531 50.90625 207.660156 C 50.574219 205.425781 50.296875 203.183594 50.074219 200.9375 C 49.855469 198.691406 49.6875 196.4375 49.578125 194.183594 C 49.464844 191.925781 49.410156 189.667969 49.410156 187.410156 C 49.410156 185.152344 49.464844 182.894531 49.578125 180.640625 C 49.6875 178.382812 49.855469 176.132812 50.074219 173.882812 C 50.296875 171.636719 50.574219 169.394531 50.90625 167.164062 C 51.234375 164.929688 51.621094 162.703125 52.0625 160.488281 C 52.503906 158.273438 52.996094 156.070312 53.546875 153.878906 C 54.09375 151.6875 54.699219 149.511719 55.351562 147.351562 C 56.007812 145.191406 56.71875 143.046875 57.476562 140.921875 C 58.238281 138.792969 59.050781 136.6875 59.914062 134.601562 C 60.78125 132.515625 61.695312 130.449219 62.660156 128.410156 C 63.625 126.367188 64.640625 124.351562 65.707031 122.359375 C 66.769531 120.367188 67.882812 118.402344 69.042969 116.464844 C 70.207031 114.527344 71.414062 112.621094 72.667969 110.742188 C 73.921875 108.863281 75.222656 107.019531 76.570312 105.203125 C 77.914062 103.390625 79.304688 101.609375 80.734375 99.863281 C 82.167969 98.117188 83.644531 96.410156 85.160156 94.734375 C 86.675781 93.0625 88.234375 91.425781 89.832031 89.832031 C 91.425781 88.234375 93.0625 86.675781 94.734375 85.160156 C 96.410156 83.644531 98.117188 82.167969 99.863281 80.734375 C 101.609375 79.304688 103.390625 77.914062 105.203125 76.570312 C 107.019531 75.222656 108.863281 73.921875 110.742188 72.667969 C 112.621094 71.414062 114.527344 70.207031 116.464844 69.042969 C 118.402344 67.882812 120.367188 66.769531 122.359375 65.707031 C 124.351562 64.640625 126.367188 63.625 128.410156 62.660156 C 130.449219 61.695312 132.515625 60.78125 134.601562 59.914062 C 136.6875 59.050781 138.792969 58.238281 140.921875 57.476562 C 143.046875 56.71875 145.191406 56.007812 147.351562 55.351562 C 149.511719 54.699219 151.6875 54.09375 153.878906 53.546875 C 156.070312 52.996094 158.273438 52.503906 160.488281 52.0625 C 162.703125 51.621094 164.929688 51.234375 167.164062 50.90625 C 169.394531 50.574219 171.636719 50.296875 173.882812 50.074219 C 176.132812 49.855469 178.382812 49.6875 180.640625 49.578125 C 182.894531 49.464844 185.152344 49.410156 187.410156 49.410156 C 189.667969 49.410156 191.925781 49.464844 194.183594 49.578125 C 196.4375 49.6875 198.691406 49.855469 200.9375 50.074219 C 203.183594 50.296875 205.425781 50.574219 207.660156 50.90625 C 209.894531 51.234375 212.117188 51.621094 214.332031 52.0625 C 216.546875 52.503906 218.75 52.996094 220.941406 53.546875 C 223.132812 54.09375 225.308594 54.699219 227.46875 55.351562 C 229.632812 56.007812 231.777344 56.71875 233.902344 57.476562 C 236.027344 58.238281 238.136719 59.050781 240.222656 59.914062 C 242.308594 60.78125 244.371094 61.695312 246.414062 62.660156 C 248.457031 63.625 250.472656 64.640625 252.464844 65.707031 C 254.457031 66.769531 256.421875 67.882812 258.355469 69.042969 C 260.292969 70.207031 262.203125 71.414062 264.078125 72.667969 C 265.957031 73.921875 267.804688 75.222656 269.617188 76.570312 C 271.429688 77.914062 273.210938 79.304688 274.957031 80.734375 C 276.703125 82.167969 278.414062 83.644531 280.085938 85.160156 C 281.757812 86.675781 283.394531 88.234375 284.992188 89.832031 C 286.589844 91.425781 288.144531 93.0625 289.664062 94.734375 C 291.179688 96.410156 292.652344 98.117188 294.085938 99.863281 C 295.519531 101.609375 296.910156 103.390625 298.253906 105.203125 C 299.597656 107.019531 300.898438 108.863281 302.152344 110.742188 C 303.410156 112.621094 304.617188 114.527344 305.777344 116.464844 C 306.9375 118.402344 308.050781 120.367188 309.117188 122.359375 C 310.179688 124.351562 311.195312 126.367188 312.160156 128.410156 C 313.128906 130.449219 314.042969 132.515625 314.90625 134.601562 C 315.769531 136.6875 316.582031 138.792969 317.34375 140.921875 C 318.105469 143.046875 318.8125 145.191406 319.46875 147.351562 C 320.125 149.511719 320.726562 151.6875 321.273438 153.878906 C 321.824219 156.070312 322.320312 158.273438 322.757812 160.488281 C 323.199219 162.703125 323.585938 164.929688 323.917969 167.164062 C 324.25 169.394531 324.523438 171.636719 324.746094 173.882812 C 324.96875 176.132812 325.132812 178.382812 325.246094 180.640625 C 325.355469 182.894531 325.410156 185.152344 325.410156 187.410156 Z M 325.410156 187.410156 "/></g><path style=" stroke:none;fill-rule:nonzero;fill:#603813;fill-opacity:1;" d="M 95.078125 210.773438 C 105.558594 252.589844 142.917969 282.421875 187.355469 282.421875 C 231.792969 282.421875 269.152344 252.589844 279.632812 210.773438 Z M 95.078125 210.773438 "/><path style=" stroke:none;fill-rule:nonzero;fill:#ffffff;fill-opacity:1;" d="M 282.644531 187.914062 L 92.121094 187.914062 C 92.121094 195.71875 93.125 203.523438 95.078125 210.773438 L 279.691406 210.773438 C 281.585938 203.523438 282.644531 195.71875 282.644531 187.914062 Z M 282.644531 187.914062 "/><path style=" stroke:none;fill-rule:nonzero;fill:#dea500;fill-opacity:1;" d="M 109.351562 155.683594 C 109.183594 155.683594 109.015625 155.683594 108.847656 155.683594 C 105.78125 155.40625 103.496094 152.730469 103.773438 149.664062 C 103.773438 149.328125 104.5 141.855469 108.570312 134.328125 C 114.257812 123.847656 123.625 118.273438 135.613281 118.273438 C 147.601562 118.273438 156.855469 123.734375 162.433594 134.164062 C 166.445312 141.578125 167.003906 148.992188 167.003906 149.328125 C 167.226562 152.394531 164.941406 155.070312 161.875 155.292969 C 158.808594 155.519531 156.132812 153.230469 155.90625 150.164062 C 155.90625 150.109375 155.40625 144.535156 152.449219 139.179688 C 148.828125 132.65625 143.308594 129.480469 135.554688 129.480469 C 127.695312 129.480469 122.0625 132.824219 118.328125 139.683594 C 115.371094 145.089844 114.871094 150.554688 114.871094 150.609375 C 114.648438 153.511719 112.25 155.683594 109.351562 155.683594 Z M 109.351562 155.683594 "/><path style=" stroke:none;fill-rule:nonzero;fill:#dea500;fill-opacity:1;" d="M 213.28125 155.683594 C 213.117188 155.683594 212.949219 155.683594 212.78125 155.683594 C 209.714844 155.40625 207.429688 152.730469 207.707031 149.664062 C 207.707031 149.328125 208.433594 141.855469 212.503906 134.328125 C 218.1875 123.847656 227.554688 118.273438 239.542969 118.273438 C 251.53125 118.273438 260.789062 123.734375 266.363281 134.164062 C 270.378906 141.578125 270.9375 148.992188 270.9375 149.328125 C 271.160156 152.394531 268.871094 155.070312 265.804688 155.292969 C 262.738281 155.519531 260.0625 153.230469 259.839844 150.164062 C 259.839844 150.109375 259.339844 144.535156 256.382812 139.179688 C 252.757812 132.65625 247.238281 129.480469 239.488281 129.480469 C 231.625 129.480469 225.996094 132.824219 222.257812 139.683594 C 219.304688 145.089844 218.800781 150.554688 218.800781 150.609375 C 218.578125 153.511719 216.125 155.683594 213.28125 155.683594 Z M 213.28125 155.683594 "/></g></svg>