<svg xmlns="http://www.w3.org/2000/svg" xmlns:xlink="http://www.w3.org/1999/xlink" width="500" zoomAndPan="magnify" viewBox="0 0 375 374.999991" height="500" preserveAspectRatio="xMidYMid meet" version="1.0"><defs><clipPath id="d66aa23e2b"><path d="M 5.332031 5.332031 L 367.003906 5.332031 L 367.003906 369 L 5.332031 369 Z M 5.332031 5.332031 " clip-rule="nonzero"/></clipPath><clipPath id="e8dd435a2d"><path d="M 186.167969 5.332031 C 86.292969 5.332031 5.332031 86.691406 5.332031 187.054688 C 5.332031 287.417969 86.292969 368.78125 186.167969 368.78125 C 286.039062 368.78125 367.003906 287.417969 367.003906 187.054688 C 367.003906 86.691406 286.039062 5.332031 186.167969 5.332031 Z M 186.167969 5.332031 " clip-rule="nonzero"/></clipPath><clipPath id="0d81b7a4ca"><path d="M 0.332031 0.332031 L 362.003906 0.332031 L 362.003906 363.878906 L 0.332031 363.878906 Z M 0.332031 0.332031 " clip-rule="nonzero"/></clipPath><clipPath id="f2d6118979"><path d="M 181.167969 0.332031 C 81.292969 0.332031 0.332031 81.691406 0.332031 182.054688 C 0.332031 282.417969 81.292969 363.78125 181.167969 363.78125 C 281.039062 363.78125 362.003906 282.417969 362.003906 182.054688 C 362.003906 81.691406 281.039062 0.332031 181.167969 0.332031 Z M 181.167969 0.332031 " clip-rule="nonzero"/></clipPath><clipPath id="396a50cc8d"><rect x="0" width="363" y="0" height="364"/></clipPath><clipPath id="aa764164c5"><path d="M 49.410156 49.410156 L 325.410156 49.410156 L 325.410156 325.410156 L 49.410156 325.410156 Z M 49.410156 49.410156 " clip-rule="nonzero"/></clipPath></defs><rect x="-37.5" width="450" fill="#ffffff" y="-37.499999" height="449.999989" fill-opacity="1"/><rect x="-37.5" width="450" fill="#2f2f2f" y="-37.499999" height="449.999989" fill-opacity="1"/><g clip-path="url(#d66aa23e2b)"><g clip-path="url(#e8dd435a2d)"><g transform="matrix(1, 0, 0, 1, 5, 5)"><g clip-path="url(#396a50cc8d)"><g clip-path="url(#0d81b7a4ca)"><g clip-path="url(#f2d6118979)"><path fill="#2a2d24" d="M 0.332031 0.332031 L 362.003906 0.332031 L 362.003906 363.414062 L 0.332031 363.414062 Z M 0.332031 0.332031 " fill-opacity="1" fill-rule="nonzero"/></g></g></g></g></g></g><g clip-path="url(#aa764164c5)"><path fill="#ffec7b" d="M 325.585938 187.5 C 325.585938 189.757812 325.53125 192.015625 325.421875 194.273438 C 325.308594 196.53125 325.144531 198.785156 324.921875 201.035156 C 324.699219 203.28125 324.425781 205.523438 324.09375 207.761719 C 323.761719 209.996094 323.375 212.222656 322.933594 214.4375 C 322.492188 216.65625 321.996094 218.859375 321.449219 221.050781 C 320.898438 223.242188 320.296875 225.421875 319.640625 227.582031 C 318.984375 229.746094 318.277344 231.890625 317.515625 234.019531 C 316.753906 236.148438 315.941406 238.253906 315.074219 240.34375 C 314.210938 242.429688 313.296875 244.496094 312.328125 246.539062 C 311.363281 248.582031 310.347656 250.601562 309.28125 252.59375 C 308.214844 254.585938 307.101562 256.550781 305.941406 258.492188 C 304.777344 260.429688 303.570312 262.335938 302.316406 264.214844 C 301.058594 266.09375 299.757812 267.941406 298.414062 269.757812 C 297.066406 271.574219 295.675781 273.355469 294.242188 275.101562 C 292.808594 276.847656 291.332031 278.558594 289.816406 280.234375 C 288.296875 281.90625 286.738281 283.542969 285.140625 285.140625 C 283.542969 286.738281 281.90625 288.296875 280.234375 289.816406 C 278.558594 291.332031 276.847656 292.808594 275.101562 294.242188 C 273.355469 295.675781 271.574219 297.066406 269.757812 298.414062 C 267.941406 299.757812 266.09375 301.058594 264.214844 302.316406 C 262.335938 303.570312 260.429688 304.777344 258.492188 305.941406 C 256.550781 307.101562 254.585938 308.214844 252.59375 309.28125 C 250.601562 310.347656 248.582031 311.363281 246.539062 312.328125 C 244.496094 313.296875 242.429688 314.210938 240.34375 315.074219 C 238.253906 315.941406 236.148438 316.753906 234.019531 317.515625 C 231.890625 318.277344 229.746094 318.984375 227.582031 319.640625 C 225.421875 320.296875 223.242188 320.898438 221.050781 321.449219 C 218.859375 321.996094 216.65625 322.492188 214.4375 322.933594 C 212.222656 323.375 209.996094 323.761719 207.761719 324.09375 C 205.523438 324.425781 203.28125 324.699219 201.035156 324.921875 C 198.785156 325.144531 196.53125 325.308594 194.273438 325.421875 C 192.015625 325.53125 189.757812 325.585938 187.5 325.585938 C 185.238281 325.585938 182.980469 325.53125 180.722656 325.421875 C 178.464844 325.308594 176.214844 325.144531 173.964844 324.921875 C 171.714844 324.699219 169.472656 324.425781 167.238281 324.09375 C 165 323.761719 162.777344 323.375 160.558594 322.933594 C 158.34375 322.492188 156.136719 321.996094 153.945312 321.449219 C 151.753906 320.898438 149.578125 320.296875 147.414062 319.640625 C 145.25 318.984375 143.105469 318.277344 140.980469 317.515625 C 138.851562 316.753906 136.742188 315.941406 134.65625 315.074219 C 132.566406 314.210938 130.5 313.296875 128.457031 312.328125 C 126.414062 311.363281 124.398438 310.347656 122.40625 309.28125 C 120.410156 308.214844 118.445312 307.101562 116.507812 305.941406 C 114.570312 304.777344 112.660156 303.570312 110.78125 302.316406 C 108.902344 301.058594 107.054688 299.757812 105.238281 298.414062 C 103.425781 297.066406 101.644531 295.675781 99.898438 294.242188 C 98.148438 292.808594 96.4375 291.332031 94.765625 289.816406 C 93.089844 288.296875 91.453125 286.738281 89.855469 285.140625 C 88.257812 283.542969 86.699219 281.90625 85.183594 280.234375 C 83.664062 278.558594 82.1875 276.847656 80.753906 275.101562 C 79.320312 273.355469 77.933594 271.574219 76.585938 269.757812 C 75.238281 267.941406 73.9375 266.09375 72.683594 264.214844 C 71.425781 262.335938 70.21875 260.429688 69.058594 258.492188 C 67.894531 256.550781 66.78125 254.585938 65.714844 252.59375 C 64.652344 250.601562 63.636719 248.582031 62.667969 246.539062 C 61.703125 244.496094 60.789062 242.429688 59.921875 240.34375 C 59.058594 238.253906 58.246094 236.148438 57.484375 234.019531 C 56.722656 231.890625 56.011719 229.746094 55.355469 227.582031 C 54.699219 225.421875 54.097656 223.242188 53.550781 221.050781 C 53 218.859375 52.503906 216.65625 52.0625 214.4375 C 51.625 212.222656 51.238281 209.996094 50.90625 207.761719 C 50.574219 205.523438 50.296875 203.28125 50.074219 201.035156 C 49.855469 198.785156 49.6875 196.53125 49.578125 194.273438 C 49.464844 192.015625 49.410156 189.757812 49.410156 187.5 C 49.410156 185.238281 49.464844 182.980469 49.578125 180.722656 C 49.6875 178.464844 49.855469 176.214844 50.074219 173.964844 C 50.296875 171.714844 50.574219 169.472656 50.90625 167.238281 C 51.238281 165 51.625 162.777344 52.0625 160.558594 C 52.503906 158.34375 53 156.136719 53.550781 153.945312 C 54.097656 151.753906 54.699219 149.578125 55.355469 147.414062 C 56.011719 145.25 56.722656 143.105469 57.484375 140.980469 C 58.246094 138.851562 59.058594 136.742188 59.921875 134.65625 C 60.789062 132.566406 61.703125 130.5 62.667969 128.457031 C 63.636719 126.414062 64.652344 124.398438 65.714844 122.40625 C 66.78125 120.410156 67.894531 118.445312 69.058594 116.507812 C 70.21875 114.570312 71.425781 112.660156 72.683594 110.78125 C 73.9375 108.902344 75.238281 107.054688 76.585938 105.238281 C 77.933594 103.425781 79.320312 101.644531 80.753906 99.898438 C 82.1875 98.148438 83.664062 96.4375 85.183594 94.765625 C 86.699219 93.089844 88.257812 91.453125 89.855469 89.855469 C 91.453125 88.257812 93.089844 86.699219 94.765625 85.183594 C 96.4375 83.664062 98.148438 82.1875 99.898438 80.753906 C 101.644531 79.320312 103.425781 77.933594 105.238281 76.585938 C 107.054688 75.238281 108.902344 73.9375 110.78125 72.683594 C 112.660156 71.425781 114.570312 70.21875 116.507812 69.058594 C 118.445312 67.894531 120.410156 66.78125 122.40625 65.714844 C 124.398438 64.652344 126.414062 63.636719 128.457031 62.667969 C 130.5 61.703125 132.566406 60.789062 134.65625 59.921875 C 136.742188 59.058594 138.851562 58.246094 140.980469 57.484375 C 143.105469 56.722656 145.25 56.011719 147.414062 55.355469 C 149.578125 54.699219 151.753906 54.097656 153.945312 53.550781 C 156.136719 53 158.34375 52.503906 160.558594 52.0625 C 162.777344 51.625 165 51.238281 167.238281 50.90625 C 169.472656 50.574219 171.714844 50.296875 173.964844 50.074219 C 176.214844 49.855469 178.464844 49.6875 180.722656 49.578125 C 182.980469 49.464844 185.238281 49.410156 187.5 49.410156 C 189.757812 49.410156 192.015625 49.464844 194.273438 49.578125 C 196.53125 49.6875 198.785156 49.855469 201.035156 50.074219 C 203.28125 50.296875 205.523438 50.574219 207.761719 50.90625 C 209.996094 51.238281 212.222656 51.625 214.4375 52.0625 C 216.65625 52.503906 218.859375 53 221.050781 53.550781 C 223.242188 54.097656 225.421875 54.699219 227.582031 55.355469 C 229.746094 56.011719 231.890625 56.722656 234.019531 57.484375 C 236.148438 58.246094 238.253906 59.058594 240.34375 59.921875 C 242.429688 60.789062 244.496094 61.703125 246.539062 62.667969 C 248.582031 63.636719 250.601562 64.652344 252.59375 65.714844 C 254.585938 66.78125 256.550781 67.894531 258.492188 69.058594 C 260.429688 70.21875 262.335938 71.425781 264.214844 72.683594 C 266.09375 73.9375 267.941406 75.238281 269.757812 76.585938 C 271.574219 77.933594 273.355469 79.320312 275.101562 80.753906 C 276.847656 82.1875 278.558594 83.664062 280.234375 85.183594 C 281.90625 86.699219 283.542969 88.257812 285.140625 89.855469 C 286.738281 91.453125 288.296875 93.089844 289.816406 94.765625 C 291.332031 96.4375 292.808594 98.148438 294.242188 99.898438 C 295.675781 101.644531 297.066406 103.425781 298.414062 105.238281 C 299.757812 107.054688 301.058594 108.902344 302.316406 110.78125 C 303.570312 112.660156 304.777344 114.570312 305.941406 116.507812 C 307.101562 118.445312 308.214844 120.410156 309.28125 122.40625 C 310.347656 124.398438 311.363281 126.414062 312.328125 128.457031 C 313.296875 130.5 314.210938 132.566406 315.074219 134.65625 C 315.941406 136.742188 316.753906 138.851562 317.515625 140.980469 C 318.277344 143.105469 318.984375 145.25 319.640625 147.414062 C 320.296875 149.578125 320.898438 151.753906 321.449219 153.945312 C 321.996094 156.136719 322.492188 158.34375 322.933594 160.558594 C 323.375 162.777344 323.761719 165 324.09375 167.238281 C 324.421875 169.472656 324.699219 171.714844 324.921875 173.964844 C 325.144531 176.214844 325.308594 178.464844 325.421875 180.722656 C 325.53125 182.980469 325.585938 185.238281 325.585938 187.5 Z M 325.585938 187.5 " fill-opacity="1" fill-rule="nonzero"/></g><path fill="#603813" d="M 95.105469 210.875 C 105.59375 252.722656 142.976562 282.570312 187.441406 282.570312 C 231.910156 282.570312 269.292969 252.722656 279.78125 210.875 Z M 95.105469 210.875 " fill-opacity="1" fill-rule="nonzero"/><path fill="#1c1e1a" d="M 282.792969 188 L 92.148438 188 C 92.148438 195.8125 93.152344 203.625 95.105469 210.875 L 279.835938 210.875 C 281.734375 203.625 282.792969 195.8125 282.792969 188 Z M 282.792969 188 " fill-opacity="1" fill-rule="nonzero"/><path fill="#dea500" d="M 109.386719 155.753906 C 109.222656 155.753906 109.054688 155.753906 108.886719 155.753906 C 105.816406 155.472656 103.53125 152.796875 103.808594 149.726562 C 103.808594 149.390625 104.535156 141.917969 108.609375 134.382812 C 114.296875 123.894531 123.671875 118.316406 135.667969 118.316406 C 147.664062 118.316406 156.925781 123.785156 162.503906 134.214844 C 166.519531 141.636719 167.078125 149.058594 167.078125 149.390625 C 167.300781 152.460938 165.015625 155.140625 161.945312 155.363281 C 158.878906 155.585938 156.199219 153.296875 155.976562 150.230469 C 155.976562 150.171875 155.472656 144.59375 152.515625 139.238281 C 148.890625 132.710938 143.367188 129.53125 135.613281 129.53125 C 127.746094 129.53125 122.109375 132.878906 118.371094 139.738281 C 115.414062 145.152344 114.914062 150.621094 114.914062 150.675781 C 114.6875 153.578125 112.289062 155.753906 109.386719 155.753906 Z M 109.386719 155.753906 " fill-opacity="1" fill-rule="nonzero"/><path fill="#dea500" d="M 213.386719 155.753906 C 213.21875 155.753906 213.050781 155.753906 212.886719 155.753906 C 209.816406 155.472656 207.527344 152.796875 207.808594 149.726562 C 207.808594 149.390625 208.53125 141.917969 212.605469 134.382812 C 218.296875 123.894531 227.671875 118.316406 239.664062 118.316406 C 251.660156 118.316406 260.921875 123.785156 266.503906 134.214844 C 270.519531 141.636719 271.078125 149.058594 271.078125 149.390625 C 271.300781 152.460938 269.011719 155.140625 265.945312 155.363281 C 262.875 155.585938 260.199219 153.296875 259.972656 150.230469 C 259.972656 150.171875 259.472656 144.59375 256.515625 139.238281 C 252.886719 132.710938 247.363281 129.53125 239.609375 129.53125 C 231.742188 129.53125 226.109375 132.878906 222.371094 139.738281 C 219.414062 145.152344 218.910156 150.621094 218.910156 150.675781 C 218.6875 153.578125 216.230469 155.753906 213.386719 155.753906 Z M 213.386719 155.753906 " fill-opacity="1" fill-rule="nonzero"/></svg>