<svg xmlns="http://www.w3.org/2000/svg" xmlns:xlink="http://www.w3.org/1999/xlink" width="500" zoomAndPan="magnify" viewBox="0 0 375 374.999991" height="500" preserveAspectRatio="xMidYMid meet" version="1.2"><defs><clipPath id="0b781d19bb"><path d="M 187.5 0 C 83.945312 0 0 83.945312 0 187.5 C 0 291.054688 83.945312 375 187.5 375 C 291.054688 375 375 291.054688 375 187.5 C 375 83.945312 291.054688 0 187.5 0 Z M 187.5 0 "/></clipPath><clipPath id="066ba5a38b"><path d="M 129 90.402344 L 246 90.402344 L 246 284.652344 L 129 284.652344 Z M 129 90.402344 "/></clipPath></defs><g id="73072105e9"><rect x="0" width="375" y="0" height="374.999991" style="fill:#ffffff;fill-opacity:1;stroke:none;"/><rect x="0" width="375" y="0" height="374.999991" style="fill:#ffffff;fill-opacity:1;stroke:none;"/><g clip-rule="nonzero" clip-path="url(#0b781d19bb)"><rect x="0" width="375" y="0" height="374.999991" style="fill:#ffbfc9;fill-opacity:1;stroke:none;"/></g><path style=" stroke:none;fill-rule:nonzero;fill:#fd7f7f;fill-opacity:1;" d="M 72.941406 204.058594 C 81.527344 212.457031 92.539062 216.75 103.734375 216.75 C 110.453125 216.75 116.988281 215.257812 123.144531 212.085938 C 127.25 215.445312 131.917969 217.3125 136.957031 218.058594 L 136.023438 210.40625 C 133.96875 210.03125 131.917969 209.097656 130.050781 207.980469 C 130.609375 207.605469 131.171875 207.046875 131.730469 206.671875 C 133.222656 205.367188 133.597656 202.941406 132.289062 201.449219 C 130.984375 199.953125 128.558594 199.582031 127.066406 200.886719 C 112.507812 213.019531 91.605469 212.085938 78.167969 198.648438 C 77.980469 198.460938 77.980469 198.460938 77.792969 198.273438 C 76.300781 197.15625 74.996094 196.222656 75.929688 184.835938 C 77.609375 168.789062 84.511719 145.457031 92.910156 133.699219 C 94.40625 131.648438 97.019531 131.273438 98.324219 131.273438 L 113.8125 131.273438 C 115.867188 131.273438 117.171875 132.582031 117.171875 134.820312 L 117.171875 143.40625 C 117.171875 145.273438 116.054688 147.324219 113.628906 147.324219 L 109.148438 147.324219 C 108.773438 147.324219 108.402344 147.136719 108.214844 146.953125 L 106.535156 145.273438 L 106.910156 145.273438 C 108.960938 145.273438 110.640625 143.777344 110.828125 141.726562 C 110.828125 139.671875 109.335938 137.992188 107.28125 137.804688 L 104.484375 137.621094 C 101.496094 137.433594 98.511719 138.925781 97.203125 141.726562 C 91.046875 153.671875 89.550781 161.882812 90.671875 178.492188 C 90.671875 178.492188 90.671875 178.679688 90.671875 178.679688 C 90.671875 178.863281 90.671875 178.863281 90.671875 179.050781 C 90.671875 179.238281 90.671875 179.238281 90.859375 179.425781 C 90.859375 179.613281 90.859375 179.613281 91.046875 179.796875 C 91.046875 179.984375 91.230469 179.984375 91.230469 180.171875 C 91.230469 180.171875 91.417969 180.359375 91.417969 180.359375 C 91.417969 180.542969 91.605469 180.542969 91.792969 180.730469 C 91.792969 180.730469 91.792969 180.917969 91.980469 180.917969 C 92.164062 181.105469 92.164062 181.105469 92.351562 181.292969 C 92.351562 181.292969 92.539062 181.476562 92.539062 181.476562 C 92.726562 181.664062 92.910156 181.664062 93.097656 181.664062 C 93.097656 181.664062 93.097656 181.664062 93.285156 181.664062 C 93.660156 181.851562 94.21875 181.851562 94.589844 181.851562 C 94.589844 181.851562 94.777344 181.851562 94.777344 181.851562 C 94.777344 181.851562 94.964844 181.851562 94.964844 181.851562 C 95.152344 181.851562 95.152344 181.851562 95.339844 181.851562 C 95.523438 181.851562 95.523438 181.851562 95.710938 181.664062 C 95.898438 181.664062 95.898438 181.664062 96.085938 181.476562 C 96.269531 181.476562 96.269531 181.292969 96.457031 181.292969 C 96.644531 181.292969 96.644531 181.105469 96.832031 181.105469 C 97.019531 181.105469 97.019531 180.917969 97.203125 180.917969 C 97.203125 180.917969 97.390625 180.917969 97.390625 180.730469 C 104.667969 173.453125 116.613281 173.453125 123.890625 180.730469 C 124.640625 181.476562 125.570312 181.851562 126.503906 181.851562 C 127.4375 181.851562 128.371094 181.476562 129.117188 180.730469 C 130.425781 179.425781 130.609375 177.371094 129.492188 175.878906 C 130.425781 175.320312 131.359375 174.757812 132.289062 174.386719 L 131.359375 166.734375 C 128.371094 167.855469 125.757812 169.160156 123.332031 171.214844 C 115.492188 166.921875 105.976562 166.921875 98.136719 171.027344 C 97.949219 162.070312 99.070312 156.46875 101.496094 150.496094 L 103.175781 152.175781 C 104.855469 153.855469 107.09375 154.789062 109.523438 154.789062 L 114 154.789062 C 120.160156 154.789062 125.011719 149.9375 125.011719 143.40625 L 125.011719 134.820312 C 125.011719 128.476562 120.53125 123.808594 114.1875 123.808594 L 98.699219 123.808594 C 93.84375 123.808594 89.738281 125.863281 87.125 129.222656 C 77.792969 142.285156 70.703125 167.109375 68.835938 183.90625 C 67.53125 196.035156 68.648438 200.515625 72.941406 204.058594 Z M 72.941406 204.058594 "/><path style=" stroke:none;fill-rule:nonzero;fill:#fd7f7f;fill-opacity:1;" d="M 288.5 129.40625 C 286.074219 125.863281 281.78125 123.996094 276.929688 123.996094 L 261.441406 123.996094 C 255.09375 123.996094 250.613281 128.660156 250.613281 135.007812 L 250.613281 143.59375 C 250.613281 150.125 255.28125 154.976562 261.625 154.976562 L 266.105469 154.976562 C 268.53125 154.976562 270.769531 154.042969 272.449219 152.363281 L 274.128906 150.683594 C 276.742188 156.65625 277.675781 162.253906 277.488281 171.214844 C 269.652344 166.921875 260.132812 167.109375 252.292969 171.398438 C 249.867188 169.535156 247.253906 168.039062 244.269531 166.921875 L 243.335938 174.574219 C 244.269531 174.945312 245.203125 175.503906 246.136719 176.066406 C 245.015625 177.558594 245.203125 179.613281 246.507812 180.917969 C 248.003906 182.410156 250.242188 182.410156 251.734375 180.917969 C 259.011719 173.640625 270.957031 173.640625 278.238281 180.917969 C 278.238281 180.917969 278.421875 180.917969 278.421875 181.105469 C 278.609375 181.105469 278.609375 181.292969 278.796875 181.292969 C 278.984375 181.292969 278.984375 181.476562 279.167969 181.476562 C 279.355469 181.476562 279.355469 181.664062 279.542969 181.664062 C 279.730469 181.664062 279.730469 181.851562 279.917969 181.851562 C 280.101562 181.851562 280.101562 181.851562 280.289062 182.039062 C 280.476562 182.039062 280.476562 182.039062 280.664062 182.039062 C 280.664062 182.039062 280.847656 182.039062 280.847656 182.039062 C 280.847656 182.039062 281.035156 182.039062 281.035156 182.039062 C 281.597656 182.039062 281.96875 181.851562 282.34375 181.851562 C 282.34375 181.851562 282.527344 181.851562 282.527344 181.851562 C 282.714844 181.851562 282.902344 181.664062 283.089844 181.664062 C 283.089844 181.664062 283.277344 181.476562 283.277344 181.476562 C 283.460938 181.292969 283.460938 181.292969 283.648438 181.105469 C 283.648438 181.105469 283.648438 180.917969 283.835938 180.917969 C 284.023438 180.730469 284.023438 180.730469 284.207031 180.542969 C 284.207031 180.542969 284.394531 180.359375 284.394531 180.359375 C 284.394531 180.171875 284.582031 180.171875 284.582031 179.984375 C 284.582031 179.796875 284.582031 179.796875 284.769531 179.613281 C 284.769531 179.425781 284.769531 179.425781 284.957031 179.238281 C 284.957031 179.050781 284.957031 179.050781 284.957031 178.863281 C 284.957031 178.863281 284.957031 178.679688 284.957031 178.679688 C 286.074219 162.070312 284.582031 153.855469 278.421875 141.914062 C 277.117188 139.300781 274.128906 137.621094 271.332031 137.804688 L 268.53125 137.992188 C 266.480469 137.992188 264.800781 139.859375 264.984375 141.914062 C 264.984375 143.964844 266.851562 145.644531 268.90625 145.457031 L 269.464844 145.457031 L 267.785156 147.136719 C 267.597656 147.324219 267.226562 147.511719 266.851562 147.511719 L 262.371094 147.511719 C 259.945312 147.511719 258.828125 145.644531 258.828125 143.59375 L 258.828125 135.007812 C 258.828125 132.765625 260.132812 131.460938 262.1875 131.460938 L 277.675781 131.460938 C 279.167969 131.460938 281.597656 131.835938 283.089844 133.886719 C 291.488281 145.457031 298.207031 168.972656 300.074219 185.023438 C 300.820312 196.410156 299.511719 197.339844 298.207031 198.460938 C 298.019531 198.460938 298.019531 198.648438 297.832031 198.835938 C 284.769531 211.710938 264.238281 213.019531 249.683594 201.632812 C 247.253906 200.140625 244.828125 200.515625 243.523438 202.007812 C 242.21875 203.5 242.589844 205.925781 244.082031 207.234375 C 244.269531 207.417969 244.644531 207.605469 244.828125 207.792969 C 242.964844 208.914062 240.910156 209.847656 238.859375 210.21875 L 237.925781 217.871094 C 242.777344 217.3125 247.628906 215.257812 251.734375 212.085938 C 257.894531 215.070312 264.425781 216.75 271.144531 216.75 C 282.34375 216.75 293.539062 212.457031 301.9375 204.058594 C 306.417969 200.699219 307.351562 196.035156 306.605469 184.277344 C 304.925781 167.480469 297.832031 142.472656 288.5 129.40625 Z M 288.5 129.40625 "/><g clip-rule="nonzero" clip-path="url(#066ba5a38b)"><path style=" stroke:none;fill-rule:nonzero;fill:#fd7f7f;fill-opacity:1;" d="M 130.425781 151.242188 L 129.679688 154.976562 C 129.492188 156.097656 129.679688 157.214844 130.425781 158.148438 C 131.171875 159.082031 132.105469 159.457031 133.222656 159.457031 L 137.328125 159.457031 L 151.515625 277.964844 C 152.074219 281.699219 155.246094 284.5 158.980469 284.5 L 215.902344 284.5 C 219.632812 284.5 222.808594 281.699219 223.367188 277.964844 L 237.550781 159.457031 L 241.65625 159.457031 C 242.777344 159.457031 243.894531 158.894531 244.457031 158.148438 C 245.203125 157.214844 245.390625 156.097656 245.203125 154.976562 L 244.457031 151.242188 C 243.148438 144.523438 238.859375 139.113281 233.257812 135.941406 C 230.273438 120.261719 218.703125 108.132812 202.464844 103.652344 L 202.464844 97.867188 C 202.464844 93.761719 199.105469 90.402344 195 90.402344 L 180.070312 90.402344 C 175.960938 90.402344 172.601562 93.761719 172.601562 97.867188 L 172.601562 103.652344 C 156.367188 108.132812 144.796875 120.261719 141.621094 136.125 C 136.023438 139.113281 131.730469 144.710938 130.425781 151.242188 Z M 215.902344 277.035156 L 158.980469 277.035156 L 144.980469 159.457031 L 229.898438 159.457031 Z M 234.191406 151.992188 L 138.078125 151.992188 C 139.757812 145.457031 145.726562 140.792969 152.445312 140.792969 L 222.621094 140.792969 C 229.527344 140.792969 235.3125 145.457031 236.992188 151.992188 Z M 172.601562 111.492188 L 172.601562 120.261719 C 172.601562 122.316406 174.28125 123.996094 176.335938 123.996094 C 178.390625 123.996094 180.070312 122.316406 180.070312 120.261719 L 180.070312 97.867188 L 195 97.867188 L 195 120.261719 C 195 122.316406 196.679688 123.996094 198.730469 123.996094 C 200.785156 123.996094 202.464844 122.316406 202.464844 120.261719 L 202.464844 111.492188 C 213.476562 115.222656 221.5 123.0625 225.046875 133.515625 C 224.300781 133.515625 223.554688 133.328125 222.621094 133.328125 L 152.445312 133.328125 C 151.699219 133.328125 150.953125 133.328125 150.019531 133.515625 C 153.566406 123.0625 161.59375 115.222656 172.601562 111.492188 Z M 172.601562 111.492188 "/></g><path style=" stroke:none;fill-rule:nonzero;fill:#fd7f7f;fill-opacity:1;" d="M 187.535156 116.53125 C 189.585938 116.53125 191.265625 114.851562 191.265625 112.796875 L 191.265625 105.332031 C 191.265625 103.28125 189.585938 101.601562 187.535156 101.601562 C 185.480469 101.601562 183.800781 103.28125 183.800781 105.332031 L 183.800781 112.796875 C 183.800781 114.851562 185.480469 116.53125 187.535156 116.53125 Z M 187.535156 116.53125 "/><path style=" stroke:none;fill-rule:nonzero;fill:#fd7f7f;fill-opacity:1;" d="M 165.136719 178.117188 L 176.523438 178.117188 C 178.574219 178.117188 180.253906 176.4375 180.253906 174.386719 C 180.253906 172.332031 178.574219 170.652344 176.523438 170.652344 L 165.136719 170.652344 C 163.085938 170.652344 161.40625 172.332031 161.40625 174.386719 C 161.40625 176.4375 163.085938 178.117188 165.136719 178.117188 Z M 165.136719 178.117188 "/><path style=" stroke:none;fill-rule:nonzero;fill:#fd7f7f;fill-opacity:1;" d="M 165.136719 193.050781 L 172.601562 193.050781 C 174.65625 193.050781 176.335938 191.371094 176.335938 189.316406 C 176.335938 187.261719 174.65625 185.582031 172.601562 185.582031 L 165.136719 185.582031 C 163.085938 185.582031 161.40625 187.261719 161.40625 189.316406 C 161.40625 191.371094 163.085938 193.050781 165.136719 193.050781 Z M 165.136719 193.050781 "/><path style=" stroke:none;fill-rule:nonzero;fill:#fd7f7f;fill-opacity:1;" d="M 165.136719 207.980469 L 176.523438 207.980469 C 178.574219 207.980469 180.253906 206.300781 180.253906 204.246094 C 180.253906 202.195312 178.574219 200.515625 176.523438 200.515625 L 165.136719 200.515625 C 163.085938 200.515625 161.40625 202.195312 161.40625 204.246094 C 161.40625 206.300781 163.085938 207.980469 165.136719 207.980469 Z M 165.136719 207.980469 "/><path style=" stroke:none;fill-rule:nonzero;fill:#fd7f7f;fill-opacity:1;" d="M 165.136719 222.910156 L 172.601562 222.910156 C 174.65625 222.910156 176.335938 221.230469 176.335938 219.175781 C 176.335938 217.125 174.65625 215.445312 172.601562 215.445312 L 165.136719 215.445312 C 163.085938 215.445312 161.40625 217.125 161.40625 219.175781 C 161.40625 221.230469 163.085938 222.910156 165.136719 222.910156 Z M 165.136719 222.910156 "/><path style=" stroke:none;fill-rule:nonzero;fill:#fd7f7f;fill-opacity:1;" d="M 165.136719 237.839844 L 176.523438 237.839844 C 178.574219 237.839844 180.253906 236.160156 180.253906 234.109375 C 180.253906 232.054688 178.574219 230.375 176.523438 230.375 L 165.136719 230.375 C 163.085938 230.375 161.40625 232.054688 161.40625 234.109375 C 161.40625 236.160156 163.085938 237.839844 165.136719 237.839844 Z M 165.136719 237.839844 "/><path style=" stroke:none;fill-rule:nonzero;fill:#fd7f7f;fill-opacity:1;" d="M 165.136719 267.703125 L 176.523438 267.703125 C 178.574219 267.703125 180.253906 266.023438 180.253906 263.96875 C 180.253906 261.917969 178.574219 260.238281 176.523438 260.238281 L 165.136719 260.238281 C 163.085938 260.238281 161.40625 261.917969 161.40625 263.96875 C 161.40625 266.023438 163.085938 267.703125 165.136719 267.703125 Z M 165.136719 267.703125 "/><path style=" stroke:none;fill-rule:nonzero;fill:#fd7f7f;fill-opacity:1;" d="M 165.136719 252.769531 L 172.601562 252.769531 C 174.65625 252.769531 176.335938 251.089844 176.335938 249.039062 C 176.335938 246.984375 174.65625 245.304688 172.601562 245.304688 L 165.136719 245.304688 C 163.085938 245.304688 161.40625 246.984375 161.40625 249.039062 C 161.40625 251.089844 163.085938 252.769531 165.136719 252.769531 Z M 165.136719 252.769531 "/></g></svg>