<svg xmlns="http://www.w3.org/2000/svg" xmlns:xlink="http://www.w3.org/1999/xlink" width="500" zoomAndPan="magnify" viewBox="0 0 375 374.999991" height="500" preserveAspectRatio="xMidYMid meet" version="1.0"><defs><clipPath id="ea76e78242"><path d="M 187.5 0 C 83.945312 0 0 83.945312 0 187.5 C 0 291.054688 83.945312 375 187.5 375 C 291.054688 375 375 291.054688 375 187.5 C 375 83.945312 291.054688 0 187.5 0 Z M 187.5 0 " clip-rule="nonzero"/></clipPath><clipPath id="e69b0cb660"><path d="M 0 0 L 375 0 L 375 375 L 0 375 Z M 0 0 " clip-rule="nonzero"/></clipPath><clipPath id="e0f122223f"><path d="M 187.5 0 C 83.945312 0 0 83.945312 0 187.5 C 0 291.054688 83.945312 375 187.5 375 C 291.054688 375 375 291.054688 375 187.5 C 375 83.945312 291.054688 0 187.5 0 Z M 187.5 0 " clip-rule="nonzero"/></clipPath><clipPath id="0477c85c3f"><rect x="0" width="375" y="0" height="375"/></clipPath><clipPath id="5a1054a9c7"><path d="M 129 90.402344 L 246 90.402344 L 246 284.652344 L 129 284.652344 Z M 129 90.402344 " clip-rule="nonzero"/></clipPath></defs><rect x="-37.5" width="450" fill="#ffffff" y="-37.499999" height="449.999989" fill-opacity="1"/><rect x="-37.5" width="450" fill="#1c1e1a" y="-37.499999" height="449.999989" fill-opacity="1"/><g clip-path="url(#ea76e78242)"><g transform="matrix(1, 0, 0, 1, 0, 0)"><g clip-path="url(#0477c85c3f)"><g clip-path="url(#e69b0cb660)"><g clip-path="url(#e0f122223f)"><rect x="-82.5" width="540" fill="#2a2d24" height="539.999987" y="-82.499998" fill-opacity="1"/></g></g></g></g></g><path fill="#fd7f7f" d="M 72.945312 204.117188 C 81.535156 212.519531 92.550781 216.8125 103.753906 216.8125 C 110.476562 216.8125 117.011719 215.320312 123.171875 212.144531 C 127.28125 215.507812 131.949219 217.375 136.992188 218.121094 L 136.058594 210.464844 C 134.003906 210.089844 131.949219 209.15625 130.082031 208.039062 C 130.640625 207.664062 131.203125 207.101562 131.761719 206.730469 C 133.257812 205.421875 133.628906 202.996094 132.324219 201.5 C 131.015625 200.007812 128.589844 199.632812 127.09375 200.941406 C 112.53125 213.078125 91.617188 212.144531 78.171875 198.699219 C 77.988281 198.515625 77.988281 198.515625 77.800781 198.328125 C 76.304688 197.207031 75 196.273438 75.933594 184.882812 C 77.613281 168.824219 84.523438 145.484375 92.925781 133.722656 C 94.417969 131.667969 97.03125 131.292969 98.339844 131.292969 L 113.835938 131.292969 C 115.890625 131.292969 117.199219 132.601562 117.199219 134.84375 L 117.199219 143.429688 C 117.199219 145.296875 116.078125 147.351562 113.648438 147.351562 L 109.167969 147.351562 C 108.796875 147.351562 108.421875 147.164062 108.234375 146.980469 L 106.554688 145.296875 L 106.929688 145.296875 C 108.980469 145.296875 110.664062 143.804688 110.847656 141.75 C 110.847656 139.695312 109.355469 138.015625 107.300781 137.828125 L 104.5 137.644531 C 101.511719 137.457031 98.527344 138.949219 97.21875 141.75 C 91.058594 153.699219 89.5625 161.917969 90.683594 178.535156 C 90.683594 178.535156 90.683594 178.722656 90.683594 178.722656 C 90.683594 178.910156 90.683594 178.910156 90.683594 179.09375 C 90.683594 179.28125 90.683594 179.28125 90.871094 179.46875 C 90.871094 179.65625 90.871094 179.65625 91.058594 179.84375 C 91.058594 180.027344 91.242188 180.027344 91.242188 180.214844 C 91.242188 180.214844 91.429688 180.402344 91.429688 180.402344 C 91.429688 180.589844 91.617188 180.589844 91.804688 180.777344 C 91.804688 180.777344 91.804688 180.960938 91.992188 180.960938 C 92.175781 181.148438 92.175781 181.148438 92.363281 181.335938 C 92.363281 181.335938 92.550781 181.523438 92.550781 181.523438 C 92.738281 181.710938 92.925781 181.710938 93.109375 181.710938 C 93.109375 181.710938 93.109375 181.710938 93.296875 181.710938 C 93.671875 181.894531 94.230469 181.894531 94.605469 181.894531 C 94.605469 181.894531 94.792969 181.894531 94.792969 181.894531 C 94.792969 181.894531 94.976562 181.894531 94.976562 181.894531 C 95.164062 181.894531 95.164062 181.894531 95.351562 181.894531 C 95.539062 181.894531 95.539062 181.894531 95.726562 181.710938 C 95.910156 181.710938 95.910156 181.710938 96.097656 181.523438 C 96.285156 181.523438 96.285156 181.335938 96.472656 181.335938 C 96.660156 181.335938 96.660156 181.148438 96.84375 181.148438 C 97.03125 181.148438 97.03125 180.960938 97.21875 180.960938 C 97.21875 180.960938 97.40625 180.960938 97.40625 180.777344 C 104.6875 173.492188 116.636719 173.492188 123.921875 180.777344 C 124.667969 181.523438 125.601562 181.894531 126.535156 181.894531 C 127.46875 181.894531 128.402344 181.523438 129.148438 180.777344 C 130.457031 179.46875 130.640625 177.414062 129.523438 175.921875 C 130.457031 175.359375 131.390625 174.800781 132.324219 174.425781 L 131.390625 166.769531 C 128.402344 167.890625 125.789062 169.199219 123.359375 171.253906 C 115.515625 166.957031 105.996094 166.957031 98.152344 171.066406 C 97.964844 162.101562 99.085938 156.5 101.511719 150.527344 L 103.195312 152.207031 C 104.875 153.886719 107.113281 154.820312 109.542969 154.820312 L 114.023438 154.820312 C 120.1875 154.820312 125.039062 149.964844 125.039062 143.429688 L 125.039062 134.84375 C 125.039062 128.492188 120.558594 123.824219 114.210938 123.824219 L 98.710938 123.824219 C 93.859375 123.824219 89.75 125.878906 87.136719 129.242188 C 77.800781 142.3125 70.703125 167.144531 68.835938 183.949219 C 67.53125 196.085938 68.648438 200.566406 72.945312 204.117188 Z M 72.945312 204.117188 " fill-opacity="1" fill-rule="nonzero"/><path fill="#fd7f7f" d="M 288.609375 129.425781 C 286.183594 125.878906 281.886719 124.011719 277.03125 124.011719 L 261.535156 124.011719 C 255.1875 124.011719 250.703125 128.679688 250.703125 135.027344 L 250.703125 143.617188 C 250.703125 150.152344 255.371094 155.007812 261.722656 155.007812 L 266.203125 155.007812 C 268.628906 155.007812 270.871094 154.074219 272.550781 152.394531 L 274.230469 150.714844 C 276.847656 156.6875 277.78125 162.289062 277.59375 171.253906 C 269.75 166.957031 260.226562 167.144531 252.386719 171.441406 C 249.957031 169.574219 247.34375 168.078125 244.355469 166.957031 L 243.421875 174.613281 C 244.355469 174.988281 245.289062 175.546875 246.222656 176.109375 C 245.101562 177.601562 245.289062 179.65625 246.597656 180.960938 C 248.089844 182.457031 250.332031 182.457031 251.824219 180.960938 C 259.105469 173.679688 271.058594 173.679688 278.339844 180.960938 C 278.339844 180.960938 278.527344 180.960938 278.527344 181.148438 C 278.714844 181.148438 278.714844 181.335938 278.898438 181.335938 C 279.085938 181.335938 279.085938 181.523438 279.273438 181.523438 C 279.460938 181.523438 279.460938 181.710938 279.648438 181.710938 C 279.832031 181.710938 279.832031 181.894531 280.019531 181.894531 C 280.207031 181.894531 280.207031 181.894531 280.394531 182.082031 C 280.582031 182.082031 280.582031 182.082031 280.765625 182.082031 C 280.765625 182.082031 280.953125 182.082031 280.953125 182.082031 C 280.953125 182.082031 281.140625 182.082031 281.140625 182.082031 C 281.699219 182.082031 282.074219 181.894531 282.449219 181.894531 C 282.449219 181.894531 282.632812 181.894531 282.632812 181.894531 C 282.820312 181.894531 283.007812 181.710938 283.195312 181.710938 C 283.195312 181.710938 283.382812 181.523438 283.382812 181.523438 C 283.566406 181.335938 283.566406 181.335938 283.753906 181.148438 C 283.753906 181.148438 283.753906 180.960938 283.941406 180.960938 C 284.128906 180.777344 284.128906 180.777344 284.316406 180.589844 C 284.316406 180.589844 284.5 180.402344 284.5 180.402344 C 284.5 180.214844 284.6875 180.214844 284.6875 180.027344 C 284.6875 179.84375 284.6875 179.84375 284.875 179.65625 C 284.875 179.46875 284.875 179.46875 285.0625 179.28125 C 285.0625 179.09375 285.0625 179.09375 285.0625 178.910156 C 285.0625 178.910156 285.0625 178.722656 285.0625 178.722656 C 286.183594 162.101562 284.6875 153.886719 278.527344 141.9375 C 277.21875 139.324219 274.230469 137.644531 271.429688 137.828125 L 268.628906 138.015625 C 266.574219 138.015625 264.894531 139.882812 265.082031 141.9375 C 265.082031 143.992188 266.949219 145.671875 269.003906 145.484375 L 269.5625 145.484375 L 267.882812 147.164062 C 267.695312 147.351562 267.324219 147.539062 266.949219 147.539062 L 262.46875 147.539062 C 260.039062 147.539062 258.921875 145.671875 258.921875 143.617188 L 258.921875 135.027344 C 258.921875 132.789062 260.226562 131.480469 262.28125 131.480469 L 277.78125 131.480469 C 279.273438 131.480469 281.699219 131.855469 283.195312 133.910156 C 291.597656 145.484375 298.320312 169.011719 300.1875 185.070312 C 300.933594 196.460938 299.625 197.394531 298.320312 198.515625 C 298.132812 198.515625 298.132812 198.699219 297.945312 198.886719 C 284.875 211.773438 264.335938 213.078125 249.769531 201.6875 C 247.34375 200.195312 244.917969 200.566406 243.609375 202.0625 C 242.300781 203.554688 242.675781 205.984375 244.167969 207.289062 C 244.355469 207.476562 244.730469 207.664062 244.917969 207.851562 C 243.050781 208.972656 240.996094 209.90625 238.941406 210.277344 L 238.007812 217.933594 C 242.863281 217.375 247.71875 215.320312 251.824219 212.144531 C 257.988281 215.132812 264.523438 216.8125 271.246094 216.8125 C 282.449219 216.8125 293.652344 212.519531 302.054688 204.117188 C 306.535156 200.753906 307.46875 196.085938 306.722656 184.324219 C 305.039062 167.519531 297.945312 142.496094 288.609375 129.425781 Z M 288.609375 129.425781 " fill-opacity="1" fill-rule="nonzero"/><g clip-path="url(#5a1054a9c7)"><path fill="#fd7f7f" d="M 130.457031 151.273438 L 129.707031 155.007812 C 129.523438 156.128906 129.707031 157.25 130.457031 158.183594 C 131.203125 159.117188 132.136719 159.488281 133.257812 159.488281 L 137.363281 159.488281 L 151.554688 278.058594 C 152.113281 281.792969 155.289062 284.59375 159.023438 284.59375 L 215.972656 284.59375 C 219.707031 284.59375 222.882812 281.792969 223.441406 278.058594 L 237.632812 159.488281 L 241.742188 159.488281 C 242.863281 159.488281 243.984375 158.929688 244.542969 158.183594 C 245.289062 157.25 245.476562 156.128906 245.289062 155.007812 L 244.542969 151.273438 C 243.234375 144.550781 238.941406 139.136719 233.339844 135.960938 C 230.351562 120.277344 218.773438 108.140625 202.53125 103.660156 L 202.53125 97.871094 C 202.53125 93.761719 199.167969 90.402344 195.0625 90.402344 L 180.125 90.402344 C 176.015625 90.402344 172.65625 93.761719 172.65625 97.871094 L 172.65625 103.660156 C 156.410156 108.140625 144.832031 120.277344 141.660156 136.148438 C 136.058594 139.136719 131.761719 144.738281 130.457031 151.273438 Z M 215.972656 277.125 L 159.023438 277.125 L 145.019531 159.488281 L 229.976562 159.488281 Z M 234.273438 152.019531 L 138.109375 152.019531 C 139.792969 145.484375 145.765625 140.816406 152.488281 140.816406 L 222.695312 140.816406 C 229.605469 140.816406 235.394531 145.484375 237.074219 152.019531 Z M 172.65625 111.5 L 172.65625 120.277344 C 172.65625 122.332031 174.335938 124.011719 176.390625 124.011719 C 178.441406 124.011719 180.125 122.332031 180.125 120.277344 L 180.125 97.871094 L 195.0625 97.871094 L 195.0625 120.277344 C 195.0625 122.332031 196.742188 124.011719 198.796875 124.011719 C 200.851562 124.011719 202.53125 122.332031 202.53125 120.277344 L 202.53125 111.5 C 213.546875 115.234375 221.574219 123.078125 225.125 133.535156 C 224.375 133.535156 223.628906 133.347656 222.695312 133.347656 L 152.488281 133.347656 C 151.742188 133.347656 150.996094 133.347656 150.0625 133.535156 C 153.609375 123.078125 161.636719 115.234375 172.65625 111.5 Z M 172.65625 111.5 " fill-opacity="1" fill-rule="nonzero"/></g><path fill="#fd7f7f" d="M 187.59375 116.542969 C 189.644531 116.542969 191.328125 114.863281 191.328125 112.808594 L 191.328125 105.339844 C 191.328125 103.285156 189.644531 101.605469 187.59375 101.605469 C 185.539062 101.605469 183.859375 103.285156 183.859375 105.339844 L 183.859375 112.808594 C 183.859375 114.863281 185.539062 116.542969 187.59375 116.542969 Z M 187.59375 116.542969 " fill-opacity="1" fill-rule="nonzero"/><path fill="#fd7f7f" d="M 165.1875 178.160156 L 176.574219 178.160156 C 178.628906 178.160156 180.308594 176.480469 180.308594 174.425781 C 180.308594 172.375 178.628906 170.691406 176.574219 170.691406 L 165.1875 170.691406 C 163.132812 170.691406 161.453125 172.375 161.453125 174.425781 C 161.453125 176.480469 163.132812 178.160156 165.1875 178.160156 Z M 165.1875 178.160156 " fill-opacity="1" fill-rule="nonzero"/><path fill="#fd7f7f" d="M 165.1875 193.097656 L 172.65625 193.097656 C 174.707031 193.097656 176.390625 191.417969 176.390625 189.363281 C 176.390625 187.3125 174.707031 185.628906 172.65625 185.628906 L 165.1875 185.628906 C 163.132812 185.628906 161.453125 187.3125 161.453125 189.363281 C 161.453125 191.417969 163.132812 193.097656 165.1875 193.097656 Z M 165.1875 193.097656 " fill-opacity="1" fill-rule="nonzero"/><path fill="#fd7f7f" d="M 165.1875 208.039062 L 176.574219 208.039062 C 178.628906 208.039062 180.308594 206.355469 180.308594 204.300781 C 180.308594 202.25 178.628906 200.566406 176.574219 200.566406 L 165.1875 200.566406 C 163.132812 200.566406 161.453125 202.25 161.453125 204.300781 C 161.453125 206.355469 163.132812 208.039062 165.1875 208.039062 Z M 165.1875 208.039062 " fill-opacity="1" fill-rule="nonzero"/><path fill="#fd7f7f" d="M 165.1875 222.976562 L 172.65625 222.976562 C 174.707031 222.976562 176.390625 221.292969 176.390625 219.242188 C 176.390625 217.1875 174.707031 215.507812 172.65625 215.507812 L 165.1875 215.507812 C 163.132812 215.507812 161.453125 217.1875 161.453125 219.242188 C 161.453125 221.292969 163.132812 222.976562 165.1875 222.976562 Z M 165.1875 222.976562 " fill-opacity="1" fill-rule="nonzero"/><path fill="#fd7f7f" d="M 165.1875 237.914062 L 176.574219 237.914062 C 178.628906 237.914062 180.308594 236.230469 180.308594 234.179688 C 180.308594 232.125 178.628906 230.445312 176.574219 230.445312 L 165.1875 230.445312 C 163.132812 230.445312 161.453125 232.125 161.453125 234.179688 C 161.453125 236.230469 163.132812 237.914062 165.1875 237.914062 Z M 165.1875 237.914062 " fill-opacity="1" fill-rule="nonzero"/><path fill="#fd7f7f" d="M 165.1875 267.789062 L 176.574219 267.789062 C 178.628906 267.789062 180.308594 266.109375 180.308594 264.054688 C 180.308594 262 178.628906 260.320312 176.574219 260.320312 L 165.1875 260.320312 C 163.132812 260.320312 161.453125 262 161.453125 264.054688 C 161.453125 266.109375 163.132812 267.789062 165.1875 267.789062 Z M 165.1875 267.789062 " fill-opacity="1" fill-rule="nonzero"/><path fill="#fd7f7f" d="M 165.1875 252.851562 L 172.65625 252.851562 C 174.707031 252.851562 176.390625 251.171875 176.390625 249.117188 C 176.390625 247.0625 174.707031 245.382812 172.65625 245.382812 L 165.1875 245.382812 C 163.132812 245.382812 161.453125 247.0625 161.453125 249.117188 C 161.453125 251.171875 163.132812 252.851562 165.1875 252.851562 Z M 165.1875 252.851562 " fill-opacity="1" fill-rule="nonzero"/></svg>