<svg xmlns="http://www.w3.org/2000/svg" xmlns:xlink="http://www.w3.org/1999/xlink" width="500" zoomAndPan="magnify" viewBox="0 0 375 374.999991" height="500" preserveAspectRatio="xMidYMid meet" version="1.0"><defs><clipPath id="2fd358e492"><path d="M 187.5 0 C 83.945312 0 0 83.945312 0 187.5 C 0 291.054688 83.945312 375 187.5 375 C 291.054688 375 375 291.054688 375 187.5 C 375 83.945312 291.054688 0 187.5 0 Z M 187.5 0 " clip-rule="nonzero"/></clipPath><clipPath id="3def5ac243"><path d="M 0 0 L 375 0 L 375 375 L 0 375 Z M 0 0 " clip-rule="nonzero"/></clipPath><clipPath id="c281425d40"><path d="M 187.5 0 C 83.945312 0 0 83.945312 0 187.5 C 0 291.054688 83.945312 375 187.5 375 C 291.054688 375 375 291.054688 375 187.5 C 375 83.945312 291.054688 0 187.5 0 Z M 187.5 0 " clip-rule="nonzero"/></clipPath><clipPath id="906466659a"><rect x="0" width="375" y="0" height="375"/></clipPath><clipPath id="354562ea34"><path d="M 83.523438 100 L 291.273438 100 L 291.273438 288 L 83.523438 288 Z M 83.523438 100 " clip-rule="nonzero"/></clipPath></defs><rect x="-37.5" width="450" fill="#ffffff" y="-37.499999" height="449.999989" fill-opacity="1"/><rect x="-37.5" width="450" fill="#1c1e1a" y="-37.499999" height="449.999989" fill-opacity="1"/><g clip-path="url(#2fd358e492)"><g transform="matrix(1, 0, 0, 1, 0, 0)"><g clip-path="url(#906466659a)"><g clip-path="url(#3def5ac243)"><g clip-path="url(#c281425d40)"><rect x="-82.5" width="540" fill="#2a2d24" height="539.999987" y="-82.499998" fill-opacity="1"/></g></g></g></g></g><path fill="#26802d" d="M 146.609375 179.6875 C 139.761719 174.652344 131.703125 172.335938 131.367188 172.226562 C 131.199219 172.167969 131.027344 172.128906 130.855469 172.113281 C 130.679688 172.097656 130.503906 172.105469 130.328125 172.132812 C 130.15625 172.15625 129.988281 172.207031 129.824219 172.273438 C 129.664062 172.34375 129.511719 172.429688 129.371094 172.535156 C 129.230469 172.644531 129.105469 172.765625 128.992188 172.902344 C 128.882812 173.039062 128.792969 173.1875 128.71875 173.347656 C 128.644531 173.507812 128.589844 173.675781 128.558594 173.847656 C 128.527344 174.019531 128.515625 174.195312 128.527344 174.371094 L 128.527344 191.753906 C 128.523438 192.246094 128.671875 192.691406 128.96875 193.089844 C 129.265625 193.488281 129.648438 193.753906 130.125 193.894531 C 135.074219 195.433594 139.691406 197.664062 143.972656 200.585938 C 145.890625 201.578125 147.515625 200.257812 147.515625 198.785156 L 147.515625 181.484375 C 147.519531 180.730469 147.214844 180.132812 146.609375 179.6875 Z M 143.058594 194.722656 C 139.855469 192.855469 136.5 191.324219 132.992188 190.121094 L 132.992188 177.492188 C 136.546875 178.8125 139.902344 180.527344 143.058594 182.636719 Z M 143.058594 194.722656 " fill-opacity="1" fill-rule="nonzero"/><path fill="#26802d" d="M 130.261719 128.714844 C 130.957031 128.871094 132.707031 129.296875 132.898438 129.296875 C 135.441406 129.328125 135.964844 125.542969 133.464844 124.90625 C 132.730469 124.714844 131.992188 124.535156 131.25 124.363281 C 130.960938 124.300781 130.671875 124.296875 130.382812 124.347656 C 130.09375 124.398438 129.824219 124.503906 129.574219 124.660156 C 129.324219 124.820312 129.117188 125.019531 128.945312 125.257812 C 128.777344 125.5 128.660156 125.761719 128.59375 126.050781 C 128.53125 126.335938 128.523438 126.625 128.570312 126.917969 C 128.621094 127.207031 128.722656 127.476562 128.878906 127.726562 C 129.035156 127.976562 129.234375 128.1875 129.472656 128.359375 C 129.714844 128.527344 129.976562 128.648438 130.261719 128.714844 Z M 130.261719 128.714844 " fill-opacity="1" fill-rule="nonzero"/><path fill="#26802d" d="M 145.566406 134.234375 C 159.917969 140.601562 170.15625 151.664062 170.257812 151.773438 C 170.476562 151.953125 170.71875 152.09375 170.984375 152.195312 C 171.25 152.296875 171.527344 152.355469 171.808594 152.367188 C 172.09375 152.378906 172.371094 152.347656 172.644531 152.269531 C 172.917969 152.191406 173.175781 152.070312 173.410156 151.910156 C 173.632812 151.714844 173.8125 151.484375 173.941406 151.214844 C 174.070312 150.949219 174.140625 150.664062 174.15625 150.367188 C 174.167969 150.070312 174.121094 149.78125 174.015625 149.503906 C 173.910156 149.222656 173.753906 148.976562 173.546875 148.761719 C 173.109375 148.28125 162.609375 136.914062 147.375 130.15625 C 147.105469 130.042969 146.824219 129.980469 146.53125 129.976562 C 146.234375 129.96875 145.953125 130.023438 145.679688 130.128906 C 145.40625 130.234375 145.164062 130.390625 144.949219 130.59375 C 144.738281 130.796875 144.574219 131.03125 144.453125 131.300781 C 144.335938 131.570312 144.269531 131.851562 144.261719 132.144531 C 144.253906 132.4375 144.300781 132.722656 144.40625 132.996094 C 144.511719 133.269531 144.664062 133.515625 144.863281 133.730469 C 145.066406 133.945312 145.296875 134.113281 145.566406 134.234375 Z M 145.566406 134.234375 " fill-opacity="1" fill-rule="nonzero"/><path fill="#26802d" d="M 130.261719 145.191406 C 152.710938 150.277344 170.113281 168.121094 170.296875 168.289062 C 170.5 168.503906 170.738281 168.675781 171.007812 168.796875 C 171.28125 168.917969 171.566406 168.980469 171.863281 168.984375 C 172.160156 168.988281 172.445312 168.9375 172.722656 168.828125 C 172.996094 168.714844 173.238281 168.554688 173.449219 168.347656 C 173.65625 168.136719 173.816406 167.898438 173.929688 167.625 C 174.042969 167.355469 174.101562 167.074219 174.105469 166.78125 C 174.113281 166.488281 174.0625 166.203125 173.960938 165.929688 C 173.855469 165.65625 173.707031 165.410156 173.507812 165.195312 C 172.765625 164.421875 155.027344 146.226562 131.25 140.839844 C 130.960938 140.777344 130.671875 140.769531 130.378906 140.820312 C 130.089844 140.867188 129.816406 140.972656 129.566406 141.128906 C 129.316406 141.289062 129.109375 141.488281 128.9375 141.730469 C 128.765625 141.96875 128.648438 142.234375 128.582031 142.523438 C 128.519531 142.8125 128.511719 143.101562 128.558594 143.394531 C 128.609375 143.683594 128.714844 143.953125 128.871094 144.203125 C 129.027344 144.453125 129.226562 144.664062 129.46875 144.835938 C 129.710938 145.007812 129.976562 145.125 130.261719 145.191406 Z M 130.261719 145.191406 " fill-opacity="1" fill-rule="nonzero"/><path fill="#26802d" d="M 131.25 157.3125 C 130.960938 157.25 130.671875 157.242188 130.378906 157.292969 C 130.089844 157.34375 129.816406 157.445312 129.566406 157.605469 C 129.316406 157.761719 129.109375 157.960938 128.9375 158.203125 C 128.765625 158.445312 128.648438 158.707031 128.582031 158.996094 C 128.519531 159.285156 128.511719 159.574219 128.558594 159.867188 C 128.609375 160.15625 128.714844 160.429688 128.871094 160.679688 C 129.027344 160.929688 129.226562 161.140625 129.46875 161.308594 C 129.710938 161.480469 129.976562 161.597656 130.261719 161.664062 C 152.710938 166.75 170.125 184.582031 170.296875 184.761719 C 170.519531 184.945312 170.761719 185.082031 171.03125 185.183594 C 171.300781 185.28125 171.578125 185.332031 171.863281 185.339844 C 172.148438 185.34375 172.429688 185.300781 172.699219 185.210938 C 172.972656 185.125 173.222656 184.992188 173.449219 184.820312 C 173.667969 184.617188 173.839844 184.382812 173.960938 184.109375 C 174.085938 183.839844 174.148438 183.554688 174.152344 183.253906 C 174.160156 182.957031 174.105469 182.671875 173.996094 182.394531 C 173.882812 182.121094 173.71875 181.875 173.507812 181.667969 C 172.765625 180.898438 155.027344 162.703125 131.25 157.3125 Z M 131.25 157.3125 " fill-opacity="1" fill-rule="nonzero"/><path fill="#26802d" d="M 157.347656 185.242188 C 157.089844 185.105469 156.816406 185.019531 156.523438 184.988281 C 156.234375 184.960938 155.949219 184.984375 155.667969 185.066406 C 155.386719 185.152344 155.128906 185.285156 154.902344 185.464844 C 154.671875 185.648438 154.488281 185.867188 154.34375 186.125 C 154.203125 186.382812 154.113281 186.65625 154.078125 186.945312 C 154.046875 187.234375 154.066406 187.523438 154.144531 187.804688 C 154.222656 188.085938 154.351562 188.34375 154.53125 188.574219 C 154.710938 188.808594 154.929688 188.996094 155.183594 189.140625 C 163.121094 193.554688 170.199219 201.128906 170.269531 201.203125 C 170.710938 201.675781 172.347656 202.273438 173.421875 201.320312 C 173.640625 201.121094 173.8125 200.886719 173.9375 200.617188 C 174.0625 200.351562 174.128906 200.066406 174.140625 199.769531 C 174.152344 199.476562 174.105469 199.1875 174 198.910156 C 173.898438 198.632812 173.742188 198.386719 173.539062 198.171875 C 173.230469 197.839844 165.921875 190.007812 157.347656 185.242188 Z M 157.347656 185.242188 " fill-opacity="1" fill-rule="nonzero"/><path fill="#26802d" d="M 157.347656 201.71875 C 157.089844 201.578125 156.816406 201.496094 156.523438 201.464844 C 156.234375 201.433594 155.945312 201.460938 155.664062 201.542969 C 155.382812 201.625 155.128906 201.757812 154.902344 201.941406 C 154.671875 202.125 154.488281 202.34375 154.34375 202.597656 C 154.203125 202.855469 154.113281 203.128906 154.078125 203.417969 C 154.042969 203.710938 154.066406 203.996094 154.144531 204.277344 C 154.222656 204.5625 154.351562 204.816406 154.53125 205.050781 C 154.710938 205.28125 154.929688 205.46875 155.183594 205.617188 C 163.121094 210.03125 170.199219 217.601562 170.269531 217.679688 C 170.707031 218.152344 172.378906 218.746094 173.421875 217.796875 C 173.636719 217.59375 173.808594 217.359375 173.933594 217.089844 C 174.054688 216.824219 174.125 216.539062 174.136719 216.246094 C 174.144531 215.949219 174.101562 215.664062 173.996094 215.386719 C 173.894531 215.109375 173.742188 214.859375 173.539062 214.644531 C 173.230469 214.3125 165.921875 206.484375 157.347656 201.71875 Z M 157.347656 201.71875 " fill-opacity="1" fill-rule="nonzero"/><g clip-path="url(#354562ea34)"><path fill="#26802d" d="M 290.117188 145.957031 C 286.542969 144.171875 282.882812 142.59375 279.128906 141.222656 C 278.851562 141.121094 278.566406 141.078125 278.269531 141.089844 C 277.976562 141.105469 277.691406 141.175781 277.425781 141.300781 C 277.15625 141.425781 276.925781 141.597656 276.722656 141.816406 C 276.523438 142.035156 276.375 142.28125 276.273438 142.5625 C 276.175781 142.839844 276.128906 143.125 276.144531 143.421875 C 276.15625 143.71875 276.226562 144 276.351562 144.265625 C 276.476562 144.535156 276.648438 144.769531 276.867188 144.96875 C 277.085938 145.167969 277.335938 145.316406 277.613281 145.417969 C 280.691406 146.542969 283.785156 147.839844 286.878906 149.335938 L 286.878906 263.203125 C 250.738281 247.152344 216.152344 252.730469 189.394531 263.292969 L 189.394531 149.371094 C 190.894531 148.699219 193.71875 147.507812 197.601562 146.160156 C 197.886719 146.070312 198.144531 145.925781 198.371094 145.726562 C 198.597656 145.53125 198.777344 145.300781 198.914062 145.03125 C 199.046875 144.761719 199.125 144.480469 199.144531 144.179688 C 199.164062 143.878906 199.125 143.589844 199.027344 143.304688 C 198.929688 143.019531 198.78125 142.765625 198.582031 142.542969 C 198.378906 142.320312 198.144531 142.140625 197.875 142.011719 C 197.605469 141.882812 197.320312 141.8125 197.019531 141.796875 C 196.71875 141.78125 196.429688 141.828125 196.144531 141.929688 C 192.535156 143.179688 189.800781 144.308594 188.113281 145.050781 C 173.128906 121.863281 149.261719 103.992188 107.828125 100.265625 C 107.519531 100.242188 107.21875 100.28125 106.925781 100.386719 C 106.632812 100.488281 106.371094 100.644531 106.144531 100.855469 C 105.917969 101.066406 105.742188 101.316406 105.617188 101.601562 C 105.496094 101.882812 105.433594 102.183594 105.4375 102.492188 L 105.4375 138.171875 C 101.664062 139.214844 92.324219 142.003906 84.765625 145.984375 C 84.402344 146.179688 84.117188 146.453125 83.910156 146.804688 C 83.699219 147.15625 83.59375 147.535156 83.597656 147.945312 L 83.597656 285.476562 C 83.597656 285.648438 83.617188 285.820312 83.65625 285.992188 C 83.691406 286.160156 83.75 286.324219 83.828125 286.480469 C 83.902344 286.636719 83.996094 286.78125 84.105469 286.917969 C 84.214844 287.054688 84.335938 287.175781 84.472656 287.28125 C 84.609375 287.390625 84.757812 287.480469 84.914062 287.554688 C 85.074219 287.625 85.238281 287.679688 85.40625 287.71875 C 85.578125 287.753906 85.75 287.769531 85.921875 287.765625 C 86.097656 287.765625 86.269531 287.742188 86.4375 287.699219 C 141.597656 272.265625 178.96875 285.699219 187.171875 287.636719 C 195.375 285.707031 233.363281 272.265625 288.496094 287.699219 C 290.324219 288.039062 291.335938 287.105469 291.335938 285.488281 L 291.335938 147.949219 C 291.335938 147.527344 291.226562 147.140625 291.007812 146.78125 C 290.789062 146.421875 290.492188 146.148438 290.117188 145.957031 Z M 88.058594 149.3125 C 93.667969 146.660156 99.460938 144.496094 105.4375 142.8125 L 105.4375 221.082031 C 105.4375 221.363281 105.488281 221.636719 105.589844 221.898438 C 105.695312 222.160156 105.84375 222.394531 106.035156 222.601562 C 106.226562 222.808594 106.449219 222.972656 106.703125 223.09375 C 106.957031 223.214844 107.226562 223.285156 107.507812 223.304688 C 145.367188 226.757812 166.539062 241.730469 181.71875 261.980469 C 154.023438 252.257812 124.128906 247.695312 88.054688 263.203125 Z M 184.933594 282.429688 C 156.882812 274.605469 128.484375 272.566406 88.058594 282.625 L 88.058594 277.855469 C 131.371094 258.960938 177.960938 275.175781 184.933594 277.808594 Z M 184.933594 273.046875 C 158.84375 264.121094 122.804688 258.917969 88.058594 273.003906 L 88.058594 268.125 C 122.898438 251.265625 160.339844 257.472656 184.933594 268.15625 Z M 184.933594 258.773438 C 182.035156 254.726562 161.742188 222.78125 109.898438 219.023438 L 109.898438 104.910156 C 148 108.539062 172.394531 127.417969 184.933594 148.496094 Z M 286.878906 282.625 C 253.121094 272.738281 212.195312 275.269531 189.394531 282.441406 L 189.394531 277.859375 C 195.957031 275.386719 243.277344 258.839844 286.878906 277.855469 Z M 286.878906 273.003906 C 252.191406 258.871094 215.390625 264.1875 189.394531 273.101562 L 189.394531 268.164062 C 197.355469 264.625 242.332031 246.585938 286.878906 268.125 Z M 286.878906 273.003906 " fill-opacity="1" fill-rule="nonzero"/></g><path fill="#26802d" d="M 287.664062 113.796875 C 286.964844 101.117188 274.828125 91.097656 262.261719 92.929688 C 252.375 75.0625 225.804688 75.027344 215.855469 92.851562 C 188.289062 90.339844 181.414062 131.25 207.140625 137.484375 C 207.859375 137.617188 208.539062 137.863281 209.171875 138.230469 C 209.804688 138.597656 210.355469 139.058594 210.828125 139.617188 C 211.300781 140.175781 211.660156 140.800781 211.914062 141.484375 C 212.167969 142.171875 212.300781 142.878906 212.304688 143.613281 L 212.304688 172.832031 C 212.304688 173.46875 212.367188 174.101562 212.492188 174.726562 C 212.617188 175.351562 212.804688 175.957031 213.046875 176.546875 C 213.292969 177.136719 213.59375 177.695312 213.945312 178.226562 C 214.300781 178.757812 214.703125 179.246094 215.15625 179.699219 C 215.605469 180.148438 216.097656 180.550781 216.625 180.90625 C 217.15625 181.261719 217.714844 181.5625 218.304688 181.804688 C 218.894531 182.050781 219.5 182.234375 220.128906 182.359375 C 220.753906 182.484375 221.382812 182.546875 222.023438 182.546875 L 256.050781 182.546875 C 256.6875 182.546875 257.320312 182.484375 257.945312 182.359375 C 258.570312 182.234375 259.179688 182.050781 259.765625 181.804688 C 260.355469 181.5625 260.914062 181.261719 261.445312 180.90625 C 261.976562 180.550781 262.46875 180.148438 262.917969 179.699219 C 263.367188 179.246094 263.773438 178.757812 264.125 178.226562 C 264.480469 177.695312 264.78125 177.136719 265.023438 176.546875 C 265.269531 175.957031 265.453125 175.351562 265.578125 174.726562 C 265.703125 174.101562 265.765625 173.46875 265.765625 172.832031 L 265.765625 143.6875 C 265.773438 142.984375 265.890625 142.296875 266.128906 141.632812 C 266.363281 140.96875 266.703125 140.363281 267.144531 139.8125 C 267.585938 139.261719 268.105469 138.800781 268.703125 138.425781 C 269.300781 138.050781 269.941406 137.785156 270.628906 137.625 C 280.546875 135.230469 288.347656 124.320312 287.664062 113.796875 Z M 256.050781 178.085938 L 222.023438 178.085938 C 218.117188 177.945312 216.40625 174.8125 216.765625 171.199219 C 220.09375 172.164062 226.890625 173.460938 239.40625 173.460938 C 251.503906 173.460938 258.09375 173.101562 261.304688 172.835938 C 261.304688 173.183594 261.269531 173.523438 261.203125 173.863281 C 261.136719 174.199219 261.035156 174.527344 260.902344 174.847656 C 260.769531 175.164062 260.609375 175.46875 260.417969 175.753906 C 260.226562 176.039062 260.007812 176.304688 259.761719 176.546875 C 259.519531 176.792969 259.253906 177.007812 258.96875 177.203125 C 258.679688 177.394531 258.378906 177.554688 258.058594 177.6875 C 257.742188 177.820312 257.414062 177.917969 257.074219 177.984375 C 256.738281 178.054688 256.394531 178.085938 256.050781 178.085938 Z M 269.585938 133.289062 C 269.507812 133.308594 263.617188 134.667969 254.511719 134.261719 C 251.5625 134.191406 251.382812 138.519531 254.3125 138.71875 C 257.066406 138.84375 259.824219 138.820312 262.578125 138.65625 C 261.730469 140.222656 261.304688 141.898438 261.304688 143.683594 L 261.304688 168.355469 C 259.863281 168.484375 257.515625 168.640625 253.957031 168.769531 L 253.957031 153.273438 C 253.957031 152.980469 253.902344 152.695312 253.789062 152.421875 C 253.675781 152.148438 253.515625 151.90625 253.304688 151.699219 C 253.097656 151.488281 252.855469 151.328125 252.582031 151.214844 C 252.308594 151.101562 252.023438 151.042969 251.730469 151.042969 C 251.433594 151.042969 251.148438 151.101562 250.875 151.214844 C 250.601562 151.328125 250.359375 151.488281 250.152344 151.699219 C 249.941406 151.90625 249.78125 152.148438 249.667969 152.421875 C 249.554688 152.695312 249.5 152.980469 249.5 153.273438 L 249.5 168.902344 C 247.210938 168.949219 244.582031 168.984375 241.574219 168.996094 L 241.574219 153.273438 C 241.574219 152.980469 241.519531 152.695312 241.40625 152.421875 C 241.292969 152.148438 241.132812 151.90625 240.921875 151.699219 C 240.710938 151.488281 240.472656 151.328125 240.199219 151.214844 C 239.925781 151.101562 239.640625 151.042969 239.34375 151.042969 C 239.050781 151.042969 238.765625 151.101562 238.492188 151.214844 C 238.21875 151.328125 237.976562 151.488281 237.769531 151.699219 C 237.558594 151.90625 237.398438 152.148438 237.285156 152.421875 C 237.171875 152.695312 237.113281 152.980469 237.113281 153.273438 L 237.113281 168.984375 C 234.09375 168.941406 231.464844 168.816406 229.191406 168.644531 L 229.191406 153.273438 C 229.191406 152.980469 229.132812 152.695312 229.019531 152.421875 C 228.90625 152.148438 228.746094 151.90625 228.539062 151.699219 C 228.328125 151.488281 228.085938 151.328125 227.8125 151.214844 C 227.539062 151.101562 227.257812 151.042969 226.960938 151.042969 C 226.664062 151.042969 226.378906 151.101562 226.105469 151.214844 C 225.835938 151.328125 225.59375 151.488281 225.382812 151.699219 C 225.175781 151.90625 225.011719 152.148438 224.902344 152.421875 C 224.789062 152.695312 224.730469 152.980469 224.730469 153.273438 L 224.730469 168.195312 C 222.011719 167.917969 219.359375 167.355469 216.761719 166.503906 L 216.761719 143.613281 C 216.753906 142.996094 216.695312 142.382812 216.582031 141.777344 C 216.472656 141.167969 216.308594 140.578125 216.09375 139.996094 C 215.882812 139.417969 215.621094 138.863281 215.3125 138.328125 C 215.003906 137.792969 214.652344 137.289062 214.257812 136.816406 C 213.863281 136.339844 213.433594 135.902344 212.960938 135.503906 C 212.492188 135.101562 211.992188 134.746094 211.460938 134.429688 C 210.933594 134.113281 210.378906 133.847656 209.800781 133.625 C 209.226562 133.40625 208.636719 133.234375 208.03125 133.117188 C 198.839844 131.238281 195.558594 122.679688 195.558594 115.296875 C 195.558594 114.695312 195.589844 114.09375 195.652344 113.492188 C 195.710938 112.890625 195.804688 112.292969 195.921875 111.703125 C 196.042969 111.109375 196.195312 110.527344 196.375 109.949219 C 196.550781 109.371094 196.757812 108.804688 196.996094 108.25 C 197.230469 107.695312 197.496094 107.152344 197.785156 106.621094 C 198.074219 106.089844 198.390625 105.578125 198.730469 105.078125 C 199.074219 104.582031 199.441406 104.101562 199.828125 103.640625 C 200.21875 103.179688 200.628906 102.738281 201.0625 102.316406 C 201.5 101.898438 201.953125 101.5 202.425781 101.125 C 202.898438 100.75 203.390625 100.398438 203.898438 100.074219 C 204.40625 99.75 204.929688 99.449219 205.46875 99.175781 C 206.007812 98.902344 206.558594 98.65625 207.121094 98.4375 C 207.6875 98.222656 208.257812 98.03125 208.839844 97.871094 C 209.421875 97.710938 210.011719 97.578125 210.609375 97.476562 C 211.203125 97.375 211.800781 97.304688 212.40625 97.261719 C 213.007812 97.222656 213.609375 97.210938 214.214844 97.226562 C 213.835938 99.078125 213.660156 100.949219 213.683594 102.839844 C 213.773438 105.773438 218.117188 105.726562 218.144531 102.796875 C 218.074219 100.542969 218.398438 98.347656 219.113281 96.210938 C 227.136719 79.816406 251.113281 79.890625 259.019531 96.335938 C 259.746094 98.429688 260.070312 100.582031 259.988281 102.792969 C 260 105.71875 264.375 105.769531 264.449219 102.835938 C 264.476562 100.957031 264.300781 99.09375 263.917969 97.253906 C 273.671875 96.417969 282.648438 104.316406 283.210938 114.082031 C 283.757812 122.429688 277.386719 131.402344 269.585938 133.289062 Z M 269.585938 133.289062 " fill-opacity="1" fill-rule="nonzero"/><path fill="#26802d" d="M 255.867188 218.460938 C 256.882812 218.628906 257.902344 218.683594 258.933594 218.621094 C 259.960938 218.5625 260.96875 218.390625 261.957031 218.105469 C 262.945312 217.820312 263.890625 217.433594 264.796875 216.9375 C 265.699219 216.441406 266.535156 215.855469 267.308594 215.175781 L 274.128906 209.179688 C 274.355469 208.984375 274.535156 208.753906 274.671875 208.488281 C 274.804688 208.222656 274.882812 207.9375 274.90625 207.640625 C 274.925781 207.34375 274.890625 207.054688 274.792969 206.769531 C 274.699219 206.488281 274.554688 206.234375 274.355469 206.011719 C 274.160156 205.785156 273.925781 205.609375 273.65625 205.476562 C 273.390625 205.347656 273.105469 205.273438 272.808594 205.257812 C 272.511719 205.238281 272.21875 205.28125 271.9375 205.378906 C 271.65625 205.480469 271.40625 205.628906 271.183594 205.828125 L 264.363281 211.824219 C 258.71875 216.722656 253.921875 211.539062 247.210938 215.839844 L 244.683594 213.90625 C 245.695312 212.824219 246.515625 211.613281 247.140625 210.269531 C 247.765625 208.925781 248.167969 207.519531 248.339844 206.046875 C 248.378906 204.699219 248.671875 203.414062 249.226562 202.183594 C 249.78125 200.957031 250.554688 199.882812 251.542969 198.964844 L 259.117188 192.132812 C 259.339844 191.933594 259.511719 191.699219 259.640625 191.433594 C 259.765625 191.167969 259.839844 190.886719 259.855469 190.589844 C 259.867188 190.292969 259.828125 190.007812 259.726562 189.726562 C 259.628906 189.449219 259.480469 189.199219 259.28125 188.980469 C 259.085938 188.761719 258.851562 188.585938 258.585938 188.460938 C 258.316406 188.332031 258.035156 188.261719 257.742188 188.246094 C 257.445312 188.230469 257.160156 188.273438 256.878906 188.371094 C 256.601562 188.472656 256.351562 188.621094 256.132812 188.816406 L 248.554688 195.652344 C 242.226562 201.222656 245.832031 206.519531 241.113281 211.175781 L 213.496094 190.058594 C 213.34375 189.945312 213.183594 189.851562 213.011719 189.777344 C 212.835938 189.703125 212.65625 189.652344 212.46875 189.625 C 212.285156 189.597656 212.097656 189.589844 211.910156 189.609375 C 211.722656 189.628906 211.542969 189.671875 211.363281 189.738281 C 211.1875 189.804688 211.023438 189.890625 210.867188 189.996094 C 210.714844 190.105469 210.574219 190.230469 210.449219 190.371094 C 210.328125 190.515625 210.226562 190.671875 210.140625 190.839844 C 210.058594 191.007812 209.996094 191.183594 209.957031 191.371094 C 206.273438 207.511719 212.746094 219.347656 227.121094 222.382812 L 211.1875 234.566406 C 205.464844 239.273438 211.824219 247.769531 217.949219 243.605469 L 236.484375 230.109375 C 238.824219 228.347656 236.261719 224.816406 233.859375 226.503906 L 215.320312 240.003906 C 215.191406 240.097656 215.054688 240.164062 214.902344 240.203125 C 214.75 240.242188 214.597656 240.25 214.441406 240.226562 C 214.285156 240.207031 214.140625 240.15625 214.007812 240.074219 C 213.871094 239.996094 213.757812 239.890625 213.664062 239.765625 C 213.570312 239.640625 213.5 239.503906 213.464844 239.351562 C 213.425781 239.199219 213.414062 239.042969 213.4375 238.890625 C 213.460938 238.734375 213.511719 238.589844 213.589844 238.453125 C 213.671875 238.320312 213.773438 238.203125 213.898438 238.109375 L 233.347656 223.238281 C 235.550781 223.238281 237.761719 223.589844 239.511719 224.945312 L 264.945312 243.605469 C 265.242188 243.820312 265.558594 244.003906 265.890625 244.160156 C 266.222656 244.316406 266.570312 244.4375 266.925781 244.523438 C 267.28125 244.609375 267.644531 244.664062 268.011719 244.679688 C 268.378906 244.695312 268.742188 244.675781 269.105469 244.621094 C 269.46875 244.566406 269.824219 244.480469 270.171875 244.355469 C 270.515625 244.230469 270.847656 244.074219 271.164062 243.886719 C 271.476562 243.699219 271.773438 243.480469 272.046875 243.234375 C 272.316406 242.988281 272.566406 242.71875 272.785156 242.425781 C 273.003906 242.132812 273.195312 241.816406 273.355469 241.488281 C 273.511719 241.15625 273.640625 240.8125 273.730469 240.457031 C 273.824219 240.101562 273.878906 239.742188 273.902344 239.375 C 273.921875 239.007812 273.910156 238.640625 273.859375 238.277344 C 273.808594 237.914062 273.726562 237.558594 273.605469 237.210938 C 273.488281 236.863281 273.335938 236.53125 273.152344 236.210938 C 272.96875 235.894531 272.753906 235.597656 272.511719 235.320312 C 272.269531 235.042969 272.003906 234.792969 271.710938 234.570312 L 251.195312 218.882812 C 252.714844 218.34375 254.273438 218.203125 255.867188 218.460938 Z M 269 238.113281 C 269.121094 238.207031 269.21875 238.316406 269.296875 238.445312 C 269.375 238.578125 269.425781 238.714844 269.449219 238.867188 C 269.472656 239.015625 269.46875 239.164062 269.4375 239.3125 C 269.402344 239.460938 269.34375 239.597656 269.257812 239.722656 C 269.171875 239.859375 269.0625 239.972656 268.925781 240.0625 C 268.789062 240.152344 268.644531 240.210938 268.484375 240.238281 C 268.324219 240.265625 268.164062 240.257812 268.007812 240.21875 C 267.851562 240.179688 267.707031 240.109375 267.582031 240.007812 L 242.148438 221.351562 C 239.941406 219.734375 237.46875 218.898438 234.730469 218.839844 C 222.148438 218.597656 211.359375 212.1875 213.714844 195.84375 Z M 269 238.113281 " fill-opacity="1" fill-rule="nonzero"/><path fill="#26802d" d="M 251.871094 210.613281 C 252.0625 210.835938 252.289062 211.015625 252.554688 211.152344 C 252.816406 211.285156 253.09375 211.367188 253.390625 211.390625 C 253.683594 211.414062 253.972656 211.378906 254.253906 211.289062 C 254.535156 211.195312 254.789062 211.054688 255.015625 210.863281 L 266.253906 201.285156 C 266.476562 201.09375 266.65625 200.867188 266.792969 200.605469 C 266.925781 200.339844 267.003906 200.0625 267.027344 199.765625 C 267.050781 199.472656 267.015625 199.183594 266.925781 198.90625 C 266.835938 198.625 266.695312 198.371094 266.503906 198.144531 C 266.308594 197.921875 266.082031 197.742188 265.820312 197.605469 C 265.558594 197.472656 265.277344 197.394531 264.984375 197.367188 C 264.691406 197.34375 264.402344 197.378906 264.121094 197.46875 C 263.839844 197.558594 263.585938 197.699219 263.363281 197.890625 L 252.121094 207.46875 C 251.894531 207.660156 251.714844 207.886719 251.582031 208.148438 C 251.445312 208.414062 251.367188 208.691406 251.34375 208.988281 C 251.320312 209.28125 251.355469 209.570312 251.445312 209.851562 C 251.535156 210.132812 251.679688 210.386719 251.871094 210.613281 Z M 251.871094 210.613281 " fill-opacity="1" fill-rule="nonzero"/></svg>