<svg xmlns="http://www.w3.org/2000/svg" xmlns:xlink="http://www.w3.org/1999/xlink" width="500" zoomAndPan="magnify" viewBox="0 0 375 374.999991" height="500" preserveAspectRatio="xMidYMid meet" version="1.2"><defs><clipPath id="1dbdc9d5d2"><path d="M 187.5 0 C 83.945312 0 0 83.945312 0 187.5 C 0 291.054688 83.945312 375 187.5 375 C 291.054688 375 375 291.054688 375 187.5 C 375 83.945312 291.054688 0 187.5 0 Z M 187.5 0 "/></clipPath><linearGradient x1="128" gradientTransform="matrix(1.464844,0,0,1.464844,0.0000045,0)" y1="0" x2="128" gradientUnits="userSpaceOnUse" y2="255.999988" id="24f568938a"><stop style="stop-color:#aaf69a;stop-opacity:1;" offset="0"/><stop style="stop-color:#aaf69a;stop-opacity:1;" offset="0.0078125"/><stop style="stop-color:#abf69b;stop-opacity:1;" offset="0.015625"/><stop style="stop-color:#abf69c;stop-opacity:1;" offset="0.0234375"/><stop style="stop-color:#acf69c;stop-opacity:1;" offset="0.03125"/><stop style="stop-color:#adf69d;stop-opacity:1;" offset="0.0390625"/><stop style="stop-color:#adf69e;stop-opacity:1;" offset="0.046875"/><stop style="stop-color:#aef79e;stop-opacity:1;" offset="0.0546875"/><stop style="stop-color:#aef79f;stop-opacity:1;" offset="0.0625"/><stop style="stop-color:#aff79f;stop-opacity:1;" offset="0.0703125"/><stop style="stop-color:#aff7a0;stop-opacity:1;" offset="0.078125"/><stop style="stop-color:#b0f7a1;stop-opacity:1;" offset="0.0859375"/><stop style="stop-color:#b0f7a1;stop-opacity:1;" offset="0.09375"/><stop style="stop-color:#b1f7a2;stop-opacity:1;" offset="0.101562"/><stop style="stop-color:#b1f7a3;stop-opacity:1;" offset="0.109375"/><stop style="stop-color:#b2f7a3;stop-opacity:1;" offset="0.117188"/><stop style="stop-color:#b2f7a4;stop-opacity:1;" offset="0.125"/><stop style="stop-color:#b3f7a5;stop-opacity:1;" offset="0.132812"/><stop style="stop-color:#b3f7a5;stop-opacity:1;" offset="0.140625"/><stop style="stop-color:#b4f7a6;stop-opacity:1;" offset="0.148438"/><stop style="stop-color:#b5f7a6;stop-opacity:1;" offset="0.15625"/><stop style="stop-color:#b5f8a7;stop-opacity:1;" offset="0.164062"/><stop style="stop-color:#b6f8a8;stop-opacity:1;" offset="0.171875"/><stop style="stop-color:#b6f8a8;stop-opacity:1;" offset="0.179688"/><stop style="stop-color:#b7f8a9;stop-opacity:1;" offset="0.1875"/><stop style="stop-color:#b7f8aa;stop-opacity:1;" offset="0.195312"/><stop style="stop-color:#b8f8aa;stop-opacity:1;" offset="0.203125"/><stop style="stop-color:#b8f8ab;stop-opacity:1;" offset="0.210938"/><stop style="stop-color:#b9f8ac;stop-opacity:1;" offset="0.21875"/><stop style="stop-color:#b9f8ac;stop-opacity:1;" offset="0.226562"/><stop style="stop-color:#baf8ad;stop-opacity:1;" offset="0.234375"/><stop style="stop-color:#baf8ae;stop-opacity:1;" offset="0.242188"/><stop style="stop-color:#bbf8ae;stop-opacity:1;" offset="0.25"/><stop style="stop-color:#bcf8af;stop-opacity:1;" offset="0.257812"/><stop style="stop-color:#bcf8af;stop-opacity:1;" offset="0.265625"/><stop style="stop-color:#bdf8b0;stop-opacity:1;" offset="0.273438"/><stop style="stop-color:#bdf9b1;stop-opacity:1;" offset="0.28125"/><stop style="stop-color:#bef9b1;stop-opacity:1;" offset="0.289063"/><stop style="stop-color:#bef9b2;stop-opacity:1;" offset="0.296875"/><stop style="stop-color:#bff9b3;stop-opacity:1;" offset="0.304688"/><stop style="stop-color:#bff9b3;stop-opacity:1;" offset="0.3125"/><stop style="stop-color:#c0f9b4;stop-opacity:1;" offset="0.320312"/><stop style="stop-color:#c0f9b5;stop-opacity:1;" offset="0.328125"/><stop style="stop-color:#c1f9b5;stop-opacity:1;" offset="0.335938"/><stop style="stop-color:#c1f9b6;stop-opacity:1;" offset="0.34375"/><stop style="stop-color:#c2f9b6;stop-opacity:1;" offset="0.351562"/><stop style="stop-color:#c3f9b7;stop-opacity:1;" offset="0.359375"/><stop style="stop-color:#c3f9b8;stop-opacity:1;" offset="0.367188"/><stop style="stop-color:#c4f9b8;stop-opacity:1;" offset="0.375"/><stop style="stop-color:#c4f9b9;stop-opacity:1;" offset="0.382812"/><stop style="stop-color:#c5faba;stop-opacity:1;" offset="0.390625"/><stop style="stop-color:#c5faba;stop-opacity:1;" offset="0.398438"/><stop style="stop-color:#c6fabb;stop-opacity:1;" offset="0.40625"/><stop style="stop-color:#c6fabc;stop-opacity:1;" offset="0.414062"/><stop style="stop-color:#c7fabc;stop-opacity:1;" offset="0.421875"/><stop style="stop-color:#c7fabd;stop-opacity:1;" offset="0.429688"/><stop style="stop-color:#c8fabe;stop-opacity:1;" offset="0.4375"/><stop style="stop-color:#c8fabe;stop-opacity:1;" offset="0.445312"/><stop style="stop-color:#c9fabf;stop-opacity:1;" offset="0.453125"/><stop style="stop-color:#cafabf;stop-opacity:1;" offset="0.460938"/><stop style="stop-color:#cafac0;stop-opacity:1;" offset="0.46875"/><stop style="stop-color:#cbfac1;stop-opacity:1;" offset="0.476562"/><stop style="stop-color:#cbfac1;stop-opacity:1;" offset="0.484375"/><stop style="stop-color:#ccfac2;stop-opacity:1;" offset="0.492188"/><stop style="stop-color:#ccfbc3;stop-opacity:1;" offset="0.5"/><stop style="stop-color:#cdfbc3;stop-opacity:1;" offset="0.507812"/><stop style="stop-color:#cdfbc4;stop-opacity:1;" offset="0.515625"/><stop style="stop-color:#cefbc5;stop-opacity:1;" offset="0.523438"/><stop style="stop-color:#cefbc5;stop-opacity:1;" offset="0.53125"/><stop style="stop-color:#cffbc6;stop-opacity:1;" offset="0.539062"/><stop style="stop-color:#cffbc6;stop-opacity:1;" offset="0.546875"/><stop style="stop-color:#d0fbc7;stop-opacity:1;" offset="0.554688"/><stop style="stop-color:#d1fbc8;stop-opacity:1;" offset="0.5625"/><stop style="stop-color:#d1fbc8;stop-opacity:1;" offset="0.570312"/><stop style="stop-color:#d2fbc9;stop-opacity:1;" offset="0.578125"/><stop style="stop-color:#d2fbca;stop-opacity:1;" offset="0.585938"/><stop style="stop-color:#d3fbca;stop-opacity:1;" offset="0.59375"/><stop style="stop-color:#d3fbcb;stop-opacity:1;" offset="0.601563"/><stop style="stop-color:#d4fbcc;stop-opacity:1;" offset="0.609375"/><stop style="stop-color:#d4fccc;stop-opacity:1;" offset="0.617188"/><stop style="stop-color:#d5fccd;stop-opacity:1;" offset="0.625"/><stop style="stop-color:#d5fccd;stop-opacity:1;" offset="0.632812"/><stop style="stop-color:#d6fcce;stop-opacity:1;" offset="0.640625"/><stop style="stop-color:#d6fccf;stop-opacity:1;" offset="0.648438"/><stop style="stop-color:#d7fccf;stop-opacity:1;" offset="0.65625"/><stop style="stop-color:#d8fcd0;stop-opacity:1;" offset="0.664063"/><stop style="stop-color:#d8fcd1;stop-opacity:1;" offset="0.671875"/><stop style="stop-color:#d9fcd1;stop-opacity:1;" offset="0.679688"/><stop style="stop-color:#d9fcd2;stop-opacity:1;" offset="0.6875"/><stop style="stop-color:#dafcd3;stop-opacity:1;" offset="0.695313"/><stop style="stop-color:#dafcd3;stop-opacity:1;" offset="0.703125"/><stop style="stop-color:#dbfcd4;stop-opacity:1;" offset="0.710938"/><stop style="stop-color:#dbfcd5;stop-opacity:1;" offset="0.71875"/><stop style="stop-color:#dcfdd5;stop-opacity:1;" offset="0.726562"/><stop style="stop-color:#dcfdd6;stop-opacity:1;" offset="0.734375"/><stop style="stop-color:#ddfdd6;stop-opacity:1;" offset="0.742188"/><stop style="stop-color:#ddfdd7;stop-opacity:1;" offset="0.75"/><stop style="stop-color:#defdd8;stop-opacity:1;" offset="0.757812"/><stop style="stop-color:#dffdd8;stop-opacity:1;" offset="0.765625"/><stop style="stop-color:#dffdd9;stop-opacity:1;" offset="0.773438"/><stop style="stop-color:#e0fdda;stop-opacity:1;" offset="0.78125"/><stop style="stop-color:#e0fdda;stop-opacity:1;" offset="0.789062"/><stop style="stop-color:#e1fddb;stop-opacity:1;" offset="0.796875"/><stop style="stop-color:#e1fddc;stop-opacity:1;" offset="0.804688"/><stop style="stop-color:#e2fddc;stop-opacity:1;" offset="0.8125"/><stop style="stop-color:#e2fddd;stop-opacity:1;" offset="0.820313"/><stop style="stop-color:#e3fddd;stop-opacity:1;" offset="0.828125"/><stop style="stop-color:#e3fdde;stop-opacity:1;" offset="0.835938"/><stop style="stop-color:#e4fedf;stop-opacity:1;" offset="0.84375"/><stop style="stop-color:#e4fedf;stop-opacity:1;" offset="0.851562"/><stop style="stop-color:#e5fee0;stop-opacity:1;" offset="0.859375"/><stop style="stop-color:#e6fee1;stop-opacity:1;" offset="0.867188"/><stop style="stop-color:#e6fee1;stop-opacity:1;" offset="0.875"/><stop style="stop-color:#e7fee2;stop-opacity:1;" offset="0.882812"/><stop style="stop-color:#e7fee3;stop-opacity:1;" offset="0.890625"/><stop style="stop-color:#e8fee3;stop-opacity:1;" offset="0.898438"/><stop style="stop-color:#e8fee4;stop-opacity:1;" offset="0.90625"/><stop style="stop-color:#e9fee5;stop-opacity:1;" offset="0.914062"/><stop style="stop-color:#e9fee5;stop-opacity:1;" offset="0.921875"/><stop style="stop-color:#eafee6;stop-opacity:1;" offset="0.929688"/><stop style="stop-color:#eafee6;stop-opacity:1;" offset="0.9375"/><stop style="stop-color:#ebfee7;stop-opacity:1;" offset="0.945312"/><stop style="stop-color:#ebffe8;stop-opacity:1;" offset="0.953125"/><stop style="stop-color:#ecffe8;stop-opacity:1;" offset="0.960938"/><stop style="stop-color:#edffe9;stop-opacity:1;" offset="0.96875"/><stop style="stop-color:#edffea;stop-opacity:1;" offset="0.976562"/><stop style="stop-color:#eeffea;stop-opacity:1;" offset="0.984375"/><stop style="stop-color:#eeffeb;stop-opacity:1;" offset="0.992188"/><stop style="stop-color:#efffec;stop-opacity:1;" offset="1"/></linearGradient><clipPath id="6e38aadb1b"><path d="M 83.523438 100 L 291.273438 100 L 291.273438 288 L 83.523438 288 Z M 83.523438 100 "/></clipPath></defs><g id="42ebf6f19a"><rect x="0" width="375" y="0" height="374.999991" style="fill:#ffffff;fill-opacity:1;stroke:none;"/><rect x="0" width="375" y="0" height="374.999991" style="fill:#ffffff;fill-opacity:1;stroke:none;"/><g clip-rule="nonzero" clip-path="url(#1dbdc9d5d2)"><rect x="0" width="375" y="0" height="374.999991" style="fill:url(#24f568938a);stroke:none;"/></g><path style=" stroke:none;fill-rule:nonzero;fill:#26802d;fill-opacity:1;" d="M 146.546875 179.585938 C 139.710938 174.558594 131.65625 172.242188 131.320312 172.132812 C 131.15625 172.074219 130.984375 172.039062 130.808594 172.023438 C 130.632812 172.003906 130.457031 172.011719 130.285156 172.039062 C 130.109375 172.066406 129.941406 172.113281 129.78125 172.179688 C 129.617188 172.25 129.46875 172.335938 129.328125 172.445312 C 129.1875 172.550781 129.0625 172.671875 128.949219 172.808594 C 128.839844 172.945312 128.746094 173.09375 128.675781 173.253906 C 128.601562 173.414062 128.546875 173.578125 128.515625 173.753906 C 128.484375 173.925781 128.472656 174.101562 128.484375 174.277344 L 128.484375 191.640625 C 128.480469 192.132812 128.628906 192.582031 128.925781 192.976562 C 129.21875 193.375 129.605469 193.640625 130.078125 193.78125 C 135.023438 195.316406 139.636719 197.546875 143.917969 200.464844 C 145.828125 201.457031 147.457031 200.140625 147.457031 198.664062 L 147.457031 181.382812 C 147.457031 180.628906 147.152344 180.03125 146.546875 179.585938 Z M 143 194.609375 C 139.800781 192.742188 136.449219 191.210938 132.945312 190.011719 L 132.945312 177.390625 C 136.496094 178.714844 139.847656 180.425781 143 182.53125 Z M 143 194.609375 "/><path style=" stroke:none;fill-rule:nonzero;fill:#26802d;fill-opacity:1;" d="M 130.21875 128.664062 C 130.910156 128.820312 132.660156 129.242188 132.851562 129.242188 C 135.390625 129.273438 135.914062 125.496094 133.414062 124.859375 C 132.683594 124.667969 131.945312 124.488281 131.203125 124.316406 C 130.914062 124.253906 130.625 124.25 130.335938 124.300781 C 130.046875 124.351562 129.777344 124.457031 129.53125 124.613281 C 129.28125 124.769531 129.074219 124.96875 128.902344 125.210938 C 128.734375 125.449219 128.617188 125.714844 128.550781 126 C 128.488281 126.289062 128.480469 126.578125 128.527344 126.867188 C 128.578125 127.15625 128.679688 127.425781 128.835938 127.675781 C 128.992188 127.925781 129.191406 128.136719 129.429688 128.308594 C 129.667969 128.476562 129.933594 128.597656 130.21875 128.664062 Z M 130.21875 128.664062 "/><path style=" stroke:none;fill-rule:nonzero;fill:#26802d;fill-opacity:1;" d="M 145.507812 134.175781 C 159.847656 140.539062 170.074219 151.589844 170.175781 151.699219 C 170.394531 151.878906 170.636719 152.019531 170.902344 152.121094 C 171.167969 152.222656 171.441406 152.28125 171.726562 152.292969 C 172.007812 152.304688 172.289062 152.273438 172.5625 152.195312 C 172.835938 152.117188 173.089844 151.996094 173.324219 151.839844 C 173.546875 151.644531 173.722656 151.410156 173.855469 151.144531 C 173.984375 150.875 174.054688 150.59375 174.066406 150.292969 C 174.082031 149.996094 174.035156 149.710938 173.929688 149.429688 C 173.824219 149.152344 173.667969 148.90625 173.460938 148.691406 C 173.023438 148.210938 162.53125 136.855469 147.3125 130.105469 C 147.042969 129.988281 146.761719 129.929688 146.46875 129.921875 C 146.175781 129.917969 145.894531 129.96875 145.621094 130.074219 C 145.347656 130.183594 145.105469 130.335938 144.890625 130.539062 C 144.679688 130.742188 144.515625 130.980469 144.394531 131.246094 C 144.277344 131.515625 144.210938 131.796875 144.203125 132.089844 C 144.195312 132.382812 144.246094 132.664062 144.347656 132.941406 C 144.453125 133.214844 144.605469 133.457031 144.804688 133.671875 C 145.003906 133.886719 145.238281 134.054688 145.507812 134.175781 Z M 145.507812 134.175781 "/><path style=" stroke:none;fill-rule:nonzero;fill:#26802d;fill-opacity:1;" d="M 130.21875 145.125 C 152.644531 150.203125 170.03125 168.03125 170.214844 168.199219 C 170.417969 168.414062 170.652344 168.585938 170.925781 168.707031 C 171.195312 168.828125 171.480469 168.890625 171.777344 168.894531 C 172.074219 168.898438 172.359375 168.847656 172.636719 168.738281 C 172.910156 168.625 173.152344 168.464844 173.363281 168.257812 C 173.570312 168.046875 173.726562 167.808594 173.839844 167.539062 C 173.957031 167.269531 174.015625 166.984375 174.019531 166.695312 C 174.023438 166.402344 173.976562 166.117188 173.875 165.84375 C 173.769531 165.570312 173.621094 165.324219 173.421875 165.105469 C 172.679688 164.335938 154.957031 146.160156 131.203125 140.777344 C 130.914062 140.710938 130.625 140.707031 130.335938 140.753906 C 130.042969 140.804688 129.773438 140.910156 129.523438 141.066406 C 129.273438 141.222656 129.0625 141.425781 128.894531 141.664062 C 128.722656 141.90625 128.605469 142.171875 128.539062 142.457031 C 128.476562 142.746094 128.46875 143.035156 128.515625 143.328125 C 128.566406 143.617188 128.671875 143.886719 128.828125 144.136719 C 128.984375 144.386719 129.183594 144.597656 129.425781 144.769531 C 129.667969 144.941406 129.929688 145.058594 130.21875 145.125 Z M 130.21875 145.125 "/><path style=" stroke:none;fill-rule:nonzero;fill:#26802d;fill-opacity:1;" d="M 131.203125 157.234375 C 130.914062 157.171875 130.625 157.164062 130.335938 157.214844 C 130.042969 157.261719 129.773438 157.367188 129.523438 157.523438 C 129.273438 157.683594 129.0625 157.882812 128.894531 158.121094 C 128.722656 158.363281 128.605469 158.628906 128.539062 158.917969 C 128.476562 159.203125 128.46875 159.492188 128.515625 159.785156 C 128.566406 160.074219 128.671875 160.347656 128.828125 160.597656 C 128.984375 160.847656 129.183594 161.054688 129.425781 161.226562 C 129.667969 161.398438 129.929688 161.515625 130.21875 161.582031 C 152.644531 166.660156 170.042969 184.476562 170.214844 184.65625 C 170.433594 184.839844 170.679688 184.976562 170.949219 185.078125 C 171.214844 185.175781 171.492188 185.226562 171.777344 185.234375 C 172.066406 185.238281 172.34375 185.195312 172.617188 185.105469 C 172.886719 185.019531 173.136719 184.886719 173.363281 184.714844 C 173.582031 184.511719 173.753906 184.277344 173.875 184.003906 C 173.996094 183.734375 174.0625 183.449219 174.066406 183.152344 C 174.074219 182.855469 174.019531 182.566406 173.90625 182.292969 C 173.796875 182.015625 173.632812 181.773438 173.421875 181.566406 C 172.679688 180.796875 154.957031 162.617188 131.203125 157.234375 Z M 131.203125 157.234375 "/><path style=" stroke:none;fill-rule:nonzero;fill:#26802d;fill-opacity:1;" d="M 157.277344 185.136719 C 157.019531 185 156.746094 184.914062 156.457031 184.882812 C 156.164062 184.855469 155.878906 184.878906 155.597656 184.960938 C 155.316406 185.046875 155.0625 185.179688 154.832031 185.359375 C 154.605469 185.542969 154.417969 185.761719 154.277344 186.019531 C 154.132812 186.273438 154.046875 186.546875 154.011719 186.839844 C 153.976562 187.128906 154 187.414062 154.078125 187.695312 C 154.15625 187.980469 154.285156 188.234375 154.464844 188.46875 C 154.644531 188.699219 154.859375 188.886719 155.113281 189.03125 C 163.046875 193.441406 170.117188 201.007812 170.1875 201.082031 C 170.625 201.554688 172.261719 202.148438 173.335938 201.199219 C 173.554688 201 173.726562 200.765625 173.851562 200.5 C 173.972656 200.230469 174.042969 199.949219 174.054688 199.652344 C 174.066406 199.355469 174.019531 199.070312 173.914062 198.792969 C 173.808594 198.515625 173.65625 198.269531 173.453125 198.054688 C 173.144531 197.722656 165.84375 189.898438 157.277344 185.136719 Z M 157.277344 185.136719 "/><path style=" stroke:none;fill-rule:nonzero;fill:#26802d;fill-opacity:1;" d="M 157.277344 201.597656 C 157.019531 201.457031 156.746094 201.371094 156.453125 201.34375 C 156.164062 201.3125 155.878906 201.339844 155.597656 201.421875 C 155.316406 201.503906 155.0625 201.636719 154.832031 201.820312 C 154.605469 202 154.417969 202.21875 154.277344 202.476562 C 154.132812 202.730469 154.046875 203.003906 154.011719 203.296875 C 153.976562 203.585938 154 203.871094 154.078125 204.15625 C 154.15625 204.4375 154.285156 204.695312 154.464844 204.925781 C 154.644531 205.15625 154.859375 205.34375 155.113281 205.488281 C 163.046875 209.898438 170.117188 217.464844 170.1875 217.542969 C 170.625 218.015625 172.292969 218.605469 173.335938 217.660156 C 173.550781 217.457031 173.722656 217.222656 173.847656 216.953125 C 173.96875 216.6875 174.035156 216.40625 174.046875 216.109375 C 174.058594 215.8125 174.011719 215.527344 173.910156 215.25 C 173.808594 214.972656 173.652344 214.726562 173.453125 214.511719 C 173.144531 214.179688 165.84375 206.359375 157.277344 201.597656 Z M 157.277344 201.597656 "/><g clip-rule="nonzero" clip-path="url(#6e38aadb1b)"><path style=" stroke:none;fill-rule:nonzero;fill:#26802d;fill-opacity:1;" d="M 289.917969 145.890625 C 286.347656 144.105469 282.691406 142.527344 278.941406 141.160156 C 278.664062 141.058594 278.378906 141.015625 278.082031 141.027344 C 277.789062 141.042969 277.507812 141.109375 277.238281 141.238281 C 276.972656 141.363281 276.738281 141.535156 276.539062 141.753906 C 276.339844 141.96875 276.191406 142.21875 276.089844 142.496094 C 275.988281 142.773438 275.945312 143.0625 275.960938 143.355469 C 275.972656 143.652344 276.042969 143.933594 276.167969 144.199219 C 276.292969 144.46875 276.464844 144.699219 276.683594 144.898438 C 276.902344 145.097656 277.148438 145.25 277.425781 145.351562 C 280.503906 146.476562 283.59375 147.769531 286.683594 149.265625 L 286.683594 263.023438 C 250.578125 246.988281 216.027344 252.5625 189.292969 263.113281 L 189.292969 149.300781 C 190.792969 148.628906 193.613281 147.4375 197.492188 146.09375 C 197.777344 146 198.035156 145.855469 198.261719 145.660156 C 198.488281 145.464844 198.667969 145.234375 198.800781 144.964844 C 198.9375 144.695312 199.011719 144.414062 199.03125 144.113281 C 199.050781 143.8125 199.011719 143.523438 198.914062 143.238281 C 198.816406 142.957031 198.667969 142.703125 198.46875 142.476562 C 198.269531 142.253906 198.035156 142.078125 197.765625 141.949219 C 197.496094 141.820312 197.210938 141.746094 196.910156 141.734375 C 196.609375 141.71875 196.320312 141.761719 196.039062 141.863281 C 192.429688 143.113281 189.699219 144.242188 188.015625 144.984375 C 173.042969 121.820312 149.195312 103.964844 107.804688 100.242188 C 107.496094 100.21875 107.195312 100.257812 106.902344 100.359375 C 106.609375 100.464844 106.351562 100.621094 106.121094 100.832031 C 105.894531 101.042969 105.722656 101.289062 105.597656 101.574219 C 105.476562 101.859375 105.414062 102.15625 105.414062 102.464844 L 105.414062 138.113281 C 101.644531 139.152344 92.3125 141.941406 84.765625 145.917969 C 84.402344 146.109375 84.117188 146.382812 83.910156 146.734375 C 83.699219 147.085938 83.59375 147.464844 83.597656 147.875 L 83.597656 285.273438 C 83.597656 285.449219 83.617188 285.617188 83.65625 285.789062 C 83.691406 285.957031 83.75 286.121094 83.824219 286.277344 C 83.902344 286.433594 83.996094 286.578125 84.105469 286.714844 C 84.210938 286.851562 84.335938 286.972656 84.472656 287.078125 C 84.609375 287.183594 84.757812 287.277344 84.914062 287.347656 C 85.070312 287.421875 85.234375 287.476562 85.40625 287.511719 C 85.574219 287.550781 85.746094 287.566406 85.921875 287.5625 C 86.09375 287.558594 86.265625 287.539062 86.433594 287.496094 C 141.542969 272.078125 178.878906 285.5 187.070312 287.429688 C 195.265625 285.503906 233.21875 272.078125 288.300781 287.496094 C 290.125 287.835938 291.136719 286.902344 291.136719 285.285156 L 291.136719 147.878906 C 291.136719 147.457031 291.027344 147.070312 290.808594 146.710938 C 290.589844 146.355469 290.292969 146.082031 289.917969 145.890625 Z M 88.054688 149.242188 C 93.660156 146.59375 99.445312 144.429688 105.414062 142.75 L 105.414062 220.941406 C 105.414062 221.222656 105.46875 221.496094 105.570312 221.757812 C 105.671875 222.019531 105.820312 222.253906 106.011719 222.460938 C 106.203125 222.664062 106.425781 222.828125 106.679688 222.949219 C 106.933594 223.074219 107.203125 223.144531 107.484375 223.164062 C 145.308594 226.613281 166.460938 241.570312 181.625 261.800781 C 153.957031 252.085938 124.089844 247.53125 88.050781 263.023438 Z M 184.835938 282.230469 C 156.8125 274.414062 128.441406 272.378906 88.054688 282.425781 L 88.054688 277.660156 C 131.324219 258.785156 177.871094 274.984375 184.835938 277.613281 Z M 184.835938 272.855469 C 158.773438 263.9375 122.765625 258.742188 88.054688 272.8125 L 88.054688 267.9375 C 122.859375 251.097656 160.265625 257.300781 184.835938 267.96875 Z M 184.835938 258.597656 C 181.941406 254.554688 161.664062 222.640625 109.871094 218.882812 L 109.871094 104.882812 C 147.9375 108.503906 172.308594 127.367188 184.835938 148.425781 Z M 286.683594 282.425781 C 252.960938 272.550781 212.070312 275.078125 189.292969 282.242188 L 189.292969 277.667969 C 195.847656 275.195312 243.125 258.664062 286.683594 277.660156 Z M 286.683594 272.8125 C 252.03125 258.695312 215.265625 264.003906 189.292969 272.910156 L 189.292969 267.980469 C 197.25 264.445312 242.179688 246.421875 286.683594 267.941406 Z M 286.683594 272.8125 "/></g><path style=" stroke:none;fill-rule:nonzero;fill:#26802d;fill-opacity:1;" d="M 287.46875 113.757812 C 286.769531 101.09375 274.644531 91.082031 262.089844 92.910156 C 252.214844 75.0625 225.667969 75.027344 215.730469 92.835938 C 188.1875 90.324219 181.320312 131.199219 207.023438 137.425781 C 207.742188 137.554688 208.417969 137.804688 209.050781 138.167969 C 209.683594 138.535156 210.234375 138.996094 210.707031 139.554688 C 211.175781 140.113281 211.539062 140.738281 211.792969 141.421875 C 212.046875 142.109375 212.175781 142.816406 212.183594 143.546875 L 212.183594 172.738281 C 212.183594 173.375 212.246094 174.003906 212.371094 174.628906 C 212.496094 175.253906 212.679688 175.863281 212.925781 176.449219 C 213.167969 177.039062 213.46875 177.597656 213.820312 178.128906 C 214.175781 178.65625 214.578125 179.148438 215.027344 179.597656 C 215.480469 180.050781 215.96875 180.453125 216.5 180.804688 C 217.027344 181.160156 217.585938 181.457031 218.175781 181.703125 C 218.765625 181.945312 219.371094 182.132812 219.996094 182.257812 C 220.621094 182.382812 221.253906 182.445312 221.890625 182.445312 L 255.886719 182.445312 C 256.523438 182.445312 257.152344 182.382812 257.777344 182.257812 C 258.402344 182.132812 259.011719 181.945312 259.597656 181.703125 C 260.1875 181.457031 260.746094 181.160156 261.277344 180.804688 C 261.804688 180.453125 262.296875 180.050781 262.746094 179.597656 C 263.195312 179.148438 263.597656 178.65625 263.953125 178.128906 C 264.308594 177.597656 264.605469 177.039062 264.851562 176.449219 C 265.09375 175.863281 265.28125 175.253906 265.402344 174.628906 C 265.527344 174.003906 265.59375 173.375 265.59375 172.738281 L 265.59375 143.621094 C 265.597656 142.917969 265.71875 142.234375 265.953125 141.570312 C 266.1875 140.90625 266.527344 140.300781 266.96875 139.75 C 267.410156 139.199219 267.929688 138.738281 268.523438 138.363281 C 269.121094 137.988281 269.761719 137.722656 270.449219 137.566406 C 280.359375 135.175781 288.152344 124.269531 287.46875 113.757812 Z M 255.886719 177.988281 L 221.890625 177.988281 C 217.988281 177.847656 216.277344 174.71875 216.636719 171.109375 C 219.964844 172.070312 226.753906 173.367188 239.253906 173.367188 C 251.34375 173.367188 257.929688 173.007812 261.136719 172.742188 C 261.136719 173.089844 261.101562 173.429688 261.03125 173.765625 C 260.964844 174.105469 260.867188 174.433594 260.734375 174.75 C 260.601562 175.070312 260.4375 175.371094 260.246094 175.65625 C 260.054688 175.941406 259.839844 176.207031 259.59375 176.453125 C 259.351562 176.695312 259.085938 176.910156 258.800781 177.101562 C 258.511719 177.292969 258.210938 177.457031 257.890625 177.589844 C 257.574219 177.71875 257.246094 177.820312 256.910156 177.886719 C 256.570312 177.953125 256.230469 177.988281 255.886719 177.988281 Z M 269.40625 133.234375 C 269.328125 133.25 263.445312 134.609375 254.347656 134.207031 C 251.402344 134.136719 251.21875 138.457031 254.148438 138.65625 C 256.902344 138.78125 259.65625 138.761719 262.40625 138.59375 C 261.558594 140.160156 261.132812 141.835938 261.132812 143.617188 L 261.132812 168.265625 C 259.695312 168.394531 257.347656 168.550781 253.796875 168.679688 L 253.796875 153.199219 C 253.796875 152.902344 253.738281 152.621094 253.625 152.347656 C 253.511719 152.074219 253.351562 151.832031 253.144531 151.625 C 252.933594 151.414062 252.691406 151.253906 252.421875 151.140625 C 252.148438 151.027344 251.863281 150.972656 251.566406 150.972656 C 251.273438 150.972656 250.988281 151.027344 250.714844 151.140625 C 250.441406 151.253906 250.199219 151.414062 249.992188 151.625 C 249.785156 151.832031 249.621094 152.074219 249.507812 152.347656 C 249.394531 152.621094 249.339844 152.902344 249.339844 153.199219 L 249.339844 168.8125 C 247.054688 168.859375 244.425781 168.894531 241.421875 168.90625 L 241.421875 153.199219 C 241.421875 152.902344 241.367188 152.621094 241.253906 152.347656 C 241.140625 152.074219 240.980469 151.832031 240.769531 151.625 C 240.5625 151.414062 240.320312 151.253906 240.046875 151.140625 C 239.773438 151.027344 239.492188 150.972656 239.195312 150.972656 C 238.898438 150.972656 238.617188 151.027344 238.34375 151.140625 C 238.070312 151.253906 237.828125 151.414062 237.621094 151.625 C 237.410156 151.832031 237.25 152.074219 237.136719 152.347656 C 237.023438 152.621094 236.96875 152.902344 236.96875 153.199219 L 236.96875 168.894531 C 233.949219 168.851562 231.324219 168.726562 229.050781 168.554688 L 229.050781 153.199219 C 229.050781 152.902344 228.996094 152.621094 228.882812 152.347656 C 228.769531 152.074219 228.609375 151.832031 228.398438 151.625 C 228.191406 151.414062 227.949219 151.253906 227.675781 151.140625 C 227.402344 151.027344 227.117188 150.972656 226.824219 150.972656 C 226.527344 150.972656 226.242188 151.027344 225.96875 151.140625 C 225.699219 151.253906 225.457031 151.414062 225.246094 151.625 C 225.039062 151.832031 224.878906 152.074219 224.765625 152.347656 C 224.652344 152.621094 224.59375 152.902344 224.59375 153.199219 L 224.59375 168.105469 C 221.882812 167.828125 219.226562 167.265625 216.636719 166.414062 L 216.636719 143.546875 C 216.628906 142.929688 216.566406 142.320312 216.457031 141.710938 C 216.34375 141.105469 216.179688 140.515625 215.96875 139.9375 C 215.753906 139.355469 215.496094 138.800781 215.1875 138.265625 C 214.878906 137.734375 214.527344 137.230469 214.132812 136.753906 C 213.738281 136.28125 213.308594 135.84375 212.839844 135.445312 C 212.371094 135.042969 211.871094 134.6875 211.339844 134.371094 C 210.808594 134.058594 210.257812 133.789062 209.683594 133.570312 C 209.105469 133.347656 208.515625 133.179688 207.910156 133.058594 C 198.726562 131.183594 195.453125 122.636719 195.453125 115.257812 C 195.453125 114.65625 195.484375 114.054688 195.542969 113.453125 C 195.605469 112.855469 195.695312 112.257812 195.816406 111.667969 C 195.9375 111.074219 196.085938 110.492188 196.265625 109.914062 C 196.445312 109.339844 196.652344 108.773438 196.886719 108.21875 C 197.121094 107.664062 197.386719 107.121094 197.675781 106.589844 C 197.964844 106.0625 198.28125 105.546875 198.621094 105.050781 C 198.964844 104.554688 199.328125 104.074219 199.71875 103.613281 C 200.105469 103.152344 200.519531 102.710938 200.953125 102.292969 C 201.386719 101.871094 201.839844 101.472656 202.3125 101.101562 C 202.785156 100.726562 203.277344 100.375 203.785156 100.050781 C 204.292969 99.726562 204.816406 99.425781 205.351562 99.152344 C 205.890625 98.878906 206.441406 98.632812 207.003906 98.417969 C 207.566406 98.199219 208.140625 98.011719 208.722656 97.847656 C 209.304688 97.6875 209.890625 97.558594 210.484375 97.457031 C 211.082031 97.355469 211.679688 97.28125 212.28125 97.242188 C 212.882812 97.199219 213.484375 97.1875 214.089844 97.207031 C 213.710938 99.054688 213.535156 100.925781 213.558594 102.8125 C 213.648438 105.746094 217.988281 105.699219 218.015625 102.769531 C 217.945312 100.519531 218.269531 98.324219 218.984375 96.191406 C 227 79.8125 250.953125 79.886719 258.851562 96.316406 C 259.578125 98.40625 259.898438 100.558594 259.820312 102.765625 C 259.832031 105.691406 264.203125 105.738281 264.273438 102.808594 C 264.304688 100.929688 264.128906 99.070312 263.746094 97.230469 C 273.488281 96.398438 282.460938 104.289062 283.019531 114.046875 C 283.566406 122.386719 277.203125 131.347656 269.40625 133.234375 Z M 269.40625 133.234375 "/><path style=" stroke:none;fill-rule:nonzero;fill:#26802d;fill-opacity:1;" d="M 255.703125 218.324219 C 256.714844 218.492188 257.738281 218.542969 258.765625 218.484375 C 259.789062 218.425781 260.796875 218.253906 261.785156 217.96875 C 262.773438 217.683594 263.71875 217.296875 264.621094 216.800781 C 265.523438 216.308594 266.359375 215.71875 267.132812 215.039062 L 273.945312 209.050781 C 274.171875 208.855469 274.355469 208.625 274.488281 208.359375 C 274.621094 208.09375 274.699219 207.8125 274.722656 207.515625 C 274.742188 207.21875 274.707031 206.925781 274.609375 206.644531 C 274.515625 206.363281 274.371094 206.109375 274.171875 205.882812 C 273.976562 205.660156 273.742188 205.484375 273.476562 205.351562 C 273.207031 205.222656 272.925781 205.148438 272.625 205.132812 C 272.328125 205.113281 272.039062 205.15625 271.757812 205.253906 C 271.476562 205.355469 271.226562 205.503906 271.003906 205.703125 L 264.191406 211.695312 C 258.550781 216.585938 253.761719 211.410156 247.054688 215.703125 L 244.53125 213.773438 C 245.542969 212.691406 246.359375 211.480469 246.984375 210.140625 C 247.609375 208.796875 248.007812 207.390625 248.183594 205.921875 C 248.21875 204.574219 248.515625 203.289062 249.070312 202.0625 C 249.625 200.835938 250.394531 199.761719 251.378906 198.847656 L 258.949219 192.019531 C 259.167969 191.820312 259.34375 191.589844 259.46875 191.320312 C 259.597656 191.054688 259.667969 190.773438 259.683594 190.480469 C 259.699219 190.183594 259.660156 189.898438 259.558594 189.617188 C 259.460938 189.339844 259.3125 189.089844 259.113281 188.871094 C 258.917969 188.652344 258.683594 188.476562 258.417969 188.351562 C 258.152344 188.222656 257.871094 188.152344 257.574219 188.136719 C 257.277344 188.121094 256.992188 188.164062 256.714844 188.261719 C 256.433594 188.363281 256.1875 188.511719 255.964844 188.707031 L 248.394531 195.535156 C 242.074219 201.101562 245.675781 206.390625 240.964844 211.046875 L 213.371094 189.949219 C 213.21875 189.832031 213.058594 189.738281 212.886719 189.667969 C 212.710938 189.59375 212.53125 189.542969 212.347656 189.515625 C 212.160156 189.484375 211.972656 189.480469 211.789062 189.5 C 211.601562 189.519531 211.417969 189.5625 211.242188 189.628906 C 211.066406 189.695312 210.898438 189.78125 210.746094 189.886719 C 210.589844 189.996094 210.453125 190.121094 210.328125 190.261719 C 210.207031 190.40625 210.101562 190.558594 210.019531 190.730469 C 209.9375 190.898438 209.875 191.074219 209.835938 191.257812 C 206.15625 207.386719 212.621094 219.210938 226.984375 222.242188 L 211.066406 234.414062 C 205.347656 239.117188 211.703125 247.605469 217.820312 243.445312 L 236.339844 229.960938 C 238.671875 228.199219 236.117188 224.671875 233.714844 226.359375 L 215.191406 239.847656 C 215.066406 239.941406 214.929688 240.007812 214.777344 240.046875 C 214.625 240.085938 214.472656 240.09375 214.316406 240.070312 C 214.160156 240.046875 214.015625 239.996094 213.882812 239.917969 C 213.746094 239.835938 213.632812 239.734375 213.539062 239.609375 C 213.445312 239.484375 213.378906 239.34375 213.339844 239.191406 C 213.300781 239.039062 213.292969 238.886719 213.3125 238.730469 C 213.335938 238.578125 213.386719 238.433594 213.464844 238.296875 C 213.546875 238.164062 213.648438 238.046875 213.773438 237.953125 L 233.203125 223.097656 C 235.40625 223.097656 237.613281 223.449219 239.363281 224.800781 L 264.769531 243.441406 C 265.066406 243.65625 265.382812 243.84375 265.714844 244 C 266.046875 244.152344 266.394531 244.273438 266.75 244.359375 C 267.105469 244.449219 267.46875 244.5 267.835938 244.515625 C 268.203125 244.535156 268.566406 244.515625 268.929688 244.460938 C 269.292969 244.40625 269.644531 244.316406 269.992188 244.191406 C 270.335938 244.070312 270.667969 243.914062 270.984375 243.722656 C 271.296875 243.535156 271.589844 243.320312 271.863281 243.074219 C 272.136719 242.828125 272.382812 242.558594 272.605469 242.265625 C 272.824219 241.972656 273.011719 241.660156 273.171875 241.328125 C 273.332031 240.996094 273.457031 240.652344 273.550781 240.296875 C 273.640625 239.941406 273.699219 239.582031 273.71875 239.214844 C 273.742188 238.847656 273.726562 238.484375 273.675781 238.121094 C 273.628906 237.757812 273.542969 237.402344 273.425781 237.054688 C 273.304688 236.707031 273.152344 236.375 272.96875 236.058594 C 272.785156 235.738281 272.574219 235.441406 272.332031 235.167969 C 272.089844 234.890625 271.820312 234.640625 271.53125 234.417969 L 251.035156 218.746094 C 252.554688 218.207031 254.109375 218.066406 255.703125 218.324219 Z M 268.824219 237.957031 C 268.941406 238.050781 269.042969 238.160156 269.121094 238.289062 C 269.195312 238.421875 269.246094 238.558594 269.273438 238.710938 C 269.296875 238.859375 269.292969 239.007812 269.257812 239.15625 C 269.226562 239.300781 269.167969 239.4375 269.082031 239.5625 C 268.992188 239.699219 268.882812 239.8125 268.75 239.902344 C 268.613281 239.992188 268.464844 240.050781 268.304688 240.078125 C 268.148438 240.105469 267.988281 240.101562 267.832031 240.058594 C 267.675781 240.019531 267.53125 239.949219 267.40625 239.851562 L 241.996094 221.210938 C 239.789062 219.597656 237.320312 218.757812 234.585938 218.699219 C 222.015625 218.460938 211.238281 212.058594 213.589844 195.730469 Z M 268.824219 237.957031 "/><path style=" stroke:none;fill-rule:nonzero;fill:#26802d;fill-opacity:1;" d="M 251.707031 210.484375 C 251.902344 210.707031 252.128906 210.886719 252.390625 211.023438 C 252.652344 211.15625 252.933594 211.234375 253.226562 211.257812 C 253.523438 211.28125 253.808594 211.25 254.089844 211.15625 C 254.371094 211.066406 254.625 210.925781 254.847656 210.734375 L 266.078125 201.164062 C 266.304688 200.972656 266.480469 200.746094 266.617188 200.484375 C 266.75 200.21875 266.828125 199.941406 266.851562 199.648438 C 266.875 199.355469 266.839844 199.066406 266.75 198.785156 C 266.660156 198.503906 266.519531 198.253906 266.328125 198.027344 C 266.136719 197.804688 265.910156 197.625 265.644531 197.488281 C 265.382812 197.355469 265.105469 197.277344 264.8125 197.25 C 264.515625 197.226562 264.230469 197.261719 263.949219 197.351562 C 263.667969 197.441406 263.414062 197.582031 263.191406 197.773438 L 251.960938 207.339844 C 251.734375 207.53125 251.554688 207.757812 251.421875 208.023438 C 251.285156 208.285156 251.207031 208.5625 251.183594 208.859375 C 251.160156 209.152344 251.191406 209.441406 251.285156 209.722656 C 251.375 210.003906 251.515625 210.257812 251.707031 210.484375 Z M 251.707031 210.484375 "/></g></svg>