<svg xmlns="http://www.w3.org/2000/svg" xmlns:xlink="http://www.w3.org/1999/xlink" width="500" zoomAndPan="magnify" viewBox="0 0 375 374.999991" height="500" preserveAspectRatio="xMidYMid meet" version="1.0"><defs><clipPath id="e9a0cab144"><path d="M 187.5 0 C 83.945312 0 0 83.945312 0 187.5 C 0 291.054688 83.945312 375 187.5 375 C 291.054688 375 375 291.054688 375 187.5 C 375 83.945312 291.054688 0 187.5 0 Z M 187.5 0 " clip-rule="nonzero"/></clipPath><clipPath id="82d99eb76e"><path d="M 0 0 L 375 0 L 375 375 L 0 375 Z M 0 0 " clip-rule="nonzero"/></clipPath><clipPath id="ebf94639e3"><path d="M 187.5 0 C 83.945312 0 0 83.945312 0 187.5 C 0 291.054688 83.945312 375 187.5 375 C 291.054688 375 375 291.054688 375 187.5 C 375 83.945312 291.054688 0 187.5 0 Z M 187.5 0 " clip-rule="nonzero"/></clipPath><clipPath id="a174076e7b"><rect x="0" width="375" y="0" height="375"/></clipPath><clipPath id="81b8fa505d"><path d="M 70.929688 250 L 79 250 L 79 255 L 70.929688 255 Z M 70.929688 250 " clip-rule="nonzero"/></clipPath><clipPath id="32fc101b20"><path d="M 70.929688 265 L 136 265 L 136 270 L 70.929688 270 Z M 70.929688 265 " clip-rule="nonzero"/></clipPath></defs><rect x="-37.5" width="450" fill="#ffffff" y="-37.499999" height="449.999989" fill-opacity="1"/><rect x="-37.5" width="450" fill="#1c1e1a" y="-37.499999" height="449.999989" fill-opacity="1"/><g clip-path="url(#e9a0cab144)"><g transform="matrix(1, 0, 0, 1, 0, 0)"><g clip-path="url(#a174076e7b)"><g clip-path="url(#82d99eb76e)"><g clip-path="url(#ebf94639e3)"><rect x="-82.5" width="540" fill="#2a2d24" height="539.999987" y="-82.499998" fill-opacity="1"/></g></g></g></g></g><path fill="#fffdf7" d="M 187.304688 158.878906 C 165.214844 158.878906 147.238281 176.851562 147.238281 198.941406 C 147.238281 221.03125 165.214844 239.003906 187.304688 239.003906 C 209.394531 239.003906 227.367188 221.03125 227.367188 198.941406 C 227.367188 176.851562 209.394531 158.878906 187.304688 158.878906 Z M 187.304688 242.820312 C 163.113281 242.820312 143.425781 223.132812 143.425781 198.941406 C 143.425781 174.75 163.113281 155.0625 187.304688 155.0625 C 211.496094 155.0625 231.183594 174.75 231.183594 198.941406 C 231.183594 223.132812 211.496094 242.820312 187.304688 242.820312 " fill-opacity="1" fill-rule="nonzero"/><path fill="#fffdf7" d="M 198.75 212.296875 C 198.394531 212.296875 198.019531 212.191406 197.691406 211.96875 L 186.246094 204.335938 C 185.710938 203.996094 185.394531 203.398438 185.394531 202.757812 L 185.394531 187.496094 C 185.394531 186.4375 186.246094 185.585938 187.304688 185.585938 C 188.363281 185.585938 189.210938 186.4375 189.210938 187.496094 L 189.210938 201.730469 L 199.808594 208.808594 C 200.6875 209.390625 200.925781 210.566406 200.332031 211.445312 C 199.972656 211.996094 199.363281 212.296875 198.75 212.296875 " fill-opacity="1" fill-rule="nonzero"/><path fill="#fffdf7" d="M 187.304688 94.011719 C 182.042969 94.011719 177.765625 98.289062 177.765625 103.550781 C 177.765625 108.8125 182.042969 113.089844 187.304688 113.089844 C 192.566406 113.089844 196.84375 108.8125 196.84375 103.550781 C 196.84375 98.289062 192.566406 94.011719 187.304688 94.011719 Z M 187.304688 116.90625 C 179.941406 116.90625 173.949219 110.914062 173.949219 103.550781 C 173.949219 96.1875 179.941406 90.195312 187.304688 90.195312 C 194.667969 90.195312 200.660156 96.1875 200.660156 103.550781 C 200.660156 110.914062 194.667969 116.90625 187.304688 116.90625 " fill-opacity="1" fill-rule="nonzero"/><path fill="#fffdf7" d="M 187.304688 78.75 C 186.246094 78.75 185.394531 77.902344 185.394531 76.84375 L 185.394531 73.027344 C 185.394531 71.96875 186.246094 71.117188 187.304688 71.117188 C 188.363281 71.117188 189.210938 71.96875 189.210938 73.027344 L 189.210938 76.84375 C 189.210938 77.902344 188.363281 78.75 187.304688 78.75 " fill-opacity="1" fill-rule="nonzero"/><path fill="#fffdf7" d="M 187.304688 135.984375 C 186.246094 135.984375 185.394531 135.132812 185.394531 134.078125 L 185.394531 130.261719 C 185.394531 129.203125 186.246094 128.351562 187.304688 128.351562 C 188.363281 128.351562 189.210938 129.203125 189.210938 130.261719 L 189.210938 134.078125 C 189.210938 135.132812 188.363281 135.984375 187.304688 135.984375 " fill-opacity="1" fill-rule="nonzero"/><path fill="#fffdf7" d="M 168.417969 86.574219 C 167.929688 86.574219 167.4375 86.382812 167.0625 86.007812 L 164.367188 83.3125 C 163.621094 82.566406 163.621094 81.359375 164.367188 80.613281 C 165.109375 79.867188 166.316406 79.867188 167.0625 80.613281 L 169.761719 83.3125 C 170.507812 84.054688 170.507812 85.261719 169.761719 86.007812 C 169.386719 86.382812 168.910156 86.574219 168.417969 86.574219 " fill-opacity="1" fill-rule="nonzero"/><path fill="#fffdf7" d="M 208.886719 127.042969 C 208.394531 127.042969 207.917969 126.863281 207.542969 126.488281 L 204.847656 123.792969 C 204.101562 123.046875 204.101562 121.839844 204.847656 121.09375 C 205.59375 120.347656 206.800781 120.347656 207.542969 121.09375 L 210.242188 123.792969 C 210.988281 124.539062 210.988281 125.746094 210.242188 126.488281 C 209.871094 126.863281 209.378906 127.042969 208.886719 127.042969 " fill-opacity="1" fill-rule="nonzero"/><path fill="#fffdf7" d="M 160.59375 105.460938 L 156.777344 105.460938 C 155.722656 105.460938 154.871094 104.609375 154.871094 103.550781 C 154.871094 102.492188 155.722656 101.644531 156.777344 101.644531 L 160.59375 101.644531 C 161.652344 101.644531 162.503906 102.492188 162.503906 103.550781 C 162.503906 104.609375 161.652344 105.460938 160.59375 105.460938 " fill-opacity="1" fill-rule="nonzero"/><path fill="#fffdf7" d="M 217.828125 105.460938 L 214.011719 105.460938 C 212.953125 105.460938 212.105469 104.609375 212.105469 103.550781 C 212.105469 102.492188 212.953125 101.644531 214.011719 101.644531 L 217.828125 101.644531 C 218.886719 101.644531 219.738281 102.492188 219.738281 103.550781 C 219.738281 104.609375 218.886719 105.460938 217.828125 105.460938 " fill-opacity="1" fill-rule="nonzero"/><path fill="#fffdf7" d="M 165.722656 127.042969 C 165.230469 127.042969 164.738281 126.863281 164.367188 126.488281 C 163.621094 125.746094 163.621094 124.539062 164.367188 123.792969 L 167.0625 121.09375 C 167.808594 120.347656 169.015625 120.347656 169.761719 121.09375 C 170.507812 121.839844 170.507812 123.046875 169.761719 123.792969 L 167.0625 126.488281 C 166.691406 126.863281 166.214844 127.042969 165.722656 127.042969 " fill-opacity="1" fill-rule="nonzero"/><path fill="#fffdf7" d="M 206.1875 86.574219 C 205.695312 86.574219 205.21875 86.382812 204.847656 86.007812 C 204.101562 85.261719 204.101562 84.054688 204.847656 83.3125 L 207.542969 80.613281 C 208.289062 79.867188 209.496094 79.867188 210.242188 80.613281 C 210.988281 81.359375 210.988281 82.566406 210.242188 83.3125 L 207.542969 86.007812 C 207.171875 86.382812 206.679688 86.574219 206.1875 86.574219 " fill-opacity="1" fill-rule="nonzero"/><path fill="#fffdf7" d="M 114.808594 254.269531 C 113.75 254.269531 112.898438 253.417969 112.898438 252.359375 C 112.898438 247.097656 108.621094 242.820312 103.359375 242.820312 C 98.097656 242.820312 93.820312 247.097656 93.820312 252.359375 C 93.820312 253.417969 92.972656 254.269531 91.914062 254.269531 C 90.855469 254.269531 90.007812 253.417969 90.007812 252.359375 C 90.007812 244.996094 95.996094 239.003906 103.359375 239.003906 C 110.722656 239.003906 116.714844 244.996094 116.714844 252.359375 C 116.714844 253.417969 115.867188 254.269531 114.808594 254.269531 " fill-opacity="1" fill-rule="nonzero"/><path fill="#fffdf7" d="M 103.359375 227.558594 C 102.300781 227.558594 101.453125 226.707031 101.453125 225.652344 L 101.453125 221.835938 C 101.453125 220.777344 102.300781 219.925781 103.359375 219.925781 C 104.417969 219.925781 105.269531 220.777344 105.269531 221.835938 L 105.269531 225.652344 C 105.269531 226.707031 104.417969 227.558594 103.359375 227.558594 " fill-opacity="1" fill-rule="nonzero"/><path fill="#fffdf7" d="M 84.476562 235.382812 C 83.984375 235.382812 83.492188 235.191406 83.121094 234.816406 L 80.421875 232.121094 C 79.675781 231.375 79.675781 230.167969 80.421875 229.421875 C 81.167969 228.675781 82.375 228.675781 83.121094 229.421875 L 85.816406 232.121094 C 86.5625 232.863281 86.5625 234.070312 85.816406 234.816406 C 85.445312 235.191406 84.96875 235.382812 84.476562 235.382812 " fill-opacity="1" fill-rule="nonzero"/><g clip-path="url(#81b8fa505d)"><path fill="#fffdf7" d="M 76.652344 254.269531 L 72.835938 254.269531 C 71.777344 254.269531 70.929688 253.417969 70.929688 252.359375 C 70.929688 251.300781 71.777344 250.453125 72.835938 250.453125 L 76.652344 250.453125 C 77.710938 250.453125 78.558594 251.300781 78.558594 252.359375 C 78.558594 253.417969 77.710938 254.269531 76.652344 254.269531 " fill-opacity="1" fill-rule="nonzero"/></g><path fill="#fffdf7" d="M 133.886719 254.269531 L 130.070312 254.269531 C 129.011719 254.269531 128.164062 253.417969 128.164062 252.359375 C 128.164062 251.300781 129.011719 250.453125 130.070312 250.453125 L 133.886719 250.453125 C 134.945312 250.453125 135.792969 251.300781 135.792969 252.359375 C 135.792969 253.417969 134.945312 254.269531 133.886719 254.269531 " fill-opacity="1" fill-rule="nonzero"/><path fill="#fffdf7" d="M 122.246094 235.382812 C 121.753906 235.382812 121.277344 235.191406 120.902344 234.816406 C 120.160156 234.070312 120.160156 232.863281 120.902344 232.121094 L 123.601562 229.421875 C 124.347656 228.675781 125.554688 228.675781 126.300781 229.421875 C 127.042969 230.167969 127.042969 231.375 126.300781 232.121094 L 123.601562 234.816406 C 123.230469 235.191406 122.738281 235.382812 122.246094 235.382812 " fill-opacity="1" fill-rule="nonzero"/><g clip-path="url(#32fc101b20)"><path fill="#fffdf7" d="M 133.886719 269.53125 L 72.835938 269.53125 C 71.777344 269.53125 70.929688 268.679688 70.929688 267.621094 C 70.929688 266.5625 71.777344 265.714844 72.835938 265.714844 L 133.886719 265.714844 C 134.945312 265.714844 135.792969 266.5625 135.792969 267.621094 C 135.792969 268.679688 134.945312 269.53125 133.886719 269.53125 " fill-opacity="1" fill-rule="nonzero"/></g><path fill="#fffdf7" d="M 118.625 284.792969 L 88.097656 284.792969 C 87.039062 284.792969 86.191406 283.941406 86.191406 282.882812 C 86.191406 281.828125 87.039062 280.976562 88.097656 280.976562 L 118.625 280.976562 C 119.679688 280.976562 120.53125 281.828125 120.53125 282.882812 C 120.53125 283.941406 119.679688 284.792969 118.625 284.792969 " fill-opacity="1" fill-rule="nonzero"/><path fill="#fffdf7" d="M 278.863281 280.976562 C 263.09375 280.976562 250.261719 268.144531 250.261719 252.359375 C 250.261719 236.574219 263.09375 223.742188 278.863281 223.742188 C 284.140625 223.742188 289.28125 225.1875 293.738281 227.917969 C 294.632812 228.46875 294.914062 229.644531 294.363281 230.539062 C 293.8125 231.433594 292.636719 231.71875 291.742188 231.164062 C 287.894531 228.808594 283.4375 227.558594 278.863281 227.558594 C 265.195312 227.558594 254.078125 238.675781 254.078125 252.359375 C 254.078125 266.042969 265.195312 277.160156 278.863281 277.160156 C 287.671875 277.160156 295.617188 272.628906 300.132812 265.042969 C 300.667969 264.132812 301.847656 263.835938 302.742188 264.386719 C 303.648438 264.925781 303.949219 266.085938 303.410156 266.996094 C 298.210938 275.746094 289.027344 280.976562 278.863281 280.976562 " fill-opacity="1" fill-rule="nonzero"/><path fill="#fffdf7" d="M 294.109375 269.53125 C 282.542969 269.53125 273.140625 260.109375 273.140625 248.542969 C 273.140625 237.589844 281.679688 228.394531 292.605469 227.632812 C 293.648438 227.589844 294.558594 228.363281 294.648438 229.40625 C 294.707031 230.464844 293.917969 231.375 292.875 231.449219 C 283.945312 232.058594 276.957031 239.570312 276.957031 248.542969 C 276.957031 258.007812 284.644531 265.714844 294.109375 265.714844 C 296.496094 265.714844 298.804688 265.222656 301.011719 264.269531 C 301.980469 263.851562 303.097656 264.296875 303.515625 265.253906 C 303.949219 266.222656 303.5 267.355469 302.53125 267.769531 C 299.847656 268.933594 297.015625 269.53125 294.109375 269.53125 " fill-opacity="1" fill-rule="nonzero"/><path fill="#fffdf7" d="M 282.695312 204.664062 C 281.636719 204.664062 280.785156 203.816406 280.785156 202.757812 L 280.785156 198.941406 C 280.785156 167.105469 264.808594 137.742188 238.039062 120.410156 C 237.160156 119.84375 236.90625 118.664062 237.472656 117.769531 C 238.054688 116.890625 239.230469 116.636719 240.125 117.21875 C 267.96875 135.253906 284.601562 165.808594 284.601562 198.941406 L 284.601562 202.757812 C 284.601562 203.816406 283.753906 204.664062 282.695312 204.664062 " fill-opacity="1" fill-rule="nonzero"/><path fill="#fffdf7" d="M 92.210938 208.480469 C 91.226562 208.480469 90.394531 207.71875 90.320312 206.722656 C 90.109375 204.15625 90.007812 201.535156 90.007812 198.941406 C 90.007812 166.417969 106.417969 135.121094 132.8125 117.234375 C 133.691406 116.652344 134.882812 116.875 135.464844 117.742188 C 136.0625 118.621094 135.824219 119.796875 134.957031 120.394531 C 109.589844 137.578125 93.820312 167.671875 93.820312 198.941406 C 93.820312 201.445312 93.925781 203.964844 94.121094 206.421875 C 94.195312 207.46875 93.417969 208.390625 92.359375 208.480469 C 92.316406 208.480469 92.257812 208.480469 92.210938 208.480469 " fill-opacity="1" fill-rule="nonzero"/><path fill="#fffdf7" d="M 187.304688 296.238281 C 175.230469 296.238281 163.441406 294.046875 152.277344 289.742188 C 151.292969 289.367188 150.800781 288.265625 151.191406 287.28125 C 151.5625 286.296875 152.664062 285.804688 153.648438 286.179688 C 164.378906 290.320312 175.691406 292.421875 187.304688 292.421875 C 204.503906 292.421875 221.316406 287.714844 235.90625 278.800781 C 236.800781 278.265625 237.980469 278.546875 238.53125 279.441406 C 239.082031 280.335938 238.800781 281.511719 237.90625 282.066406 C 222.703125 291.335938 205.203125 296.238281 187.304688 296.238281 " fill-opacity="1" fill-rule="nonzero"/><path fill="#fffdf7" d="M 282.695312 204.664062 C 282.203125 204.664062 281.710938 204.484375 281.351562 204.097656 L 269.90625 192.652344 C 269.160156 191.90625 269.160156 190.714844 269.90625 189.96875 C 270.652344 189.222656 271.84375 189.222656 272.589844 189.96875 L 282.695312 200.058594 L 292.800781 189.96875 C 293.542969 189.222656 294.738281 189.222656 295.480469 189.96875 C 296.226562 190.714844 296.226562 191.90625 295.480469 192.652344 L 284.035156 204.097656 C 283.675781 204.484375 283.1875 204.664062 282.695312 204.664062 " fill-opacity="1" fill-rule="nonzero"/><path fill="#fffdf7" d="M 161.070312 303.871094 C 160.414062 303.871094 159.773438 303.527344 159.417969 302.917969 L 151.308594 288.921875 C 151.054688 288.488281 150.996094 287.96875 151.117188 287.476562 C 151.25 286.984375 151.578125 286.566406 152.007812 286.3125 L 166.019531 278.203125 C 166.929688 277.667969 168.089844 277.980469 168.628906 278.90625 C 169.148438 279.8125 168.835938 280.976562 167.929688 281.5 L 155.570312 288.652344 L 162.726562 301.007812 C 163.246094 301.917969 162.933594 303.082031 162.027344 303.617188 C 161.726562 303.796875 161.398438 303.871094 161.070312 303.871094 " fill-opacity="1" fill-rule="nonzero"/><path fill="#fffdf7" d="M 133.886719 135.984375 C 132.828125 135.984375 131.976562 135.132812 131.976562 134.078125 L 131.976562 120.722656 L 118.625 120.722656 C 117.566406 120.722656 116.714844 119.871094 116.714844 118.8125 C 116.714844 117.753906 117.566406 116.90625 118.625 116.90625 L 133.886719 116.90625 C 134.945312 116.90625 135.792969 117.753906 135.792969 118.8125 L 135.792969 134.078125 C 135.792969 135.132812 134.945312 135.984375 133.886719 135.984375 " fill-opacity="1" fill-rule="nonzero"/><path fill="#fffdf7" d="M 191.121094 172.230469 C 191.121094 170.128906 189.40625 168.417969 187.304688 168.417969 C 185.203125 168.417969 183.488281 170.128906 183.488281 172.230469 C 183.488281 174.332031 185.203125 176.046875 187.304688 176.046875 C 189.40625 176.046875 191.121094 174.332031 191.121094 172.230469 " fill-opacity="1" fill-rule="nonzero"/><path fill="#fffdf7" d="M 191.121094 225.652344 C 191.121094 223.550781 189.40625 221.835938 187.304688 221.835938 C 185.203125 221.835938 183.488281 223.550781 183.488281 225.652344 C 183.488281 227.753906 185.203125 229.464844 187.304688 229.464844 C 189.40625 229.464844 191.121094 227.753906 191.121094 225.652344 " fill-opacity="1" fill-rule="nonzero"/><path fill="#fffdf7" d="M 217.828125 198.941406 C 217.828125 196.839844 216.113281 195.125 214.011719 195.125 C 211.910156 195.125 210.199219 196.839844 210.199219 198.941406 C 210.199219 201.042969 211.910156 202.757812 214.011719 202.757812 C 216.113281 202.757812 217.828125 201.042969 217.828125 198.941406 " fill-opacity="1" fill-rule="nonzero"/><path fill="#fffdf7" d="M 164.410156 198.941406 C 164.410156 196.839844 162.695312 195.125 160.59375 195.125 C 158.492188 195.125 156.777344 196.839844 156.777344 198.941406 C 156.777344 201.042969 158.492188 202.757812 160.59375 202.757812 C 162.695312 202.757812 164.410156 201.042969 164.410156 198.941406 " fill-opacity="1" fill-rule="nonzero"/></svg>