<svg xmlns="http://www.w3.org/2000/svg" xmlns:xlink="http://www.w3.org/1999/xlink" width="500" zoomAndPan="magnify" viewBox="0 0 375 374.999991" height="500" preserveAspectRatio="xMidYMid meet" version="1.0"><defs><clipPath id="da6b0821a7"><path d="M 0 5.242188 L 375 5.242188 L 375 369.757812 L 0 369.757812 Z M 0 5.242188 " clip-rule="nonzero"/></clipPath><clipPath id="e79b9886e6"><path d="M 187.5 5.242188 C 83.945312 5.242188 0 86.84375 0 187.5 C 0 288.15625 83.945312 369.757812 187.5 369.757812 C 291.054688 369.757812 375 288.15625 375 187.5 C 375 86.84375 291.054688 5.242188 187.5 5.242188 Z M 187.5 5.242188 " clip-rule="nonzero"/></clipPath><clipPath id="8126f8492e"><path d="M 0 0.242188 L 375 0.242188 L 375 364.757812 L 0 364.757812 Z M 0 0.242188 " clip-rule="nonzero"/></clipPath><clipPath id="44dcaef229"><path d="M 187.5 0.242188 C 83.945312 0.242188 0 81.84375 0 182.5 C 0 283.15625 83.945312 364.757812 187.5 364.757812 C 291.054688 364.757812 375 283.15625 375 182.5 C 375 81.84375 291.054688 0.242188 187.5 0.242188 Z M 187.5 0.242188 " clip-rule="nonzero"/></clipPath><clipPath id="55cb1260ec"><rect x="0" width="375" y="0" height="365"/></clipPath><clipPath id="e0a28c2efd"><path d="M 66 59.78125 L 309.808594 59.78125 L 309.808594 304 L 66 304 Z M 66 59.78125 " clip-rule="nonzero"/></clipPath></defs><rect x="-37.5" width="450" fill="#ffffff" y="-37.499999" height="449.999989" fill-opacity="1"/><rect x="-37.5" width="450" fill="#1c1e1a" y="-37.499999" height="449.999989" fill-opacity="1"/><g clip-path="url(#da6b0821a7)"><g clip-path="url(#e79b9886e6)"><g transform="matrix(1, 0, 0, 1, 0, 5)"><g clip-path="url(#55cb1260ec)"><g clip-path="url(#8126f8492e)"><g clip-path="url(#44dcaef229)"><path fill="#2a2d24" d="M 0 0.242188 L 374.480469 0.242188 L 374.480469 364.757812 L 0 364.757812 Z M 0 0.242188 " fill-opacity="1" fill-rule="nonzero"/></g></g></g></g></g></g><g clip-path="url(#e0a28c2efd)"><path fill="#73b4a1" d="M 150.71875 95.246094 C 150.71875 129.828125 188.515625 164.410156 227.246094 198.992188 C 228.9375 200.503906 231.460938 200.503906 233.152344 198.992188 C 271.882812 164.410156 309.679688 129.828125 309.679688 95.246094 C 309.679688 75.667969 291.878906 59.78125 269.941406 59.78125 C 252.535156 59.78125 242.753906 66.585938 233.917969 80.1875 C 232.171875 82.875 228.226562 82.875 226.480469 80.1875 C 217.644531 66.585938 207.863281 59.78125 190.457031 59.78125 C 168.519531 59.78125 150.71875 75.667969 150.71875 95.246094 Z M 124.0625 295.265625 L 106.484375 302.566406 C 102.667969 304.152344 98.265625 302.335938 96.679688 298.523438 C 86.757812 274.695312 76.832031 250.867188 66.910156 227.042969 C 65.304688 223.1875 67.105469 218.828125 70.960938 217.226562 L 88.539062 209.929688 C 92.355469 208.34375 96.753906 210.160156 98.34375 213.972656 C 108.265625 237.800781 118.1875 261.625 128.109375 285.453125 C 129.714844 289.308594 127.917969 293.667969 124.0625 295.265625 Z M 224.039062 237.253906 C 225.6875 230.746094 221.871094 224.234375 215.546875 222.539062 L 182.394531 213.65625 C 181.90625 213.527344 181.472656 213.300781 181.101562 213.003906 C 170.582031 205.574219 162.773438 202.878906 155.621094 203.0625 C 148.386719 203.25 141.363281 206.410156 132.753906 210.621094 C 124.96875 214.425781 117.160156 218.171875 109.324219 221.878906 L 129.859375 271.191406 L 137.761719 267.351562 C 143.558594 264.53125 149.5 264.035156 155.6875 265.832031 L 192.253906 276.445312 C 201.90625 279.25 214.5 274.351562 224.488281 270.460938 C 248.074219 261.285156 271.726562 252.25 295.34375 243.152344 C 300.867188 241.023438 304.847656 235.53125 305.886719 229.976562 C 306.625 226.03125 305.855469 221.980469 302.523438 219.4375 C 298.347656 216.25 290.410156 215.304688 277.390625 219.125 L 231.46875 232.597656 C 231.648438 234.722656 231.472656 236.910156 230.890625 239.082031 C 228.175781 249.21875 217.632812 255.3125 207.496094 252.597656 L 163.433594 240.792969 C 161.539062 240.285156 160.417969 238.34375 160.921875 236.453125 C 161.429688 234.5625 163.371094 233.4375 165.261719 233.941406 L 209.492188 245.792969 C 215.777344 247.382812 222.230469 243.660156 224.039062 237.253906 Z M 225.097656 112.773438 L 235.300781 112.773438 C 236.699219 112.773438 237.835938 113.910156 237.835938 115.308594 L 237.835938 124.871094 L 247.398438 124.871094 C 248.796875 124.871094 249.933594 126.007812 249.933594 127.40625 L 249.933594 137.609375 C 249.933594 139.007812 248.796875 140.144531 247.398438 140.144531 L 237.835938 140.144531 L 237.835938 149.707031 C 237.835938 151.105469 236.699219 152.242188 235.300781 152.242188 L 225.097656 152.242188 C 223.699219 152.242188 222.5625 151.105469 222.5625 149.707031 L 222.5625 140.144531 L 213 140.144531 C 211.605469 140.144531 210.464844 139.007812 210.464844 137.609375 L 210.464844 127.40625 C 210.464844 126.007812 211.605469 124.871094 213 124.871094 L 222.5625 124.871094 L 222.5625 115.308594 C 222.5625 113.910156 223.699219 112.773438 225.097656 112.773438 Z M 195.734375 132.507812 C 195.734375 113.472656 211.164062 98.042969 230.199219 98.042969 C 249.234375 98.042969 264.667969 113.472656 264.667969 132.507812 C 264.667969 151.542969 249.234375 166.976562 230.199219 166.976562 C 211.164062 166.976562 195.734375 151.542969 195.734375 132.507812 Z M 195.734375 132.507812 " fill-opacity="1" fill-rule="evenodd"/></g></svg>