<svg xmlns="http://www.w3.org/2000/svg" xmlns:xlink="http://www.w3.org/1999/xlink" width="500" zoomAndPan="magnify" viewBox="0 0 375 374.999991" height="500" preserveAspectRatio="xMidYMid meet" version="1.0"><defs><clipPath id="09b0605a06"><path d="M 33.414062 64.230469 L 341.664062 64.230469 L 341.664062 310.980469 L 33.414062 310.980469 Z M 33.414062 64.230469 " clip-rule="nonzero"/></clipPath></defs><rect x="-37.5" width="450" fill="#ffffff" y="-37.499999" height="449.999989" fill-opacity="1"/><rect x="-37.5" width="450" fill="#1c1e1a" y="-37.499999" height="449.999989" fill-opacity="1"/><g clip-path="url(#09b0605a06)"><path fill="#8fad78" d="M 341.308594 307.410156 C 334.507812 307.34375 327.503906 307.410156 320.566406 307.34375 C 311.914062 307.207031 303.398438 307 294.949219 306.792969 C 294.742188 306.792969 294.742188 306.726562 294.878906 306.65625 C 295.5 306.3125 296.046875 305.832031 296.667969 305.28125 C 307.929688 294.566406 311.777344 278.703125 306.488281 264.074219 C 306.214844 263.320312 305.800781 262.082031 305.113281 260.367188 C 304.015625 257.34375 303.257812 254.253906 302.847656 251.023438 C 302.640625 249.375 302.710938 247.660156 302.710938 245.941406 C 302.710938 244.636719 302.777344 243.332031 302.917969 242.097656 C 303.398438 238.113281 304.015625 234.265625 304.703125 230.421875 C 305.730469 224.652344 306.074219 219.019531 305.664062 213.527344 C 305.457031 210.433594 305.183594 207.550781 304.90625 204.804688 C 304.839844 203.773438 304.90625 202.878906 305.183594 201.988281 C 305.664062 200.476562 306.417969 198.757812 307.3125 196.769531 C 308.066406 195.1875 309.027344 194.019531 310.195312 193.265625 C 311.5 192.371094 312.875 191.480469 314.25 190.519531 C 316.171875 189.144531 317.886719 187.289062 319.46875 184.953125 C 320.910156 182.757812 321.597656 180.285156 321.597656 177.675781 C 321.597656 177.539062 321.597656 177.398438 321.527344 177.195312 C 321.527344 177.125 321.390625 177.054688 321.324219 177.054688 C 316.035156 179.046875 312.257812 182.621094 309.992188 187.839844 C 309.027344 190.105469 307.792969 193.195312 306.417969 197.109375 C 306.074219 198.003906 305.9375 198.898438 305.457031 199.722656 C 305.25 200.0625 305.183594 200.0625 305.25 199.652344 C 305.390625 198.898438 305.457031 198.210938 305.527344 197.523438 C 305.664062 193.472656 305.25 189.417969 304.152344 185.230469 C 304.082031 184.816406 303.945312 184.472656 304.152344 184.0625 C 305.113281 181.519531 305.9375 179.046875 306.832031 176.507812 C 307.65625 173.964844 309.097656 171.90625 310.472656 169.707031 C 311.636719 167.851562 312.53125 165.929688 313.082031 163.871094 C 313.699219 161.601562 313.699219 159.0625 313.285156 156.726562 C 313.285156 156.589844 313.082031 156.519531 313.011719 156.589844 C 311.707031 157.484375 310.472656 158.648438 309.304688 160.09375 C 307.105469 162.703125 305.871094 165.863281 305.730469 169.570312 C 305.664062 171.011719 305.664062 172.730469 305.664062 174.585938 C 305.664062 176.027344 305.390625 177.332031 305.046875 178.703125 C 304.703125 180.078125 304.359375 181.382812 304.015625 182.621094 C 303.945312 182.757812 303.945312 182.757812 303.878906 182.621094 C 303.328125 180.214844 302.777344 177.8125 302.367188 175.269531 C 301.75 171.21875 301.0625 167.167969 300.445312 163.113281 C 300.167969 161.054688 299.824219 159.269531 299.414062 157.6875 C 297.832031 151.371094 295.15625 144.914062 291.308594 138.527344 C 291.171875 138.320312 291.101562 138.046875 291.035156 137.769531 C 291.035156 137.703125 290.964844 137.566406 291.035156 137.429688 C 291.242188 136.535156 291.445312 135.710938 291.722656 134.886719 C 292.066406 133.71875 292.683594 132.621094 293.4375 131.660156 C 297.214844 126.507812 300.101562 119.777344 296.941406 113.664062 C 296.871094 113.527344 296.667969 113.527344 296.597656 113.664062 C 295.910156 114.761719 295.15625 115.863281 294.398438 116.960938 C 292.546875 119.640625 291.378906 122.386719 290.898438 125.273438 C 290.761719 126.164062 290.761719 127.125 290.761719 128.085938 C 290.761719 128.429688 290.691406 128.429688 290.554688 128.15625 C 289.9375 126.851562 289.316406 125.546875 288.699219 124.171875 C 287.121094 120.601562 286.433594 115.929688 288.082031 112.359375 C 288.699219 111.054688 289.316406 109.679688 290.003906 108.238281 C 292.339844 103.292969 293.09375 97.113281 290.828125 92.03125 C 290.621094 91.550781 290.417969 91.550781 290.210938 92.03125 C 289.660156 93.265625 288.628906 94.367188 287.945312 95.601562 C 286.226562 98.625 285.335938 101.921875 285.402344 105.558594 C 285.472656 107.964844 285.539062 110.574219 285.746094 113.390625 C 285.953125 117.441406 286.707031 121.082031 288.355469 124.585938 C 289.25 126.300781 290.484375 128.226562 290.691406 130.148438 C 290.898438 131.589844 290.898438 132.894531 290.691406 134.132812 C 290.484375 135.160156 290.417969 136.125 290.347656 136.945312 C 290.347656 137.085938 290.277344 137.085938 290.210938 136.945312 C 287.464844 132.550781 284.304688 128.085938 281.558594 123.554688 C 281.214844 123.003906 281.144531 122.523438 281.214844 121.90625 C 282.242188 115.726562 281.625 109.679688 279.425781 103.84375 C 277.503906 98.828125 274.34375 94.570312 269.949219 91 C 269.8125 90.863281 269.605469 91 269.605469 91.136719 C 268.988281 98.488281 272.078125 104.1875 276.542969 109.75 C 277.710938 111.191406 279.152344 112.976562 279.703125 114.488281 C 280.390625 116.410156 280.25 118.746094 280.046875 120.808594 C 280.046875 120.875 279.910156 120.875 279.910156 120.808594 C 278.878906 118.882812 277.640625 116.894531 276.199219 114.832031 C 270.980469 107.347656 265.347656 100.132812 259.167969 93.472656 C 256.488281 90.589844 253.742188 87.910156 250.855469 85.503906 C 249.070312 83.996094 246.804688 82.347656 243.988281 80.492188 C 239.179688 77.402344 234.71875 74.792969 230.597656 72.730469 C 229.152344 72.042969 227.984375 71.152344 226.75 70.328125 C 221.734375 67.304688 216.378906 66.207031 210.746094 67.03125 C 210.542969 67.03125 210.472656 67.167969 210.679688 67.304688 C 213.5625 69.503906 216.792969 71.015625 220.429688 71.769531 C 221.667969 72.042969 223.179688 72.320312 224.894531 72.59375 C 227.917969 73.074219 230.734375 74.171875 233.410156 75.960938 C 236.433594 77.949219 239.320312 79.804688 241.996094 81.523438 C 244.261719 82.964844 245.910156 84.0625 247.078125 84.957031 C 252.503906 89.007812 257.175781 93.472656 261.433594 98.625 C 265.691406 103.773438 269.125 108.171875 271.734375 111.671875 C 273.316406 113.800781 275.03125 116.480469 276.957031 119.777344 C 276.957031 119.777344 276.957031 119.847656 276.957031 119.847656 L 276.886719 119.914062 C 274.277344 116.6875 271.941406 114.007812 269.949219 111.949219 C 264.660156 106.453125 256.144531 103.84375 249.003906 107.070312 C 248.863281 107.140625 248.796875 107.347656 248.933594 107.484375 C 252.78125 110.4375 256.96875 112.359375 261.503906 113.183594 C 263.632812 113.597656 265.691406 113.664062 267.820312 114.078125 C 271.390625 114.695312 273.863281 117.234375 276.472656 119.707031 C 276.75 119.984375 277.230469 120.1875 277.503906 120.671875 C 279.085938 123.28125 280.527344 125.957031 282.175781 128.5 C 284.304688 131.726562 286.363281 134.886719 288.425781 137.976562 C 288.972656 138.871094 290.140625 140.792969 291.789062 143.816406 C 292.890625 145.738281 293.714844 147.867188 294.675781 149.859375 C 294.878906 150.339844 295.222656 151.164062 295.566406 152.398438 L 295.5 152.398438 C 295.5 152.398438 295.429688 152.398438 295.429688 152.398438 C 294.949219 151.4375 294.46875 150.476562 293.988281 149.515625 C 291.035156 143.609375 286.707031 139.078125 280.457031 136.671875 C 278.878906 136.191406 277.09375 135.574219 275.511719 136.191406 C 275.238281 136.261719 274.964844 136.328125 274.6875 136.261719 C 273.726562 136.125 272.835938 135.984375 271.941406 135.847656 C 267.339844 135.230469 262.808594 136.398438 259.03125 139.007812 C 257.726562 139.902344 256.417969 140.863281 255.183594 141.824219 C 254.976562 141.960938 254.976562 142.097656 255.253906 142.167969 C 261.019531 144.089844 266.378906 143.265625 271.1875 139.625 C 271.871094 139.144531 272.558594 138.527344 273.246094 137.910156 C 273.382812 137.769531 273.660156 137.769531 273.796875 137.910156 C 276.269531 140.449219 278.464844 143.195312 281.488281 145.1875 C 283.34375 146.425781 285.058594 147.316406 286.640625 147.796875 C 289.730469 148.761719 292.683594 149.652344 294.742188 151.917969 C 295.363281 152.539062 295.773438 153.292969 296.046875 154.046875 C 297.078125 156.796875 297.765625 159.75 298.175781 162.910156 C 298.246094 163.527344 298.175781 163.527344 297.972656 162.976562 C 297.628906 161.945312 297.078125 160.917969 296.390625 159.957031 C 294.125 156.660156 290.898438 153.15625 287.394531 151.164062 C 285.675781 150.132812 283.960938 149.445312 282.242188 148.964844 C 279.152344 148.074219 275.375 148.210938 272.285156 149.378906 C 272.148438 149.445312 272.148438 149.515625 272.148438 149.652344 C 272.214844 149.722656 272.214844 149.789062 272.285156 149.859375 C 275.925781 153.84375 280.457031 156.039062 285.882812 156.519531 C 286.980469 156.589844 288.082031 156.726562 289.113281 156.796875 C 291.378906 157 293.164062 157.964844 294.539062 159.75 C 296.941406 162.910156 298.863281 167.027344 299.414062 171.082031 C 299.824219 173.964844 300.375 176.917969 300.992188 180.078125 C 300.992188 180.078125 301.335938 181.589844 302.023438 184.679688 C 302.847656 188.390625 303.398438 192.167969 303.535156 196.082031 C 303.535156 196.21875 303.535156 196.21875 303.398438 196.082031 C 301.542969 193.195312 298.65625 191.824219 295.636719 190.449219 C 291.101562 188.390625 287.1875 185.09375 284.304688 181.109375 C 282.175781 178.292969 280.25 175.476562 277.847656 172.867188 C 276.75 171.628906 275.992188 170.1875 275.03125 168.882812 C 271.597656 164.488281 267.203125 161.601562 261.707031 160.367188 C 261.503906 160.296875 261.363281 160.4375 261.433594 160.640625 C 262.53125 165.519531 266.308594 169.019531 270.980469 170.667969 C 272.902344 171.355469 274.757812 172.113281 276.269531 173.554688 C 277.917969 175.203125 279.359375 177.054688 280.59375 179.253906 C 280.664062 179.390625 280.664062 179.460938 280.527344 179.324219 C 278.742188 178.222656 277.09375 177.46875 275.308594 176.027344 C 271.597656 173.003906 266.378906 171.972656 261.363281 172.386719 C 259.097656 172.59375 256.96875 173.210938 255.113281 174.308594 C 255.046875 174.378906 255.046875 174.515625 255.113281 174.585938 C 259.167969 177.539062 263.425781 178.980469 267.957031 179.046875 C 269.605469 179.046875 271.1875 178.84375 272.765625 178.773438 C 275.03125 178.636719 276.613281 178.703125 277.4375 178.910156 C 278.464844 179.117188 279.566406 179.390625 280.734375 179.667969 C 280.871094 179.667969 280.9375 179.734375 281.007812 179.871094 C 282.3125 181.726562 283.480469 183.648438 284.992188 185.367188 C 288.628906 189.488281 293.027344 191.960938 298.109375 194.707031 C 301.199219 196.425781 302.847656 199.722656 302.984375 203.222656 C 303.054688 206.175781 303.257812 209.199219 303.601562 212.359375 C 303.742188 213.867188 303.878906 215.449219 303.878906 217.027344 C 303.945312 221.355469 303.464844 225.613281 302.640625 229.871094 C 302.09375 232.824219 301.75 234.746094 301.269531 237.21875 C 300.375 242.234375 300.03125 247.386719 300.304688 252.46875 C 300.511719 255.214844 300.925781 257.6875 301.679688 259.886719 C 302.433594 262.152344 303.257812 264.488281 304.015625 266.753906 C 307.792969 278.222656 304.359375 290.859375 296.183594 299.375 C 293.507812 302.125 290.621094 304.320312 287.53125 306.039062 C 287.050781 306.3125 286.5 306.449219 285.882812 306.449219 C 283.066406 306.382812 280.25 306.382812 277.4375 306.382812 C 268.371094 306.3125 259.304688 306.175781 250.238281 306.105469 C 249.828125 306.105469 249.34375 306.105469 248.933594 306.105469 C 248.863281 306.105469 248.863281 306.105469 248.863281 306.039062 C 248.863281 305.96875 248.863281 305.96875 248.933594 305.96875 C 249.757812 305.832031 250.582031 305.761719 251.335938 305.488281 C 257.929688 303.566406 269.332031 300.132812 269.949219 291.820312 C 270.15625 289.484375 269.742188 287.152344 268.78125 284.953125 C 266.515625 279.597656 261.226562 278.566406 256.144531 277.605469 C 250.445312 276.503906 244.742188 275.886719 239.042969 275.820312 C 236.363281 275.820312 233.6875 276.09375 231.007812 276.230469 C 230.9375 276.230469 230.871094 276.160156 230.9375 276.09375 L 232.382812 273.691406 C 232.792969 273.003906 233.207031 272.453125 233.6875 272.042969 C 233.894531 271.699219 234.167969 271.421875 234.441406 271.21875 C 234.648438 271.078125 234.992188 270.941406 235.472656 270.875 C 236.089844 270.734375 236.570312 270.597656 236.914062 270.324219 C 237.394531 269.636719 238.152344 268.675781 239.179688 267.578125 C 239.730469 266.890625 239.800781 266.203125 239.386719 265.449219 C 238.90625 264.554688 238.082031 264.003906 236.984375 263.867188 C 234.992188 263.59375 233.480469 264.347656 231.832031 265.515625 C 231.007812 266.066406 230.046875 265.859375 229.085938 265.859375 C 226.40625 265.792969 224.691406 267.097656 222.835938 268.949219 C 222.21875 269.570312 221.324219 269.980469 220.085938 270.324219 C 218.300781 270.804688 216.515625 271.285156 214.800781 271.699219 C 214.664062 271.699219 214.523438 271.628906 214.523438 271.492188 C 214.320312 270.667969 214.042969 269.773438 213.632812 268.8125 C 211.984375 264.828125 209.785156 260.847656 207.105469 256.792969 C 205.460938 254.320312 203.8125 251.644531 203.054688 248.691406 C 202.09375 245.1875 202.503906 240.996094 203.742188 237.496094 C 204.636719 234.886719 205.320312 232.6875 205.871094 230.765625 C 206.214844 229.527344 206.28125 228.222656 206.488281 226.988281 C 206.558594 226.574219 206.695312 226.164062 206.96875 225.820312 C 207.519531 225.0625 208.070312 224.378906 208.617188 223.621094 C 209.167969 222.867188 209.578125 222.042969 210.0625 221.21875 C 212.050781 217.648438 211.984375 214.28125 211.640625 210.089844 C 211.433594 207.824219 211.847656 205.902344 212.601562 203.910156 C 213.769531 200.886719 215.625 196.972656 218.234375 192.167969 C 219.949219 188.9375 221.1875 185.09375 221.941406 181.109375 C 222.628906 177.742188 223.316406 174.308594 224.277344 171.082031 C 224.894531 168.882812 225.652344 166.546875 226.0625 164.351562 C 226.886719 160.503906 227.503906 156.660156 227.917969 152.8125 C 228.125 150.476562 228.328125 148.140625 228.328125 145.808594 C 228.398438 142.921875 228.46875 139.96875 228.535156 137.085938 C 228.605469 133.71875 228.878906 130.214844 229.152344 126.851562 C 229.222656 126.234375 229.015625 125.753906 228.605469 125.339844 C 222.285156 118.953125 216.171875 113.183594 209.304688 108.238281 C 204.773438 105.011719 200.171875 101.921875 195.707031 98.625 C 193.988281 97.386719 192.066406 95.671875 191.171875 93.816406 C 190.691406 92.785156 190.28125 91.480469 190.007812 89.96875 C 189.457031 87.359375 188.90625 84.75 188.21875 82.140625 C 187.464844 79.050781 186.777344 75.960938 186.160156 72.800781 C 185.886719 71.496094 185.746094 70.394531 185.746094 69.503906 C 185.746094 68.609375 186.160156 65.039062 184.582031 64.902344 C 183.824219 64.832031 183.550781 66.136719 183.480469 66.6875 C 183.480469 66.894531 183.414062 66.894531 183.34375 66.6875 C 183.070312 65.933594 182.933594 64.421875 181.765625 64.96875 C 181.214844 65.65625 180.941406 66.480469 180.941406 67.375 C 181.007812 69.160156 180.941406 70.671875 180.664062 71.976562 C 179.839844 75.960938 178.949219 79.941406 177.917969 83.859375 C 177.4375 85.917969 176.886719 88.117188 176.339844 90.589844 C 175.925781 92.578125 175.171875 94.570312 173.730469 95.808594 C 172.492188 96.90625 171.324219 97.867188 170.089844 98.761719 C 166.792969 101.097656 163.5625 103.292969 160.472656 105.285156 C 151.886719 110.917969 143.648438 117.511719 135.816406 125.132812 C 135.472656 125.410156 135.335938 125.753906 135.335938 126.097656 C 135.335938 127.675781 135.40625 129.460938 135.609375 131.523438 C 135.886719 134.0625 135.953125 138.390625 135.886719 144.503906 C 136.09375 153.085938 137.328125 161.398438 139.730469 169.5 C 140.351562 171.5625 140.832031 173.347656 141.105469 174.722656 C 141.519531 176.4375 141.859375 178.15625 142.203125 179.941406 C 142.890625 183.71875 144.058594 187.976562 145.84375 191.546875 C 148.316406 196.355469 150.789062 201.09375 152.230469 206.246094 C 152.507812 207.136719 152.4375 208.101562 152.371094 208.992188 C 152.300781 210.296875 152.230469 211.601562 152.09375 212.90625 C 151.820312 218.058594 154.085938 221.835938 157.109375 225.75 C 157.453125 226.230469 157.65625 226.851562 157.65625 227.398438 C 157.726562 229.460938 158.070312 231.453125 158.757812 233.375 C 160.542969 238.386719 162.398438 243.402344 161.230469 248.828125 C 160.679688 251.367188 159.992188 253.496094 159.167969 255.144531 C 157.796875 257.894531 156.421875 260.570312 155.183594 263.25 C 154.292969 265.105469 153.125 267.921875 151.75 271.699219 C 151.75 271.765625 151.683594 271.835938 151.546875 271.765625 C 149.414062 271.148438 147.628906 270.1875 146.257812 268.882812 C 144.402344 267.097656 142.753906 266.820312 140.351562 267.097656 C 140.210938 267.097656 140.144531 267.097656 140.007812 267.027344 C 137.191406 265.105469 134.582031 263.800781 131.285156 265.515625 C 130.046875 266.203125 129.363281 267.714844 130.117188 269.019531 C 130.390625 269.5 130.871094 269.980469 131.558594 270.460938 L 132.246094 270.667969 C 132.65625 270.667969 132.863281 270.734375 132.863281 271.011719 C 132.933594 271.699219 133.140625 272.246094 133.757812 272.589844 C 134.855469 273.207031 135.472656 274.582031 136.023438 275.75 C 136.09375 275.886719 136.023438 275.957031 135.886719 275.886719 C 131.007812 275.0625 126.066406 274.375 121.121094 274.101562 C 116.65625 273.828125 112.191406 274.101562 107.863281 274.996094 L 102.714844 276.574219 C 100.515625 277.398438 97.835938 278.773438 96.667969 280.695312 C 96.394531 281.105469 96.1875 281.65625 95.984375 282.207031 C 94.953125 285.160156 95.089844 288.113281 96.257812 291.066406 C 99.417969 296.972656 105.53125 300.199219 111.640625 302.191406 C 114.390625 303.085938 117.136719 303.910156 119.953125 304.734375 C 121.257812 305.144531 122.492188 305.417969 123.796875 305.625 C 124.210938 305.695312 124.210938 305.761719 123.796875 305.832031 C 123.316406 305.902344 122.835938 305.902344 122.355469 305.902344 C 113.359375 305.96875 104.363281 306.039062 95.433594 306.105469 C 90.761719 306.105469 86.160156 306.175781 81.492188 306.3125 C 70.226562 306.585938 58.550781 306.863281 46.53125 307.136719 C 40.214844 307.273438 35.820312 307.34375 33.414062 307.34375 L 33.414062 307.6875 C 36.574219 307.960938 40.765625 308.03125 42.894531 308.097656 C 59.996094 308.855469 76.476562 309.402344 92.480469 309.679688 C 106.492188 309.953125 119.195312 310.226562 133 310.363281 C 135.0625 310.363281 137.121094 310.363281 139.113281 310.433594 C 190.898438 310.570312 224.828125 310.503906 240.828125 310.433594 C 258.066406 310.296875 275.238281 309.953125 292.40625 309.472656 C 298.316406 309.265625 304.566406 309.058594 311.019531 308.714844 C 314.796875 308.511719 318.507812 308.371094 322.285156 308.234375 C 324.34375 308.167969 326.40625 308.097656 328.398438 308.03125 C 332.722656 307.890625 337.050781 307.6875 341.308594 307.410156 C 341.582031 307.410156 341.582031 307.410156 341.308594 307.410156 Z M 200.582031 182.6875 C 199.828125 183.304688 198.867188 183.445312 197.835938 183.101562 C 192.136719 181.382812 190.074219 174.925781 190.488281 169.707031 C 190.488281 169.5 190.554688 169.296875 190.761719 169.160156 C 191.3125 168.609375 191.929688 168.058594 192.410156 167.441406 C 193.371094 166.136719 194.058594 164.625 194.402344 162.910156 C 194.609375 162.015625 194.746094 161.121094 194.949219 160.296875 C 194.949219 160.160156 195.019531 160.09375 195.15625 160.09375 C 196.050781 159.816406 196.875 159.886719 197.421875 159.0625 C 197.492188 158.992188 197.5625 158.992188 197.628906 159.0625 C 198.042969 159.75 198.867188 161.191406 198.386719 161.878906 C 197.972656 162.496094 196.875 162.703125 196.257812 163.113281 C 194.949219 164.074219 194.539062 165.3125 194.949219 166.960938 C 195.570312 169.296875 197.699219 170.601562 198.316406 172.9375 C 198.589844 174.101562 198.523438 175.269531 197.972656 176.4375 C 197.972656 176.4375 197.972656 176.507812 197.972656 176.507812 C 197.972656 176.507812 197.972656 176.507812 198.042969 176.507812 C 199.210938 174.515625 198.867188 172.523438 197.765625 170.601562 C 196.941406 169.226562 195.292969 167.714844 195.570312 166 L 196.117188 164.832031 C 196.941406 164.417969 197.765625 163.9375 198.726562 163.527344 C 200.445312 162.769531 200.308594 161.054688 199.414062 159.679688 C 198.726562 158.582031 197.765625 157.414062 198.246094 156.039062 C 198.796875 154.460938 199.210938 152.8125 199.210938 151.164062 C 199.210938 151.027344 199.210938 150.957031 199.140625 150.820312 L 198.726562 150.132812 C 198.660156 150.066406 198.660156 149.929688 198.726562 149.859375 C 199.277344 149.171875 199.828125 148.554688 200.375 147.867188 C 201.613281 146.492188 202.230469 144.296875 202.574219 142.441406 C 203.054688 137.566406 200.652344 134.335938 196.875 131.660156 C 196.597656 131.453125 196.597656 131.523438 196.804688 131.726562 C 197.492188 132.484375 198.246094 133.238281 199.003906 134.0625 C 201.613281 136.808594 202.644531 140.3125 201.683594 143.953125 C 201.339844 145.328125 200.859375 146.835938 199.894531 147.867188 C 199.757812 148.003906 199.691406 148.003906 199.757812 147.796875 C 200.308594 146.425781 200.652344 145.1875 200.71875 143.746094 C 200.859375 139.625 199.757812 135.640625 197.082031 132.621094 C 196.257812 131.660156 195.226562 131.039062 194.539062 129.941406 C 194.46875 129.875 194.46875 129.734375 194.539062 129.667969 C 194.882812 129.050781 195.226562 128.5 195.636719 128.085938 C 196.738281 126.851562 196.050781 125.132812 194.8125 124.242188 C 194.125 123.691406 193.300781 123.625 192.273438 123.898438 C 192.136719 123.964844 192.136719 123.898438 192.203125 123.761719 C 192.339844 123.484375 192.546875 123.347656 192.683594 123.074219 C 193.988281 120.328125 192.683594 117.375 189.867188 116.207031 C 189.320312 116 188.769531 115.65625 188.289062 115.246094 C 186.160156 113.527344 184.238281 113.871094 181.765625 114.695312 C 181.628906 114.761719 181.488281 114.761719 181.351562 114.695312 C 179.015625 113.457031 176.613281 113.253906 174.210938 114.421875 C 171.394531 115.726562 168.714844 118.609375 169.195312 121.976562 C 169.332031 122.660156 169.46875 123.484375 169.675781 124.242188 C 169.746094 124.378906 169.609375 124.515625 169.46875 124.585938 C 167.824219 125.132812 166.65625 126.507812 166.792969 128.292969 C 166.929688 130.011719 168.441406 131.316406 170.15625 131.453125 C 170.292969 131.453125 170.363281 131.660156 170.292969 131.796875 L 165.691406 136.261719 C 164.800781 137.566406 164.25 138.800781 164.046875 140.039062 C 163.839844 141.207031 163.90625 142.578125 164.183594 144.089844 C 164.527344 146.152344 165.488281 147.867188 167 149.378906 C 167.136719 149.515625 167.136719 149.722656 167.066406 149.859375 C 166.035156 151.234375 167 154.046875 167.410156 155.628906 C 167.546875 155.972656 167.480469 156.316406 167.339844 156.660156 C 166.929688 157.6875 166.378906 158.789062 166.242188 159.886719 C 166.035156 162.222656 167.273438 163.59375 168.507812 165.378906 C 169.8125 167.234375 168.097656 167.992188 166.929688 168.953125 C 165.210938 170.464844 165.832031 172.660156 167.339844 174.035156 C 167.410156 174.101562 167.480469 174.242188 167.546875 174.308594 L 167.683594 174.515625 C 167.753906 174.652344 167.824219 174.652344 167.824219 174.515625 C 167.824219 174.445312 167.824219 174.378906 167.753906 174.242188 C 166.65625 172.867188 165.554688 171.148438 167.273438 169.640625 C 168.851562 168.265625 170.363281 167.234375 169.128906 164.761719 C 168.714844 163.9375 168.304688 163.113281 167.890625 162.359375 C 167.480469 161.464844 167.410156 160.367188 167.683594 158.992188 L 167.753906 158.992188 C 167.824219 158.992188 167.824219 159.0625 167.824219 159.132812 C 167.683594 161.191406 168.648438 162.359375 169.609375 164.007812 C 169.609375 164.007812 169.675781 164.007812 169.675781 163.9375 C 169.128906 162.359375 168.304688 161.121094 168.441406 159.40625 C 168.441406 159.269531 168.507812 159.269531 168.648438 159.269531 C 169.539062 159.40625 170.363281 159.613281 170.570312 160.640625 C 171.1875 164.074219 172.21875 166.824219 174.964844 168.953125 C 175.101562 169.089844 175.238281 169.296875 175.238281 169.5 C 175.378906 171.011719 175.378906 172.523438 175.171875 174.035156 C 174.757812 178.085938 171.875 181.519531 168.097656 182.757812 C 166.035156 183.375 164.457031 182.757812 163.496094 180.832031 C 162.257812 178.5 161.089844 176.507812 159.992188 174.925781 C 158.480469 172.796875 156.765625 170.804688 155.527344 168.539062 C 154.15625 165.929688 153.398438 163.183594 153.125 160.230469 C 152.917969 157.894531 152.710938 155.558594 152.4375 153.222656 C 152.300781 151.714844 151.820312 149.105469 150.925781 145.328125 C 150.308594 142.714844 149.691406 140.105469 149.003906 137.496094 C 148.59375 135.917969 148.179688 134.199219 148.660156 132.6875 C 148.933594 131.796875 149.347656 130.902344 149.964844 129.941406 C 150.925781 128.5 152.09375 126.851562 153.535156 125.132812 C 158.070312 119.570312 162.535156 114.695312 166.792969 110.367188 C 169.332031 107.828125 172.011719 105.21875 174.828125 102.539062 C 176.132812 101.300781 177.710938 100.066406 179.636719 98.828125 C 180.941406 98.003906 181.96875 96.699219 182.589844 94.914062 C 182.65625 94.777344 182.65625 94.777344 182.726562 94.914062 C 183.757812 97.800781 185.746094 99.035156 188.015625 100.753906 C 189.523438 101.921875 191.449219 103.773438 193.851562 106.246094 C 197.902344 110.644531 200.925781 113.9375 202.847656 116.273438 C 206.144531 120.394531 209.785156 124.722656 213.015625 129.1875 C 213.769531 130.214844 214.386719 131.316406 214.800781 132.34375 C 215.554688 134.132812 215.28125 135.917969 214.730469 137.703125 C 213.5625 141.824219 212.601562 146.011719 211.847656 150.339844 C 211.367188 152.949219 211.089844 155.421875 211.023438 158.238281 C 210.886719 161.945312 210.402344 165.792969 208.824219 169.089844 C 207.589844 171.699219 205.253906 174.101562 203.949219 176.644531 C 203.261719 178.019531 202.644531 179.253906 202.023438 180.558594 C 201.75 181.519531 201.199219 182.140625 200.582031 182.6875 Z M 200.582031 182.6875 " fill-opacity="1" fill-rule="nonzero"/></g></svg>