<svg xmlns="http://www.w3.org/2000/svg" xmlns:xlink="http://www.w3.org/1999/xlink" width="500" zoomAndPan="magnify" viewBox="0 0 375 374.999991" height="500" preserveAspectRatio="xMidYMid meet" version="1.0"><defs><clipPath id="008a626703"><path d="M 187.5 0 C 83.945312 0 0 83.945312 0 187.5 C 0 291.054688 83.945312 375 187.5 375 C 291.054688 375 375 291.054688 375 187.5 C 375 83.945312 291.054688 0 187.5 0 Z M 187.5 0 " clip-rule="nonzero"/></clipPath><clipPath id="39b7e7a553"><path d="M 0 0 L 375 0 L 375 375 L 0 375 Z M 0 0 " clip-rule="nonzero"/></clipPath><clipPath id="da0e781d9a"><path d="M 187.5 0 C 83.945312 0 0 83.945312 0 187.5 C 0 291.054688 83.945312 375 187.5 375 C 291.054688 375 375 291.054688 375 187.5 C 375 83.945312 291.054688 0 187.5 0 Z M 187.5 0 " clip-rule="nonzero"/></clipPath><clipPath id="b2cc45e151"><rect x="0" width="375" y="0" height="375"/></clipPath><clipPath id="369f1117af"><path d="M 206 264 L 263 264 L 263 303.152344 L 206 303.152344 Z M 206 264 " clip-rule="nonzero"/></clipPath><clipPath id="b63e134d28"><path d="M 112 264 L 169 264 L 169 303.152344 L 112 303.152344 Z M 112 264 " clip-rule="nonzero"/></clipPath><clipPath id="f1c97766c2"><path d="M 240 232 L 301.742188 232 L 301.742188 268 L 240 268 Z M 240 232 " clip-rule="nonzero"/></clipPath><clipPath id="7a92ef1ad5"><path d="M 125 72.152344 L 250 72.152344 L 250 268 L 125 268 Z M 125 72.152344 " clip-rule="nonzero"/></clipPath></defs><rect x="-37.5" width="450" fill="#ffffff" y="-37.499999" height="449.999989" fill-opacity="1"/><rect x="-37.5" width="450" fill="#1c1e1a" y="-37.499999" height="449.999989" fill-opacity="1"/><g clip-path="url(#008a626703)"><g transform="matrix(1, 0, 0, 1, 0, 0)"><g clip-path="url(#b2cc45e151)"><g clip-path="url(#39b7e7a553)"><g clip-path="url(#da0e781d9a)"><rect x="-82.5" width="540" fill="#2a2d24" height="539.999987" y="-82.499998" fill-opacity="1"/></g></g></g></g></g><g clip-path="url(#369f1117af)"><path fill="#36a9e1" d="M 206.296875 303.207031 C 214.609375 296.632812 224.125 295.464844 229.09375 295.585938 C 238.625 295.816406 249.429688 298.21875 256.648438 292.382812 C 261.753906 288.257812 263.714844 281.960938 260.597656 275.859375 C 259.722656 274.148438 258.648438 272.53125 257.359375 271.105469 C 248.460938 261.246094 232.542969 263.125 223.609375 271.414062 C 212.765625 281.46875 209.488281 295.847656 206.296875 303.207031 Z M 206.296875 303.207031 " fill-opacity="1" fill-rule="nonzero"/></g><g clip-path="url(#b63e134d28)"><path fill="#36a9e1" d="M 151.21875 271.414062 C 142.28125 263.128906 126.363281 261.246094 117.464844 271.105469 C 116.179688 272.535156 115.101562 274.148438 114.226562 275.859375 C 111.109375 281.960938 113.070312 288.257812 118.175781 292.382812 C 125.394531 298.222656 136.199219 295.816406 145.730469 295.585938 C 150.699219 295.464844 160.21875 296.632812 168.527344 303.207031 C 165.335938 295.847656 162.0625 281.46875 151.21875 271.414062 Z M 151.21875 271.414062 " fill-opacity="1" fill-rule="nonzero"/></g><g clip-path="url(#f1c97766c2)"><path fill="#36a9e1" d="M 240.800781 254.441406 C 251.160156 252.253906 260.203125 255.445312 264.601562 257.769531 C 273.039062 262.222656 281.652344 269.1875 290.707031 267.175781 C 297.105469 265.753906 301.65625 260.984375 301.566406 254.128906 C 301.542969 252.207031 301.292969 250.28125 300.773438 248.429688 C 297.171875 235.628906 282.078125 230.226562 270.398438 233.667969 C 256.230469 237.847656 246.925781 249.273438 240.800781 254.441406 Z M 240.800781 254.441406 " fill-opacity="1" fill-rule="nonzero"/></g><path fill="#36a9e1" d="M 104.425781 233.667969 C 92.746094 230.226562 77.65625 235.628906 74.054688 248.429688 C 73.53125 250.28125 73.285156 252.207031 73.257812 254.128906 C 73.167969 260.984375 77.71875 265.753906 84.117188 267.175781 C 93.171875 269.1875 101.785156 262.222656 110.222656 257.769531 C 114.621094 255.445312 123.664062 252.253906 134.023438 254.441406 C 127.902344 249.273438 118.59375 237.847656 104.425781 233.667969 Z M 104.425781 233.667969 " fill-opacity="1" fill-rule="nonzero"/><g clip-path="url(#7a92ef1ad5)"><path fill="#36a9e1" d="M 196.222656 87.820312 C 188.484375 100.324219 172.59375 127.3125 158.917969 158.886719 C 158.1875 160.574219 156.542969 161.582031 154.820312 161.582031 C 154.226562 161.582031 153.621094 161.460938 153.042969 161.207031 C 150.78125 160.222656 149.746094 157.585938 150.726562 155.320312 C 166.378906 119.199219 184.894531 88.941406 191.246094 78.933594 C 188.835938 74.664062 187.410156 72.191406 187.410156 72.191406 C 187.410156 72.191406 125.289062 170.808594 125.289062 205.207031 C 125.289062 239.601562 153.101562 267.484375 187.410156 267.484375 C 221.722656 267.484375 249.535156 239.601562 249.535156 205.207031 C 249.535156 185.996094 213.363281 118.652344 196.222656 87.820312 Z M 147.914062 191.65625 C 142 191.65625 137.203125 186.847656 137.203125 180.914062 C 137.203125 174.984375 142 170.175781 147.914062 170.175781 C 153.832031 170.175781 158.628906 174.984375 158.628906 180.914062 C 158.628906 186.847656 153.832031 191.65625 147.914062 191.65625 Z M 147.914062 191.65625 " fill-opacity="1" fill-rule="nonzero"/></g></svg>