<svg xmlns="http://www.w3.org/2000/svg" xmlns:xlink="http://www.w3.org/1999/xlink" width="500" zoomAndPan="magnify" viewBox="0 0 375 374.999991" height="500" preserveAspectRatio="xMidYMid meet" version="1.2"><defs><clipPath id="66c896f0ec"><path d="M 187.5 0 C 83.945312 0 0 83.945312 0 187.5 C 0 291.054688 83.945312 375 187.5 375 C 291.054688 375 375 291.054688 375 187.5 C 375 83.945312 291.054688 0 187.5 0 Z M 187.5 0 "/></clipPath><clipPath id="d65141f32a"><path d="M 174 70.324219 L 197 70.324219 L 197 105 L 174 105 Z M 174 70.324219 "/></clipPath><clipPath id="16b705729d"><path d="M 67.320312 124 L 307.320312 124 L 307.320312 304.324219 L 67.320312 304.324219 Z M 67.320312 124 "/></clipPath></defs><g id="0ae1350202"><rect x="0" width="375" y="0" height="374.999991" style="fill:#ffffff;fill-opacity:1;stroke:none;"/><rect x="0" width="375" y="0" height="374.999991" style="fill:#ffffff;fill-opacity:1;stroke:none;"/><g clip-rule="nonzero" clip-path="url(#66c896f0ec)"><rect x="0" width="375" y="0" height="374.999991" style="fill:#e3f5bc;fill-opacity:1;stroke:none;"/></g><g clip-rule="nonzero" clip-path="url(#d65141f32a)"><path style=" stroke:none;fill-rule:nonzero;fill:#00bf63;fill-opacity:1;" d="M 182.484375 76.292969 C 181.5625 76.292969 180.980469 76.796875 180.71875 77.09375 C 180.460938 77.398438 180.042969 78.039062 180.167969 78.957031 L 182.246094 97.15625 C 182.394531 98.226562 183.390625 99.089844 184.542969 99.089844 L 186.285156 99.089844 C 187.4375 99.089844 188.4375 98.226562 188.59375 97.082031 L 190.644531 79.03125 C 190.785156 78.039062 190.371094 77.398438 190.109375 77.09375 C 189.847656 76.796875 189.269531 76.292969 188.347656 76.292969 Z M 186.285156 104.804688 L 184.542969 104.804688 C 180.5625 104.804688 177.132812 101.828125 176.574219 97.882812 L 174.507812 79.675781 C 174.1875 77.445312 174.878906 75.109375 176.410156 73.351562 C 177.9375 71.589844 180.15625 70.578125 182.484375 70.578125 L 188.347656 70.578125 C 190.675781 70.578125 192.894531 71.589844 194.417969 73.351562 C 195.949219 75.109375 196.644531 77.445312 196.316406 79.75 L 194.261719 97.800781 C 193.695312 101.828125 190.265625 104.804688 186.285156 104.804688 "/></g><path style=" stroke:none;fill-rule:nonzero;fill:#00bf63;fill-opacity:1;" d="M 137.921875 92.46875 C 137.566406 92.46875 137.125 92.550781 136.6875 92.832031 L 131.730469 95.964844 C 130.949219 96.457031 130.734375 97.191406 130.675781 97.585938 C 130.617188 97.972656 130.601562 98.738281 131.203125 99.445312 L 142.691406 113.726562 C 143.382812 114.542969 144.679688 114.738281 145.667969 114.125 L 147.132812 113.195312 C 147.132812 113.195312 147.132812 113.1875 147.132812 113.1875 C 148.109375 112.570312 148.488281 111.3125 148.011719 110.265625 L 140.09375 93.910156 C 139.679688 92.996094 138.988281 92.675781 138.605469 92.5625 C 138.441406 92.511719 138.207031 92.46875 137.921875 92.46875 Z M 144.433594 120.191406 C 142.132812 120.191406 139.855469 119.207031 138.285156 117.363281 L 126.800781 103.09375 C 125.339844 101.375 124.671875 99.03125 125.019531 96.722656 C 125.378906 94.417969 126.710938 92.386719 128.679688 91.136719 L 133.636719 87.996094 C 135.601562 86.753906 138.011719 86.425781 140.242188 87.09375 C 142.484375 87.757812 144.304688 89.363281 145.265625 91.484375 L 153.191406 107.839844 C 154.863281 111.542969 153.554688 115.890625 150.191406 118.019531 L 148.71875 118.949219 C 147.402344 119.789062 145.914062 120.191406 144.433594 120.191406 "/><path style=" stroke:none;fill-rule:nonzero;fill:#00bf63;fill-opacity:1;" d="M 232.90625 92.46875 C 232.625 92.46875 232.386719 92.511719 232.222656 92.5625 C 231.84375 92.675781 231.152344 92.996094 230.765625 93.84375 L 222.78125 110.332031 C 222.34375 111.3125 222.722656 112.570312 223.695312 113.1875 C 223.695312 113.1875 223.695312 113.195312 223.695312 113.195312 L 225.167969 114.125 C 226.144531 114.742188 227.445312 114.542969 228.191406 113.664062 L 239.574219 99.507812 C 240.230469 98.738281 240.214844 97.972656 240.15625 97.585938 C 240.09375 97.191406 239.878906 96.457031 239.097656 95.964844 L 234.144531 92.832031 C 233.703125 92.550781 233.265625 92.46875 232.90625 92.46875 Z M 226.382812 120.183594 C 224.902344 120.183594 223.421875 119.78125 222.113281 118.957031 L 220.636719 118.019531 C 217.273438 115.890625 215.964844 111.542969 217.609375 107.90625 L 225.59375 91.417969 C 226.523438 89.363281 228.347656 87.757812 230.585938 87.09375 C 232.824219 86.425781 235.230469 86.753906 237.191406 87.996094 L 242.148438 91.136719 C 244.121094 92.386719 245.453125 94.417969 245.808594 96.722656 C 246.160156 99.03125 245.488281 101.375 243.980469 103.144531 L 232.59375 117.304688 C 230.988281 119.195312 228.6875 120.183594 226.382812 120.183594 "/><g clip-rule="nonzero" clip-path="url(#16b705729d)"><path style=" stroke:none;fill-rule:nonzero;fill:#00bf63;fill-opacity:1;" d="M 301.605469 171.878906 C 301.605469 175.519531 298.652344 178.472656 295.011719 178.472656 L 292.199219 178.472656 L 292.199219 162.414062 L 295.011719 162.414062 C 298.652344 162.414062 301.605469 165.367188 301.605469 169 Z M 286.488281 183.621094 C 286.488281 189.207031 282.550781 193.886719 277.3125 195.050781 C 277.328125 194.714844 277.355469 194.378906 277.355469 194.042969 L 277.355469 146.84375 C 277.355469 146.5 277.328125 146.171875 277.3125 145.832031 C 282.550781 146.992188 286.488281 151.671875 286.488281 157.257812 Z M 271.644531 194.042969 C 271.644531 203.308594 264.105469 210.84375 254.847656 210.84375 C 245.585938 210.84375 238.050781 203.308594 238.050781 194.042969 L 238.050781 146.84375 C 238.050781 137.578125 245.585938 130.042969 254.847656 130.042969 C 264.105469 130.042969 271.644531 137.578125 271.644531 146.84375 Z M 232.335938 185.992188 C 231.492188 184.253906 230.554688 182.554688 229.417969 180.949219 C 229.1875 180.605469 226.648438 176.78125 223.464844 172.148438 C 223.925781 170.914062 224.203125 169.585938 224.203125 168.195312 L 224.203125 155.125 L 232.335938 155.125 Z M 229.359375 206.648438 C 227.796875 213.367188 224.753906 220.011719 220.207031 226.542969 C 214.210938 235.144531 210.914062 239.878906 210.914062 251.015625 L 210.914062 295.457031 C 210.914062 297.125 209.550781 298.480469 207.894531 298.480469 L 162.058594 298.480469 C 160.394531 298.480469 159.039062 297.125 159.039062 295.457031 L 159.039062 253.777344 C 159.039062 243.820312 156.253906 233.515625 153.316406 222.601562 C 150.5625 212.40625 147.78125 201.902344 147.328125 191.53125 L 194.542969 191.53125 C 184.582031 194.789062 178.800781 204.820312 176.8125 210.988281 C 176.332031 212.488281 177.15625 214.097656 178.667969 214.582031 C 180.167969 215.0625 181.777344 214.238281 182.261719 212.734375 C 184.121094 206.945312 189.960938 196.953125 200.027344 196.226562 C 202.574219 196.039062 204.863281 194.59375 206.152344 192.378906 C 207.453125 190.117188 207.566406 187.363281 206.433594 185.019531 C 203.265625 178.457031 200.4375 173.449219 198.003906 170.136719 C 195.957031 167.339844 194.648438 162.988281 197.722656 159.921875 C 199.15625 158.480469 201.195312 157.675781 203.234375 157.757812 C 204.929688 157.832031 206.425781 158.53125 207.445312 159.738281 C 212.140625 165.316406 224.535156 183.925781 224.707031 184.179688 C 229.425781 190.882812 231.121094 199.074219 229.359375 206.648438 Z M 144.304688 191.539062 C 144.285156 191.539062 144.269531 191.53125 144.246094 191.53125 L 144.359375 191.53125 C 144.335938 191.53125 144.320312 191.539062 144.304688 191.539062 Z M 142.304688 155.125 L 150.117188 155.125 L 150.117188 171.089844 C 150.117188 177.378906 155.238281 182.488281 161.523438 182.488281 C 165.175781 182.488281 168.429688 180.757812 170.511719 178.078125 C 172.585938 180.167969 175.453125 181.460938 178.613281 181.460938 C 182.492188 181.460938 185.914062 179.511719 187.972656 176.550781 C 190.011719 178.433594 192.722656 179.601562 195.707031 179.601562 C 196.195312 179.601562 196.671875 179.566406 197.148438 179.5 C 198.199219 181.367188 199.304688 183.492188 200.460938 185.816406 L 142.304688 185.816406 Z M 155.832031 150.605469 C 155.832031 147.46875 158.382812 144.914062 161.523438 144.914062 C 164.65625 144.914062 167.214844 147.46875 167.214844 150.605469 L 167.214844 171.089844 C 167.214844 174.222656 164.65625 176.773438 161.523438 176.773438 C 158.382812 176.773438 155.832031 174.222656 155.832031 171.089844 Z M 172.929688 143.792969 C 172.929688 140.660156 175.472656 138.105469 178.613281 138.105469 C 181.753906 138.105469 184.304688 140.660156 184.304688 143.792969 L 184.304688 170.054688 C 184.304688 173.195312 181.753906 175.75 178.613281 175.75 C 175.472656 175.75 172.929688 173.195312 172.929688 170.054688 Z M 190.019531 140.90625 C 190.019531 137.765625 192.574219 135.210938 195.707031 135.210938 C 198.84375 135.210938 201.398438 137.765625 201.398438 140.90625 L 201.398438 152.140625 C 198.488281 152.480469 195.773438 153.785156 193.679688 155.882812 C 189.171875 160.390625 189.03125 167.371094 193.273438 173.316406 C 191.351562 172.398438 190.019531 170.457031 190.019531 168.195312 Z M 207.113281 141.929688 C 207.113281 138.800781 209.664062 136.246094 212.804688 136.246094 C 215.9375 136.246094 218.488281 138.800781 218.488281 141.929688 L 218.488281 164.996094 C 215.921875 161.367188 213.457031 158.011719 211.8125 156.054688 C 210.550781 154.550781 208.933594 153.441406 207.113281 152.773438 Z M 136.589844 194.042969 C 136.589844 203.308594 129.054688 210.84375 119.789062 210.84375 C 110.527344 210.84375 102.988281 203.308594 102.988281 194.042969 L 102.988281 146.84375 C 102.988281 137.578125 110.527344 130.042969 119.789062 130.042969 C 129.054688 130.042969 136.589844 137.578125 136.589844 146.84375 Z M 88.152344 183.621094 L 88.152344 157.257812 C 88.152344 151.671875 92.089844 147.007812 97.328125 145.84375 C 97.3125 146.179688 97.273438 146.507812 97.273438 146.84375 L 97.273438 194.042969 C 97.273438 194.378906 97.3125 194.714844 97.328125 195.050781 C 92.089844 193.886719 88.152344 189.207031 88.152344 183.621094 Z M 82.4375 178.472656 L 79.617188 178.472656 C 75.988281 178.472656 73.035156 175.519531 73.035156 171.878906 L 73.035156 169 C 73.035156 165.367188 75.988281 162.414062 79.617188 162.414062 L 82.4375 162.414062 Z M 295.011719 156.699219 L 292.171875 156.699219 C 291.886719 147.847656 284.984375 140.652344 276.253906 139.90625 C 273.324219 130.882812 264.84375 124.328125 254.847656 124.328125 C 242.429688 124.328125 232.335938 134.425781 232.335938 146.84375 L 232.335938 149.410156 L 224.203125 149.410156 L 224.203125 141.929688 C 224.203125 135.644531 219.089844 130.53125 212.804688 130.53125 C 209.632812 130.53125 206.769531 131.828125 204.699219 133.917969 C 202.617188 131.238281 199.367188 129.5 195.707031 129.5 C 191.554688 129.5 187.929688 131.738281 185.9375 135.0625 C 183.949219 133.398438 181.398438 132.394531 178.613281 132.394531 C 173.308594 132.394531 168.84375 136.039062 167.585938 140.964844 C 165.824219 139.855469 163.75 139.199219 161.523438 139.199219 C 155.636719 139.199219 150.785156 143.679688 150.183594 149.410156 L 142.304688 149.410156 L 142.304688 146.84375 C 142.304688 134.425781 132.207031 124.328125 119.789062 124.328125 C 109.78125 124.328125 101.292969 130.890625 98.367188 139.9375 C 89.648438 140.6875 82.75 147.855469 82.46875 156.699219 L 79.617188 156.699219 C 72.839844 156.699219 67.320312 162.214844 67.320312 169 L 67.320312 171.878906 C 67.320312 178.664062 72.839844 184.1875 79.617188 184.1875 L 82.46875 184.1875 C 82.75 193.03125 89.648438 200.234375 98.382812 200.972656 C 101.316406 210.003906 109.796875 216.558594 119.789062 216.558594 C 131.105469 216.558594 140.46875 208.167969 142.042969 197.289062 C 143.0625 206.382812 145.4375 215.355469 147.796875 224.097656 C 150.636719 234.625 153.324219 244.574219 153.324219 253.777344 L 153.324219 295.457031 C 153.324219 300.273438 157.246094 304.195312 162.058594 304.195312 L 207.894531 304.195312 C 212.707031 304.195312 216.628906 300.273438 216.628906 295.457031 L 216.628906 251.015625 C 216.628906 241.679688 219.21875 237.957031 225 229.664062 C 229.855469 222.683594 233.199219 215.375 234.925781 207.945312 C 235.125 207.074219 235.257812 206.195312 235.386719 205.308594 C 239.285156 212.027344 246.539062 216.558594 254.847656 216.558594 C 264.84375 216.558594 273.324219 210.003906 276.253906 200.972656 C 284.984375 200.234375 291.886719 193.03125 292.171875 184.1875 L 295.011719 184.1875 C 301.800781 184.1875 307.320312 178.664062 307.320312 171.878906 L 307.320312 169 C 307.320312 162.214844 301.800781 156.699219 295.011719 156.699219 "/></g></g></svg>