<svg xmlns="http://www.w3.org/2000/svg" xmlns:xlink="http://www.w3.org/1999/xlink" width="500" zoomAndPan="magnify" viewBox="0 0 375 374.999991" height="500" preserveAspectRatio="xMidYMid meet" version="1.0"><defs><clipPath id="03aad1c525"><path d="M 187.5 0 C 83.945312 0 0 83.945312 0 187.5 C 0 291.054688 83.945312 375 187.5 375 C 291.054688 375 375 291.054688 375 187.5 C 375 83.945312 291.054688 0 187.5 0 Z M 187.5 0 " clip-rule="nonzero"/></clipPath><clipPath id="c2ea0ed582"><path d="M 0 0 L 375 0 L 375 375 L 0 375 Z M 0 0 " clip-rule="nonzero"/></clipPath><clipPath id="115fa5f905"><path d="M 187.5 0 C 83.945312 0 0 83.945312 0 187.5 C 0 291.054688 83.945312 375 187.5 375 C 291.054688 375 375 291.054688 375 187.5 C 375 83.945312 291.054688 0 187.5 0 Z M 187.5 0 " clip-rule="nonzero"/></clipPath><clipPath id="7badac35d6"><rect x="0" width="375" y="0" height="375"/></clipPath><clipPath id="07109dd86a"><path d="M 174 70.324219 L 197 70.324219 L 197 105 L 174 105 Z M 174 70.324219 " clip-rule="nonzero"/></clipPath><clipPath id="d8f04aad08"><path d="M 67.320312 124 L 307.320312 124 L 307.320312 304.324219 L 67.320312 304.324219 Z M 67.320312 124 " clip-rule="nonzero"/></clipPath></defs><rect x="-37.5" width="450" fill="#ffffff" y="-37.499999" height="449.999989" fill-opacity="1"/><rect x="-37.5" width="450" fill="#1c1e1a" y="-37.499999" height="449.999989" fill-opacity="1"/><g clip-path="url(#03aad1c525)"><g transform="matrix(1, 0, 0, 1, 0, 0)"><g clip-path="url(#7badac35d6)"><g clip-path="url(#c2ea0ed582)"><g clip-path="url(#115fa5f905)"><rect x="-82.5" width="540" fill="#2a2d24" height="539.999987" y="-82.499998" fill-opacity="1"/></g></g></g></g></g><g clip-path="url(#07109dd86a)"><path fill="#00bf63" d="M 182.652344 76.300781 C 181.726562 76.300781 181.148438 76.808594 180.886719 77.105469 C 180.625 77.410156 180.207031 78.050781 180.335938 78.96875 L 182.414062 97.195312 C 182.5625 98.265625 183.5625 99.132812 184.714844 99.132812 L 186.460938 99.132812 C 187.613281 99.132812 188.613281 98.265625 188.769531 97.121094 L 190.828125 79.042969 C 190.96875 78.050781 190.550781 77.410156 190.289062 77.105469 C 190.027344 76.808594 189.449219 76.300781 188.523438 76.300781 Z M 186.460938 104.855469 L 184.714844 104.855469 C 180.730469 104.855469 177.292969 101.875 176.734375 97.925781 L 174.664062 79.691406 C 174.34375 77.457031 175.035156 75.117188 176.570312 73.355469 C 178.097656 71.589844 180.320312 70.578125 182.652344 70.578125 L 188.523438 70.578125 C 190.855469 70.578125 193.078125 71.589844 194.605469 73.355469 C 196.140625 75.117188 196.832031 77.457031 196.503906 79.765625 L 194.449219 97.84375 C 193.882812 101.875 190.445312 104.855469 186.460938 104.855469 " fill-opacity="1" fill-rule="nonzero"/></g><path fill="#00bf63" d="M 138.027344 92.5 C 137.667969 92.5 137.230469 92.582031 136.789062 92.863281 L 131.828125 96 C 131.042969 96.492188 130.828125 97.230469 130.769531 97.625 C 130.707031 98.011719 130.695312 98.78125 131.296875 99.488281 L 142.800781 113.789062 C 143.496094 114.609375 144.792969 114.800781 145.78125 114.191406 L 147.25 113.257812 C 147.25 113.257812 147.25 113.25 147.25 113.25 C 148.226562 112.632812 148.605469 111.375 148.128906 110.324219 L 140.203125 93.945312 C 139.785156 93.027344 139.089844 92.707031 138.710938 92.597656 C 138.546875 92.542969 138.308594 92.5 138.027344 92.5 Z M 144.546875 120.261719 C 142.242188 120.261719 139.964844 119.28125 138.390625 117.433594 L 126.886719 103.140625 C 125.425781 101.417969 124.753906 99.070312 125.105469 96.761719 C 125.460938 94.453125 126.796875 92.417969 128.769531 91.164062 L 133.734375 88.019531 C 135.699219 86.777344 138.117188 86.449219 140.351562 87.121094 C 142.59375 87.78125 144.417969 89.390625 145.378906 91.515625 L 153.316406 107.894531 C 154.992188 111.605469 153.679688 115.957031 150.3125 118.085938 L 148.835938 119.019531 C 147.519531 119.859375 146.027344 120.261719 144.546875 120.261719 " fill-opacity="1" fill-rule="nonzero"/><path fill="#00bf63" d="M 233.148438 92.5 C 232.867188 92.5 232.628906 92.542969 232.464844 92.597656 C 232.085938 92.707031 231.390625 93.027344 231.003906 93.878906 L 223.007812 110.390625 C 222.570312 111.375 222.949219 112.632812 223.925781 113.25 C 223.925781 113.25 223.925781 113.257812 223.925781 113.257812 L 225.402344 114.191406 C 226.375 114.808594 227.679688 114.609375 228.425781 113.730469 L 239.828125 99.546875 C 240.480469 98.78125 240.46875 98.011719 240.40625 97.625 C 240.347656 97.230469 240.132812 96.492188 239.351562 96 L 234.386719 92.863281 C 233.949219 92.582031 233.507812 92.5 233.148438 92.5 Z M 226.617188 120.257812 C 225.132812 120.257812 223.648438 119.855469 222.339844 119.027344 L 220.863281 118.085938 C 217.496094 115.957031 216.183594 111.605469 217.832031 107.960938 L 225.824219 91.449219 C 226.757812 89.390625 228.582031 87.78125 230.824219 87.121094 C 233.066406 86.449219 235.476562 86.777344 237.441406 88.019531 L 242.40625 91.164062 C 244.378906 92.417969 245.714844 94.453125 246.070312 96.761719 C 246.421875 99.070312 245.75 101.417969 244.238281 103.191406 L 232.835938 117.371094 C 231.226562 119.265625 228.925781 120.257812 226.617188 120.257812 " fill-opacity="1" fill-rule="nonzero"/><g clip-path="url(#d8f04aad08)"><path fill="#00bf63" d="M 301.949219 172.027344 C 301.949219 175.671875 298.992188 178.628906 295.347656 178.628906 L 292.53125 178.628906 L 292.53125 162.550781 L 295.347656 162.550781 C 298.992188 162.550781 301.949219 165.507812 301.949219 169.144531 Z M 286.808594 183.785156 C 286.808594 189.382812 282.867188 194.070312 277.621094 195.230469 C 277.636719 194.894531 277.664062 194.5625 277.664062 194.226562 L 277.664062 146.953125 C 277.664062 146.613281 277.636719 146.285156 277.621094 145.941406 C 282.867188 147.101562 286.808594 151.789062 286.808594 157.386719 Z M 271.941406 194.226562 C 271.941406 203.503906 264.394531 211.050781 255.125 211.050781 C 245.847656 211.050781 238.300781 203.503906 238.300781 194.226562 L 238.300781 146.953125 C 238.300781 137.675781 245.847656 130.128906 255.125 130.128906 C 264.394531 130.128906 271.941406 137.675781 271.941406 146.953125 Z M 232.578125 186.164062 C 231.734375 184.417969 230.796875 182.722656 229.65625 181.113281 C 229.425781 180.769531 226.882812 176.9375 223.695312 172.296875 C 224.15625 171.058594 224.433594 169.734375 224.433594 168.339844 L 224.433594 155.246094 L 232.578125 155.246094 Z M 229.597656 206.847656 C 228.03125 213.578125 224.984375 220.230469 220.429688 226.773438 C 214.425781 235.386719 211.125 240.125 211.125 251.28125 L 211.125 295.789062 C 211.125 297.457031 209.761719 298.8125 208.097656 298.8125 L 162.199219 298.8125 C 160.527344 298.8125 159.171875 297.457031 159.171875 295.789062 L 159.171875 254.046875 C 159.171875 244.074219 156.386719 233.753906 153.441406 222.824219 C 150.6875 212.617188 147.898438 202.09375 147.445312 191.707031 L 194.730469 191.707031 C 184.753906 194.972656 178.964844 205.015625 176.972656 211.191406 C 176.488281 212.699219 177.316406 214.308594 178.828125 214.792969 C 180.335938 215.277344 181.945312 214.449219 182.429688 212.945312 C 184.292969 207.144531 190.140625 197.140625 200.222656 196.410156 C 202.769531 196.222656 205.066406 194.777344 206.355469 192.558594 C 207.660156 190.292969 207.769531 187.535156 206.636719 185.1875 C 203.464844 178.613281 200.632812 173.601562 198.195312 170.285156 C 196.148438 167.484375 194.835938 163.125 197.914062 160.054688 C 199.351562 158.609375 201.390625 157.804688 203.433594 157.886719 C 205.132812 157.960938 206.628906 158.660156 207.652344 159.867188 C 212.351562 165.457031 224.765625 184.09375 224.9375 184.34375 C 229.664062 191.058594 231.363281 199.261719 229.597656 206.847656 Z M 144.417969 191.714844 C 144.398438 191.714844 144.382812 191.707031 144.359375 191.707031 L 144.472656 191.707031 C 144.449219 191.707031 144.433594 191.714844 144.417969 191.714844 Z M 142.414062 155.246094 L 150.238281 155.246094 L 150.238281 171.238281 C 150.238281 177.535156 155.363281 182.652344 161.660156 182.652344 C 165.320312 182.652344 168.578125 180.917969 170.664062 178.234375 C 172.742188 180.328125 175.609375 181.625 178.777344 181.625 C 182.660156 181.625 186.085938 179.671875 188.152344 176.707031 C 190.191406 178.59375 192.90625 179.761719 195.894531 179.761719 C 196.386719 179.761719 196.863281 179.726562 197.339844 179.660156 C 198.390625 181.527344 199.5 183.660156 200.65625 185.984375 L 142.414062 185.984375 Z M 155.960938 150.726562 C 155.960938 147.582031 158.515625 145.023438 161.660156 145.023438 C 164.796875 145.023438 167.363281 147.582031 167.363281 150.726562 L 167.363281 171.238281 C 167.363281 174.375 164.796875 176.929688 161.660156 176.929688 C 158.515625 176.929688 155.960938 174.375 155.960938 171.238281 Z M 173.085938 143.898438 C 173.085938 140.761719 175.632812 138.207031 178.777344 138.207031 C 181.921875 138.207031 184.476562 140.761719 184.476562 143.898438 L 184.476562 170.203125 C 184.476562 173.347656 181.921875 175.902344 178.777344 175.902344 C 175.632812 175.902344 173.085938 173.347656 173.085938 170.203125 Z M 190.199219 141.007812 C 190.199219 137.863281 192.757812 135.308594 195.894531 135.308594 C 199.039062 135.308594 201.59375 137.863281 201.59375 141.007812 L 201.59375 152.257812 C 198.679688 152.601562 195.960938 153.90625 193.867188 156.007812 C 189.351562 160.523438 189.210938 167.511719 193.457031 173.464844 C 191.535156 172.550781 190.199219 170.605469 190.199219 168.339844 Z M 207.316406 142.035156 C 207.316406 138.898438 209.871094 136.34375 213.015625 136.34375 C 216.152344 136.34375 218.710938 138.898438 218.710938 142.035156 L 218.710938 165.136719 C 216.136719 161.5 213.671875 158.140625 212.027344 156.179688 C 210.757812 154.675781 209.140625 153.5625 207.316406 152.894531 Z M 136.691406 194.226562 C 136.691406 203.503906 129.144531 211.050781 119.867188 211.050781 C 110.589844 211.050781 103.042969 203.503906 103.042969 194.226562 L 103.042969 146.953125 C 103.042969 137.675781 110.589844 130.128906 119.867188 130.128906 C 129.144531 130.128906 136.691406 137.675781 136.691406 146.953125 Z M 88.183594 183.785156 L 88.183594 157.386719 C 88.183594 151.789062 92.125 147.117188 97.371094 145.957031 C 97.355469 146.292969 97.320312 146.617188 97.320312 146.953125 L 97.320312 194.226562 C 97.320312 194.5625 97.355469 194.894531 97.371094 195.230469 C 92.125 194.070312 88.183594 189.382812 88.183594 183.785156 Z M 82.460938 178.628906 L 79.636719 178.628906 C 76 178.628906 73.042969 175.671875 73.042969 172.027344 L 73.042969 169.144531 C 73.042969 165.507812 76 162.550781 79.636719 162.550781 L 82.460938 162.550781 Z M 295.347656 156.828125 L 292.5 156.828125 C 292.21875 147.960938 285.300781 140.753906 276.5625 140.007812 C 273.625 130.972656 265.132812 124.40625 255.125 124.40625 C 242.6875 124.40625 232.578125 134.519531 232.578125 146.953125 L 232.578125 149.523438 L 224.433594 149.523438 L 224.433594 142.035156 C 224.433594 135.738281 219.3125 130.621094 213.015625 130.621094 C 209.84375 130.621094 206.972656 131.917969 204.902344 134.011719 C 202.816406 131.328125 199.558594 129.585938 195.894531 129.585938 C 191.734375 129.585938 188.105469 131.828125 186.109375 135.160156 C 184.121094 133.488281 181.5625 132.484375 178.777344 132.484375 C 173.464844 132.484375 168.992188 136.136719 167.734375 141.066406 C 165.96875 139.957031 163.890625 139.300781 161.660156 139.300781 C 155.769531 139.300781 150.910156 143.789062 150.304688 149.523438 L 142.414062 149.523438 L 142.414062 146.953125 C 142.414062 134.519531 132.304688 124.40625 119.867188 124.40625 C 109.84375 124.40625 101.34375 130.976562 98.414062 140.039062 C 89.679688 140.792969 82.773438 147.96875 82.492188 156.828125 L 79.636719 156.828125 C 72.847656 156.828125 67.320312 162.347656 67.320312 169.144531 L 67.320312 172.027344 C 67.320312 178.824219 72.847656 184.351562 79.636719 184.351562 L 82.492188 184.351562 C 82.773438 193.210938 89.679688 200.425781 98.429688 201.164062 C 101.363281 210.207031 109.859375 216.773438 119.867188 216.773438 C 131.199219 216.773438 140.574219 208.367188 142.152344 197.472656 C 143.175781 206.582031 145.550781 215.566406 147.914062 224.320312 C 150.761719 234.867188 153.449219 244.828125 153.449219 254.046875 L 153.449219 295.789062 C 153.449219 300.609375 157.378906 304.535156 162.199219 304.535156 L 208.097656 304.535156 C 212.917969 304.535156 216.847656 300.609375 216.847656 295.789062 L 216.847656 251.28125 C 216.847656 241.929688 219.441406 238.203125 225.230469 229.894531 C 230.09375 222.90625 233.441406 215.589844 235.167969 208.144531 C 235.371094 207.273438 235.503906 206.394531 235.632812 205.507812 C 239.535156 212.234375 246.800781 216.773438 255.125 216.773438 C 265.132812 216.773438 273.625 210.207031 276.5625 201.164062 C 285.300781 200.425781 292.21875 193.210938 292.5 184.351562 L 295.347656 184.351562 C 302.140625 184.351562 307.671875 178.824219 307.671875 172.027344 L 307.671875 169.144531 C 307.671875 162.347656 302.140625 156.828125 295.347656 156.828125 " fill-opacity="1" fill-rule="nonzero"/></g></svg>