<svg xmlns="http://www.w3.org/2000/svg" xmlns:xlink="http://www.w3.org/1999/xlink" width="500" zoomAndPan="magnify" viewBox="0 0 375 374.999991" height="500" preserveAspectRatio="xMidYMid meet" version="1.0"><defs><clipPath id="62ea64bfea"><path d="M 0 5.242188 L 375 5.242188 L 375 369.757812 L 0 369.757812 Z M 0 5.242188 " clip-rule="nonzero"/></clipPath><clipPath id="0cb713372d"><path d="M 187.5 5.242188 C 83.945312 5.242188 0 86.84375 0 187.5 C 0 288.15625 83.945312 369.757812 187.5 369.757812 C 291.054688 369.757812 375 288.15625 375 187.5 C 375 86.84375 291.054688 5.242188 187.5 5.242188 Z M 187.5 5.242188 " clip-rule="nonzero"/></clipPath><clipPath id="72e86441ea"><path d="M 0 0.242188 L 375 0.242188 L 375 364.757812 L 0 364.757812 Z M 0 0.242188 " clip-rule="nonzero"/></clipPath><clipPath id="1762d73aea"><path d="M 187.5 0.242188 C 83.945312 0.242188 0 81.84375 0 182.5 C 0 283.15625 83.945312 364.757812 187.5 364.757812 C 291.054688 364.757812 375 283.15625 375 182.5 C 375 81.84375 291.054688 0.242188 187.5 0.242188 Z M 187.5 0.242188 " clip-rule="nonzero"/></clipPath><clipPath id="11b3b8de2c"><rect x="0" width="375" y="0" height="365"/></clipPath><clipPath id="81b42ff8e2"><path d="M 55.839844 101 L 302 101 L 302 264 L 55.839844 264 Z M 55.839844 101 " clip-rule="nonzero"/></clipPath></defs><rect x="-37.5" width="450" fill="#ffffff" y="-37.499999" height="449.999989" fill-opacity="1"/><rect x="-37.5" width="450" fill="#1c1e1a" y="-37.499999" height="449.999989" fill-opacity="1"/><g clip-path="url(#62ea64bfea)"><g clip-path="url(#0cb713372d)"><g transform="matrix(1, 0, 0, 1, 0, 5)"><g clip-path="url(#11b3b8de2c)"><g clip-path="url(#72e86441ea)"><g clip-path="url(#1762d73aea)"><path fill="#2a2d24" d="M 0 0.242188 L 374.480469 0.242188 L 374.480469 364.757812 L 0 364.757812 Z M 0 0.242188 " fill-opacity="1" fill-rule="nonzero"/></g></g></g></g></g></g><path fill="#25c5e8" d="M 99.746094 136.566406 C 99.746094 138.984375 101.941406 140.957031 104.355469 140.738281 C 117.089844 140.300781 137.066406 142.054688 159.238281 153.03125 C 159.898438 153.253906 160.558594 153.472656 161.214844 153.472656 C 162.753906 153.472656 164.289062 152.59375 165.167969 151.058594 C 166.265625 148.863281 165.386719 146.226562 163.191406 145.128906 C 139.261719 133.273438 117.746094 131.519531 103.917969 131.957031 C 101.503906 132.175781 99.746094 134.152344 99.746094 136.566406 Z M 99.746094 136.566406 " fill-opacity="1" fill-rule="nonzero"/><path fill="#25c5e8" d="M 163.191406 167.300781 C 139.261719 155.449219 117.746094 153.691406 103.917969 154.128906 C 101.503906 154.128906 99.527344 156.324219 99.746094 158.742188 C 99.746094 161.15625 101.941406 163.132812 104.355469 162.910156 C 117.089844 162.472656 137.066406 164.230469 159.238281 175.207031 C 159.898438 175.425781 160.558594 175.644531 161.214844 175.644531 C 162.753906 175.644531 164.289062 174.765625 165.167969 173.230469 C 166.265625 171.035156 165.386719 168.398438 163.191406 167.300781 Z M 163.191406 167.300781 " fill-opacity="1" fill-rule="nonzero"/><path fill="#25c5e8" d="M 163.191406 189.257812 C 139.261719 177.402344 117.746094 175.644531 103.917969 176.082031 C 101.503906 176.082031 99.527344 178.277344 99.746094 180.695312 C 99.746094 183.109375 101.941406 185.085938 104.355469 184.867188 C 117.089844 184.425781 137.066406 186.183594 159.238281 197.160156 C 159.898438 197.378906 160.558594 197.597656 161.214844 197.597656 C 162.753906 197.597656 164.289062 196.71875 165.167969 195.183594 C 166.265625 192.988281 165.386719 190.355469 163.191406 189.257812 Z M 163.191406 189.257812 " fill-opacity="1" fill-rule="nonzero"/><path fill="#25c5e8" d="M 163.191406 211.210938 C 139.261719 199.355469 117.746094 197.597656 103.917969 198.039062 C 101.503906 198.039062 99.527344 200.234375 99.746094 202.648438 C 99.746094 205.0625 101.941406 207.039062 104.355469 206.820312 C 117.089844 206.378906 137.066406 208.136719 159.238281 219.113281 C 159.898438 219.332031 160.558594 219.550781 161.214844 219.550781 C 162.753906 219.550781 164.289062 218.671875 165.167969 217.136719 C 166.265625 214.722656 165.386719 212.085938 163.191406 211.210938 Z M 163.191406 211.210938 " fill-opacity="1" fill-rule="nonzero"/><path fill="#25c5e8" d="M 245.296875 136.566406 C 247.710938 135.03125 249.90625 133.496094 252.101562 131.957031 C 238.269531 131.519531 217.414062 133.714844 194.585938 145.128906 C 192.390625 146.226562 191.511719 148.863281 192.609375 151.058594 C 193.265625 152.59375 195.023438 153.472656 196.558594 153.472656 C 197.21875 153.472656 197.878906 153.253906 198.535156 153.03125 C 213.246094 145.789062 226.855469 142.496094 238.269531 141.398438 C 240.464844 139.859375 243.757812 137.445312 245.296875 136.566406 Z M 245.296875 136.566406 " fill-opacity="1" fill-rule="nonzero"/><path fill="#25c5e8" d="M 192.390625 194.964844 C 192.609375 195.621094 193.265625 196.0625 193.707031 196.5 L 194.585938 194.304688 C 195.242188 192.550781 196.121094 191.011719 197.4375 189.695312 C 197.21875 189.035156 197 188.597656 196.78125 187.9375 C 195.902344 188.378906 195.242188 188.597656 194.363281 189.035156 C 192.167969 190.355469 191.292969 192.988281 192.390625 194.964844 Z M 192.390625 194.964844 " fill-opacity="1" fill-rule="nonzero"/><path fill="#25c5e8" d="M 203.804688 172.570312 C 205.121094 171.472656 208.414062 168.621094 210.609375 163.789062 C 211.269531 162.472656 211.925781 161.15625 212.585938 159.839844 C 206.660156 161.8125 200.511719 164.230469 194.144531 167.300781 C 191.949219 168.398438 191.070312 171.035156 192.167969 173.230469 C 192.828125 174.765625 194.585938 175.644531 196.121094 175.644531 C 196.78125 175.644531 197.4375 175.425781 198.097656 175.207031 C 200.074219 174.109375 202.046875 173.230469 203.804688 172.570312 Z M 203.804688 172.570312 " fill-opacity="1" fill-rule="nonzero"/><g clip-path="url(#81b42ff8e2)"><path fill="#25c5e8" d="M 292.933594 237.992188 L 292.933594 248.96875 C 292.933594 252.261719 290.300781 254.894531 287.226562 254.894531 L 195.023438 254.894531 C 234.539062 235.136719 269.226562 246.113281 269.664062 246.335938 C 270.980469 246.773438 272.519531 246.554688 273.617188 245.675781 C 274.714844 244.796875 275.371094 243.480469 275.371094 242.164062 L 275.371094 233.164062 C 272.519531 231.84375 269.664062 230.527344 267.03125 229.210938 C 266.808594 229.210938 266.808594 228.992188 266.589844 228.992188 L 266.589844 236.457031 C 253.417969 233.601562 219.832031 229.648438 183.167969 251.382812 L 183.167969 131.300781 C 221.148438 105.832031 256.054688 109.785156 266.589844 111.761719 L 266.589844 125.8125 C 267.25 125.8125 267.6875 125.589844 268.347656 125.589844 C 268.347656 125.589844 268.566406 125.589844 268.566406 125.589844 C 269.003906 125.589844 269.664062 125.589844 270.101562 125.589844 C 270.324219 125.589844 270.324219 125.589844 270.542969 125.589844 C 270.980469 125.589844 271.421875 125.8125 272.078125 125.8125 C 272.296875 125.8125 272.296875 125.8125 272.519531 125.8125 C 273.175781 126.03125 273.835938 126.03125 274.492188 126.25 C 274.933594 126.46875 275.152344 126.46875 275.589844 126.6875 C 276.25 126.910156 276.910156 127.347656 277.785156 127.566406 L 283.496094 127.566406 L 283.714844 127.347656 C 287.664062 124.492188 292.054688 123.175781 296.886719 123.175781 C 297.324219 123.175781 297.542969 123.175781 297.984375 123.175781 C 295.347656 120.542969 291.617188 118.785156 287.445312 118.785156 L 275.371094 118.785156 L 275.371094 108.027344 C 275.371094 106.054688 274.054688 104.296875 272.296875 103.859375 C 270.324219 103.417969 227.734375 91.34375 179.21875 123.175781 C 178.996094 123.175781 178.996094 123.175781 178.777344 123.175781 C 178.558594 123.175781 178.558594 123.175781 178.339844 123.175781 C 129.820312 91.34375 87.234375 103.417969 85.257812 103.859375 C 83.28125 104.296875 82.183594 106.054688 82.183594 108.027344 L 82.183594 118.785156 L 70.328125 118.785156 C 62.425781 118.785156 55.839844 125.371094 55.839844 133.496094 L 55.839844 248.96875 C 55.839844 257.089844 62.425781 263.675781 70.328125 263.675781 L 287.007812 263.675781 C 295.128906 263.675781 301.496094 257.089844 301.496094 248.96875 L 301.496094 238.429688 L 299.960938 237.554688 C 297.765625 237.992188 295.347656 238.210938 292.933594 237.992188 Z M 70.328125 254.894531 C 67.253906 254.894531 64.621094 252.261719 64.621094 248.96875 L 64.621094 133.496094 C 64.621094 130.203125 67.253906 127.566406 70.328125 127.566406 L 82.183594 127.566406 L 82.183594 242.164062 C 82.183594 243.480469 82.84375 244.796875 83.941406 245.675781 C 85.039062 246.554688 86.574219 246.773438 87.890625 246.335938 C 88.332031 246.113281 122.796875 235.136719 162.53125 254.894531 Z M 174.386719 251.382812 C 151.335938 237.773438 129.601562 234.261719 113.136719 234.261719 C 103.476562 234.261719 95.792969 235.578125 90.964844 236.457031 L 90.964844 111.542969 C 101.28125 109.566406 136.1875 105.613281 174.386719 131.078125 Z M 174.386719 251.382812 " fill-opacity="1" fill-rule="nonzero"/></g><path fill="#25c5e8" d="M 335.085938 192.109375 L 316.644531 178.058594 C 313.132812 171.914062 307.644531 165.328125 301.9375 159.617188 L 304.570312 157.863281 C 310.71875 153.472656 312.253906 144.472656 308.082031 138.105469 C 305.886719 135.03125 302.8125 132.835938 299.082031 132.175781 C 295.347656 131.519531 291.617188 132.398438 288.761719 134.59375 L 280.859375 140.300781 C 278.445312 138.105469 274.933594 135.691406 271.640625 134.59375 C 267.90625 133.273438 263.078125 135.46875 256.710938 139.640625 C 256.492188 139.859375 256.054688 140.082031 255.613281 140.300781 C 255.613281 140.300781 255.394531 140.300781 255.394531 140.519531 C 255.175781 140.738281 254.957031 140.738281 254.957031 140.738281 C 253.417969 141.617188 251.882812 142.714844 250.34375 143.8125 C 245.734375 146.886719 240.246094 150.835938 237.613281 151.496094 C 232.78125 152.59375 229.488281 153.910156 226.417969 156.324219 C 223.78125 158.519531 221.585938 162.035156 218.953125 167.523438 C 214.5625 176.742188 207.757812 180.695312 207.757812 180.695312 C 206.4375 181.351562 205.5625 182.667969 205.5625 184.207031 C 205.5625 185.742188 206.21875 187.0625 207.316406 187.9375 C 207.535156 188.160156 209.074219 189.257812 211.488281 190.355469 L 204.683594 195.183594 C 204.023438 195.621094 203.367188 196.5 203.144531 197.160156 L 197 213.625 C 196.558594 214.941406 196.78125 216.476562 197.4375 217.796875 C 198.316406 218.894531 199.632812 219.550781 200.949219 219.550781 L 218.074219 219.113281 C 218.953125 219.113281 219.832031 218.894531 220.488281 218.234375 L 227.074219 213.40625 C 228.832031 214.503906 231.246094 214.941406 233.660156 214.503906 L 234.976562 214.28125 C 242.441406 213.183594 250.34375 212.085938 261.320312 216.257812 C 264.394531 217.355469 267.46875 219.113281 270.761719 220.648438 C 280.421875 225.480469 291.179688 230.746094 301.714844 227.675781 L 312.691406 233.820312 C 313.351562 234.261719 314.011719 234.480469 314.886719 234.480469 C 316.425781 234.480469 317.960938 233.601562 318.621094 232.285156 C 319.71875 230.089844 319.058594 227.453125 316.863281 226.355469 L 304.132812 219.113281 C 303.035156 218.453125 301.714844 218.453125 300.398438 218.894531 C 292.714844 221.746094 283.933594 217.355469 274.492188 212.746094 C 271.199219 210.988281 267.6875 209.453125 264.394531 208.136719 C 251.222656 202.867188 241.5625 204.402344 233.660156 205.5 L 232.34375 205.722656 C 231.683594 205.722656 231.464844 205.722656 231.464844 205.722656 C 231.464844 205.722656 231.246094 205.28125 231.464844 204.402344 C 231.683594 203.527344 233.003906 200.453125 238.492188 197.816406 C 245.953125 194.523438 256.054688 197.597656 261.320312 199.574219 C 266.152344 201.550781 271.421875 200.234375 274.714844 196.28125 C 276.910156 193.648438 278.007812 190.132812 277.785156 186.621094 C 277.566406 183.769531 276.25 180.914062 274.273438 178.9375 L 294.472656 164.449219 C 296.667969 166.644531 298.640625 168.839844 300.617188 171.035156 C 300.835938 171.253906 301.058594 171.472656 301.277344 171.914062 C 304.351562 175.425781 307.203125 179.15625 308.960938 182.671875 C 309.179688 183.328125 309.621094 183.769531 310.277344 184.207031 L 329.378906 198.914062 C 330.253906 199.574219 331.132812 199.792969 332.011719 199.792969 C 333.328125 199.792969 334.644531 199.136719 335.523438 198.039062 C 337.5 196.28125 337.0625 193.648438 335.085938 192.109375 Z M 226.636719 171.253906 C 228.171875 167.960938 229.488281 165.765625 230.585938 164.230469 C 232.34375 162.253906 234.320312 161.15625 237.832031 160.277344 C 238.269531 160.058594 238.929688 160.058594 239.589844 159.839844 C 243.757812 158.742188 249.246094 155.007812 255.175781 150.835938 C 259.347656 147.984375 266.589844 143.152344 268.785156 142.714844 C 270.101562 143.152344 271.640625 144.25 273.175781 145.347656 L 220.050781 183.988281 C 219.171875 183.988281 218.511719 183.769531 217.636719 183.546875 C 220.488281 180.914062 224 176.742188 226.636719 171.253906 Z M 268.347656 191.011719 C 267.46875 192.109375 265.933594 192.550781 264.835938 191.890625 C 263.296875 191.230469 261.542969 190.574219 259.785156 190.132812 L 267.46875 184.425781 C 267.6875 184.644531 267.6875 184.644531 267.90625 184.867188 C 268.785156 185.523438 269.226562 186.621094 269.445312 187.71875 C 269.445312 189.035156 269.003906 190.132812 268.347656 191.011719 Z M 299.519531 150.835938 L 247.710938 188.160156 C 243.539062 187.9375 239.148438 188.597656 235.199219 190.355469 C 226.195312 194.304688 222.683594 200.890625 222.683594 206.160156 L 216.316406 210.769531 L 207.097656 210.988281 L 210.609375 201.769531 L 293.8125 141.835938 C 294.910156 140.957031 296.226562 140.738281 297.542969 140.957031 C 298.863281 141.179688 300.179688 142.054688 300.835938 143.152344 C 302.375 145.570312 301.9375 149.082031 299.519531 150.835938 Z M 299.519531 150.835938 " fill-opacity="1" fill-rule="nonzero"/></svg>