<svg xmlns="http://www.w3.org/2000/svg" xmlns:xlink="http://www.w3.org/1999/xlink" width="500" zoomAndPan="magnify" viewBox="0 0 375 374.999991" height="500" preserveAspectRatio="xMidYMid meet" version="1.2"><defs><clipPath id="2dd247cb99"><path d="M 187.5 0 C 83.945312 0 0 83.945312 0 187.5 C 0 291.054688 83.945312 375 187.5 375 C 291.054688 375 375 291.054688 375 187.5 C 375 83.945312 291.054688 0 187.5 0 Z M 187.5 0 "/></clipPath><clipPath id="a0ddd820a5"><path d="M 119 276 L 257 276 L 257 309.289062 L 119 309.289062 Z M 119 276 "/></clipPath><clipPath id="f03e176d0f"><path d="M 173 65.539062 L 203 65.539062 L 203 141 L 173 141 Z M 173 65.539062 "/></clipPath><clipPath id="c5097197ff"><path d="M 81.851562 156 L 157 156 L 157 185 L 81.851562 185 Z M 81.851562 156 "/></clipPath><clipPath id="b5459b0730"><path d="M 218 157 L 293.351562 157 L 293.351562 187 L 218 187 Z M 218 157 "/></clipPath></defs><g id="7b5141f8d4"><rect x="0" width="375" y="0" height="374.999991" style="fill:#ffffff;fill-opacity:1;stroke:none;"/><rect x="0" width="375" y="0" height="374.999991" style="fill:#ffffff;fill-opacity:1;stroke:none;"/><g clip-rule="nonzero" clip-path="url(#2dd247cb99)"><rect x="0" width="375" y="0" height="374.999991" style="fill:#e8ccff;fill-opacity:1;stroke:none;"/></g><path style=" stroke:none;fill-rule:nonzero;fill:#8727b4;fill-opacity:1;" d="M 164.4375 164.664062 C 164.316406 165.296875 164.21875 165.929688 164.144531 166.566406 C 164.066406 167.203125 164.015625 167.84375 163.984375 168.476562 C 163.953125 169.113281 163.949219 169.753906 163.957031 170.375 L 163.964844 170.824219 L 163.988281 171.304688 L 164.007812 171.789062 C 164.019531 171.949219 164.035156 172.109375 164.046875 172.269531 L 164.085938 172.753906 C 164.101562 172.914062 164.121094 173.070312 164.140625 173.230469 L 164.199219 173.710938 C 164.222656 173.871094 164.246094 174.027344 164.269531 174.1875 C 164.46875 175.457031 164.757812 176.703125 165.140625 177.933594 C 165.1875 178.085938 165.234375 178.238281 165.289062 178.386719 L 165.441406 178.839844 C 165.546875 179.140625 165.664062 179.4375 165.773438 179.738281 C 165.882812 180.035156 166.011719 180.328125 166.136719 180.617188 C 166.261719 180.910156 166.386719 181.199219 166.527344 181.484375 C 167.066406 182.625 167.671875 183.726562 168.347656 184.789062 C 169.019531 185.84375 169.75 186.855469 170.542969 187.828125 C 171.15625 188.582031 171.804688 189.308594 172.484375 190.003906 C 172.707031 191.257812 172.710938 192.464844 172.433594 193.546875 C 172.269531 194.191406 172.007812 194.796875 171.648438 195.359375 C 171.605469 195.429688 171.5625 195.496094 171.511719 195.5625 L 171.371094 195.761719 L 171.21875 195.949219 C 171.195312 195.980469 171.171875 196.011719 171.144531 196.042969 L 171.0625 196.128906 C 170.847656 196.363281 170.609375 196.582031 170.355469 196.773438 C 170.082031 196.980469 169.792969 197.167969 169.492188 197.332031 C 169.171875 197.5 168.832031 197.660156 168.46875 197.808594 C 168.101562 197.957031 167.710938 198.097656 167.296875 198.226562 C 167.09375 198.292969 166.878906 198.355469 166.667969 198.421875 L 166.015625 198.609375 C 165.128906 198.859375 164.191406 199.113281 163.226562 199.414062 C 162.746094 199.5625 162.253906 199.730469 161.765625 199.910156 C 161.277344 200.085938 160.78125 200.289062 160.292969 200.519531 C 159.292969 200.96875 158.34375 201.515625 157.449219 202.152344 C 155.597656 203.460938 154.136719 205.113281 153.058594 207.109375 C 152.550781 208.0625 152.132812 209.050781 151.800781 210.074219 C 151.488281 211.054688 151.234375 212.054688 151.042969 213.066406 C 150.851562 214.054688 150.707031 215.039062 150.589844 216.007812 C 150.359375 217.957031 150.222656 219.863281 150.089844 221.753906 C 149.960938 223.640625 149.828125 225.511719 149.65625 227.371094 C 149.484375 229.226562 149.265625 231.074219 148.976562 232.90625 C 148.414062 236.582031 147.53125 240.179688 146.332031 243.699219 C 145.726562 245.457031 145.046875 247.191406 144.28125 248.894531 C 144.089844 249.324219 143.890625 249.746094 143.691406 250.167969 L 143.382812 250.796875 C 143.28125 251.007812 143.179688 251.21875 143.074219 251.425781 C 142.859375 251.84375 142.652344 252.265625 142.429688 252.675781 C 142.207031 253.085938 141.984375 253.5 141.757812 253.910156 C 139.90625 257.207031 137.808594 260.335938 135.472656 263.304688 C 138.15625 260.59375 140.574219 257.664062 142.726562 254.515625 C 144.902344 251.339844 146.753906 247.984375 148.28125 244.453125 C 149.804688 240.894531 150.988281 237.222656 151.824219 233.441406 C 152.675781 229.679688 153.195312 225.851562 153.667969 222.101562 C 153.910156 220.226562 154.140625 218.367188 154.457031 216.566406 C 154.769531 214.769531 155.160156 213.027344 155.761719 211.453125 C 156.050781 210.6875 156.402344 209.953125 156.820312 209.246094 C 157.226562 208.578125 157.703125 207.960938 158.246094 207.398438 C 158.792969 206.84375 159.394531 206.351562 160.050781 205.925781 C 160.71875 205.492188 161.425781 205.125 162.167969 204.832031 C 162.542969 204.671875 162.9375 204.539062 163.335938 204.40625 C 163.734375 204.269531 164.152344 204.152344 164.578125 204.039062 C 165.429688 203.808594 166.328125 203.601562 167.269531 203.371094 L 167.988281 203.195312 C 168.230469 203.128906 168.472656 203.066406 168.722656 202.996094 C 169.214844 202.859375 169.726562 202.699219 170.242188 202.515625 C 170.777344 202.324219 171.300781 202.101562 171.8125 201.855469 C 172.351562 201.585938 172.871094 201.277344 173.367188 200.933594 C 173.496094 200.847656 173.617188 200.746094 173.742188 200.652344 C 173.863281 200.5625 173.988281 200.46875 174.105469 200.359375 L 174.460938 200.050781 C 174.574219 199.945312 174.6875 199.832031 174.796875 199.722656 L 174.964844 199.554688 C 175.019531 199.496094 175.070312 199.4375 175.121094 199.378906 L 175.433594 199.023438 C 175.523438 198.902344 175.625 198.78125 175.71875 198.652344 C 175.8125 198.523438 175.90625 198.40625 175.992188 198.28125 C 176.695312 197.257812 177.222656 196.152344 177.566406 194.964844 C 177.898438 193.800781 178.0625 192.617188 178.054688 191.410156 C 178.058594 190.835938 178.023438 190.257812 177.957031 189.683594 C 177.890625 189.121094 177.796875 188.566406 177.683594 188.027344 L 177.523438 187.28125 L 176.945312 186.6875 C 175.5 185.203125 174.242188 183.574219 173.171875 181.800781 C 172.640625 180.925781 172.171875 180.019531 171.753906 179.085938 C 171.648438 178.855469 171.558594 178.621094 171.460938 178.386719 C 171.359375 178.15625 171.277344 177.921875 171.1875 177.683594 C 171.09375 177.445312 171.015625 177.207031 170.941406 176.96875 L 170.828125 176.609375 C 170.789062 176.492188 170.753906 176.371094 170.722656 176.25 C 170.441406 175.289062 170.234375 174.316406 170.097656 173.328125 L 170.050781 172.953125 L 170.011719 172.582031 C 170 172.457031 169.984375 172.335938 169.976562 172.210938 L 169.953125 171.835938 C 169.945312 171.714844 169.9375 171.589844 169.929688 171.464844 L 169.921875 171.089844 L 169.914062 170.71875 L 169.914062 170.3125 C 169.914062 169.792969 169.929688 169.292969 169.960938 168.792969 C 169.992188 168.289062 170.039062 167.792969 170.105469 167.300781 C 170.171875 166.808594 170.257812 166.316406 170.355469 165.828125 C 170.457031 165.34375 170.578125 164.867188 170.710938 164.390625 C 171.246094 162.503906 172.074219 160.753906 173.1875 159.140625 C 173.742188 158.34375 174.359375 157.601562 175.039062 156.914062 C 175.734375 156.191406 176.476562 155.527344 177.265625 154.910156 C 178.808594 153.699219 180.503906 152.765625 182.351562 152.101562 C 183.25 151.78125 184.171875 151.546875 185.113281 151.394531 C 186.054688 151.246094 187 151.183594 187.953125 151.210938 C 189.871094 151.253906 191.722656 151.644531 193.496094 152.378906 C 195.3125 153.132812 196.964844 154.148438 198.457031 155.425781 C 198.832031 155.746094 199.195312 156.082031 199.550781 156.429688 C 199.726562 156.601562 199.902344 156.777344 200.074219 156.960938 C 200.246094 157.140625 200.410156 157.324219 200.59375 157.527344 C 201.242188 158.25 201.828125 159.019531 202.351562 159.832031 C 202.417969 159.933594 202.476562 160.039062 202.535156 160.140625 C 202.597656 160.242188 202.664062 160.347656 202.722656 160.453125 C 202.839844 160.664062 202.960938 160.871094 203.070312 161.089844 C 203.296875 161.515625 203.5 161.957031 203.6875 162.402344 C 203.878906 162.847656 204.042969 163.304688 204.199219 163.769531 C 204.351562 164.230469 204.476562 164.699219 204.597656 165.179688 C 204.832031 166.144531 204.992188 167.121094 205.082031 168.109375 C 205.128906 168.609375 205.152344 169.109375 205.167969 169.617188 C 205.171875 169.871094 205.175781 170.128906 205.171875 170.390625 L 205.171875 170.59375 C 205.171875 170.660156 205.171875 170.71875 205.167969 170.777344 L 205.160156 171.152344 C 205.089844 173.152344 204.730469 175.101562 204.078125 177 C 203.753906 177.957031 203.367188 178.886719 202.917969 179.792969 C 202.460938 180.710938 201.953125 181.601562 201.394531 182.460938 C 200.253906 184.203125 198.9375 185.800781 197.449219 187.257812 L 196.84375 187.851562 L 196.667969 188.609375 C 196.402344 189.738281 196.265625 190.882812 196.261719 192.046875 C 196.257812 193.285156 196.445312 194.492188 196.820312 195.671875 L 196.894531 195.894531 C 196.917969 195.96875 196.949219 196.042969 196.976562 196.117188 L 197.148438 196.554688 C 197.210938 196.699219 197.277344 196.839844 197.34375 196.984375 L 197.445312 197.199219 C 197.480469 197.269531 197.519531 197.335938 197.558594 197.40625 L 197.785156 197.816406 C 197.863281 197.953125 197.953125 198.082031 198.035156 198.214844 L 198.164062 198.414062 L 198.230469 198.511719 L 198.300781 198.605469 L 198.589844 198.988281 C 198.683594 199.117188 198.792969 199.238281 198.898438 199.363281 C 199.003906 199.484375 199.109375 199.605469 199.21875 199.71875 L 199.566406 200.058594 C 199.625 200.113281 199.679688 200.171875 199.742188 200.222656 L 199.929688 200.378906 C 200.050781 200.480469 200.171875 200.585938 200.300781 200.683594 L 200.683594 200.964844 C 200.8125 201.058594 200.941406 201.144531 201.074219 201.226562 C 201.207031 201.308594 201.335938 201.394531 201.46875 201.46875 C 202.476562 202.039062 203.535156 202.480469 204.644531 202.796875 C 205.675781 203.101562 206.664062 203.3125 207.605469 203.507812 C 208.542969 203.703125 209.449219 203.882812 210.308594 204.09375 C 211.136719 204.289062 211.953125 204.527344 212.757812 204.816406 C 213.515625 205.089844 214.238281 205.429688 214.933594 205.839844 C 215.605469 206.242188 216.226562 206.707031 216.796875 207.238281 C 216.871094 207.300781 216.933594 207.375 217 207.441406 C 217.070312 207.507812 217.140625 207.574219 217.203125 207.648438 C 217.332031 207.789062 217.464844 207.925781 217.582031 208.078125 C 217.828125 208.375 218.058594 208.6875 218.269531 209.011719 C 218.699219 209.691406 219.0625 210.410156 219.347656 211.164062 C 219.957031 212.710938 220.324219 214.453125 220.613281 216.25 C 220.90625 218.046875 221.09375 219.917969 221.308594 221.800781 C 221.714844 225.574219 222.1875 229.425781 223.03125 233.210938 C 223.445312 235.105469 223.953125 236.976562 224.550781 238.824219 C 225.746094 242.511719 227.3125 246.039062 229.242188 249.402344 C 229.359375 249.609375 229.480469 249.816406 229.605469 250.023438 L 229.972656 250.644531 C 230.21875 251.054688 230.476562 251.460938 230.730469 251.867188 C 230.984375 252.277344 231.253906 252.671875 231.519531 253.070312 L 231.925781 253.664062 C 232.058594 253.863281 232.195312 254.058594 232.335938 254.253906 C 234.53125 257.386719 237.015625 260.273438 239.789062 262.910156 C 237.359375 260.007812 235.199219 256.914062 233.304688 253.632812 C 231.421875 250.386719 229.847656 247 228.585938 243.464844 C 227.347656 239.953125 226.453125 236.355469 225.902344 232.671875 C 225.761719 231.757812 225.640625 230.835938 225.539062 229.910156 C 225.4375 228.988281 225.347656 228.0625 225.269531 227.132812 C 225.117188 225.269531 225.019531 223.40625 224.917969 221.507812 C 224.820312 219.609375 224.71875 217.699219 224.519531 215.738281 C 224.414062 214.761719 224.28125 213.769531 224.09375 212.769531 C 223.910156 211.742188 223.652344 210.734375 223.328125 209.742188 C 222.988281 208.699219 222.542969 207.703125 222 206.753906 C 221.433594 205.777344 220.757812 204.878906 219.976562 204.0625 C 219.195312 203.257812 218.335938 202.546875 217.398438 201.933594 C 216.480469 201.332031 215.515625 200.824219 214.5 200.40625 C 213.535156 200.007812 212.546875 199.671875 211.539062 199.394531 C 210.5625 199.113281 209.613281 198.894531 208.707031 198.667969 C 207.800781 198.441406 206.9375 198.21875 206.164062 197.957031 C 205.449219 197.730469 204.769531 197.425781 204.128906 197.039062 C 204.058594 196.992188 203.992188 196.945312 203.925781 196.898438 C 203.855469 196.855469 203.792969 196.808594 203.730469 196.757812 L 203.542969 196.613281 C 203.484375 196.5625 203.429688 196.507812 203.375 196.457031 L 203.285156 196.378906 C 203.257812 196.355469 203.234375 196.324219 203.207031 196.296875 C 203.15625 196.242188 203.105469 196.1875 203.050781 196.132812 C 202.996094 196.078125 202.957031 196.011719 202.90625 195.957031 C 202.855469 195.894531 202.808594 195.835938 202.765625 195.769531 C 202.722656 195.707031 202.679688 195.640625 202.632812 195.582031 L 202.597656 195.535156 L 202.570312 195.484375 L 202.507812 195.378906 C 202.46875 195.3125 202.425781 195.246094 202.386719 195.175781 L 202.277344 194.960938 C 202.261719 194.925781 202.242188 194.890625 202.226562 194.855469 L 202.179688 194.742188 L 202.085938 194.523438 L 202.007812 194.296875 C 201.996094 194.257812 201.980469 194.222656 201.96875 194.183594 L 201.9375 194.066406 C 201.753906 193.421875 201.675781 192.761719 201.703125 192.089844 C 201.714844 191.726562 201.75 191.367188 201.804688 191.011719 C 201.824219 190.898438 201.84375 190.785156 201.863281 190.667969 C 203.449219 189.125 204.871094 187.445312 206.125 185.625 C 206.835938 184.589844 207.484375 183.515625 208.066406 182.402344 C 208.65625 181.277344 209.167969 180.117188 209.597656 178.921875 C 210.480469 176.488281 210.992188 173.980469 211.128906 171.394531 C 211.261719 168.90625 211.097656 166.308594 210.515625 163.785156 C 209.640625 159.867188 207.871094 156.40625 205.210938 153.402344 C 205.019531 153.179688 204.800781 152.9375 204.582031 152.707031 C 204.363281 152.476562 204.140625 152.242188 203.910156 152.011719 C 203.453125 151.558594 202.980469 151.121094 202.492188 150.699219 C 201.503906 149.855469 200.460938 149.09375 199.359375 148.410156 C 198.800781 148.066406 198.238281 147.734375 197.652344 147.4375 C 197.363281 147.285156 197.0625 147.148438 196.765625 147.003906 C 196.617188 146.933594 196.464844 146.871094 196.3125 146.804688 C 196.164062 146.738281 196.011719 146.667969 195.859375 146.609375 C 193.371094 145.582031 190.785156 145.039062 188.09375 144.976562 C 186.761719 144.945312 185.4375 145.035156 184.121094 145.253906 C 182.804688 145.464844 181.523438 145.792969 180.269531 146.242188 C 177.789062 147.140625 175.515625 148.40625 173.449219 150.046875 C 172.441406 150.839844 171.496094 151.703125 170.609375 152.632812 C 169.699219 153.578125 168.871094 154.59375 168.128906 155.683594 C 166.648438 157.867188 165.566406 160.234375 164.878906 162.78125 C 164.710938 163.402344 164.558594 164.027344 164.4375 164.664062 Z M 164.4375 164.664062 "/><path style=" stroke:none;fill-rule:nonzero;fill:#8727b4;fill-opacity:1;" d="M 169.753906 222.636719 C 169.195312 222.570312 168.589844 228.6875 166.171875 236.3125 C 163.875 243.554688 160.671875 253.652344 151.914062 261.347656 C 151.273438 261.90625 150.492188 262.558594 149.554688 263.253906 C 146.082031 265.828125 140.5 269.046875 132.300781 270.816406 C 144.265625 273.503906 154.425781 272.324219 159.265625 269.550781 C 162.320312 267.804688 164.933594 265.371094 164.933594 265.371094 C 165.769531 264.71875 166.53125 263.992188 167.226562 263.1875 C 167.78125 262.546875 168.277344 261.859375 168.710938 261.128906 C 170.894531 257.433594 170.84375 253.660156 170.742188 249.539062 C 170.691406 247.660156 170.519531 245.789062 170.226562 243.929688 C 168.503906 232.359375 170.46875 222.722656 169.753906 222.636719 Z M 169.753906 222.636719 "/><path style=" stroke:none;fill-rule:nonzero;fill:#8727b4;fill-opacity:1;" d="M 204.539062 249.539062 C 204.4375 253.660156 204.386719 257.433594 206.570312 261.128906 C 206.972656 261.804688 207.425781 262.441406 207.929688 263.039062 C 208.65625 263.902344 209.464844 264.675781 210.351562 265.371094 C 210.351562 265.371094 212.960938 267.800781 216.015625 269.550781 C 220.855469 272.324219 231.023438 273.5 242.984375 270.8125 C 234.488281 268.980469 228.800781 265.59375 225.363281 262.972656 C 224.585938 262.382812 223.925781 261.832031 223.371094 261.34375 C 214.609375 253.648438 211.40625 243.554688 209.113281 236.308594 C 206.695312 228.683594 206.09375 222.566406 205.53125 222.636719 C 204.820312 222.722656 206.78125 232.355469 205.066406 243.925781 C 204.765625 245.785156 204.59375 247.65625 204.539062 249.539062 Z M 204.539062 249.539062 "/><g clip-rule="nonzero" clip-path="url(#a0ddd820a5)"><path style=" stroke:none;fill-rule:nonzero;fill:#8727b4;fill-opacity:1;" d="M 255.070312 280.410156 C 254.683594 279.757812 254.203125 279.179688 253.628906 278.679688 C 253.117188 278.234375 252.554688 277.859375 251.949219 277.550781 C 251.414062 277.28125 250.859375 277.058594 250.289062 276.882812 C 249.765625 276.722656 249.234375 276.589844 248.695312 276.488281 C 248.179688 276.394531 247.671875 276.320312 247.171875 276.265625 C 246.203125 276.171875 245.234375 276.128906 244.257812 276.136719 C 242.414062 276.164062 240.574219 276.300781 238.742188 276.542969 C 235.15625 277.011719 231.6875 277.734375 228.269531 278.542969 C 226.558594 278.945312 224.867188 279.375 223.179688 279.804688 L 220.617188 280.492188 C 219.765625 280.738281 218.917969 280.996094 218.074219 281.246094 C 214.695312 282.289062 211.382812 283.492188 208.128906 284.859375 C 204.886719 286.21875 201.722656 287.742188 198.636719 289.425781 C 197.867188 289.839844 197.101562 290.269531 196.34375 290.707031 C 195.964844 290.921875 195.589844 291.152344 195.214844 291.375 C 194.835938 291.597656 194.460938 291.816406 194.097656 292.050781 C 192.605469 292.96875 191.144531 293.917969 189.714844 294.921875 C 191.320312 294.230469 192.914062 293.539062 194.523438 292.886719 C 196.128906 292.234375 197.738281 291.597656 199.359375 291 C 202.601562 289.796875 205.867188 288.699219 209.160156 287.730469 C 212.457031 286.761719 215.777344 285.921875 219.117188 285.203125 L 221.625 284.6875 L 224.140625 284.222656 C 225.84375 283.917969 227.550781 283.621094 229.242188 283.339844 C 230.933594 283.054688 232.625 282.792969 234.304688 282.566406 C 235.988281 282.339844 237.660156 282.140625 239.324219 282.011719 C 240.945312 281.871094 242.574219 281.820312 244.199219 281.859375 C 244.964844 281.882812 245.726562 281.945312 246.484375 282.046875 C 246.84375 282.097656 247.195312 282.160156 247.53125 282.234375 C 247.84375 282.304688 248.152344 282.390625 248.457031 282.496094 C 248.714844 282.585938 248.960938 282.691406 249.195312 282.824219 C 249.367188 282.914062 249.519531 283.023438 249.664062 283.152344 C 249.746094 283.230469 249.816406 283.320312 249.867188 283.421875 C 249.925781 283.539062 249.964844 283.664062 249.988281 283.792969 C 250.054688 284.125 250.054688 284.648438 249.953125 285.234375 C 249.832031 285.882812 249.648438 286.515625 249.402344 287.125 C 248.886719 288.441406 248.136719 289.78125 247.257812 291.050781 C 246.820312 291.6875 246.351562 292.308594 245.859375 292.914062 C 245.371094 293.515625 244.835938 294.109375 244.296875 294.679688 C 243.757812 295.25 243.1875 295.796875 242.601562 296.328125 C 242.015625 296.859375 241.410156 297.363281 240.789062 297.84375 C 239.554688 298.804688 238.25 299.65625 236.875 300.398438 C 234.855469 301.5 232.714844 302.261719 230.449219 302.683594 L 229.890625 302.773438 C 229.796875 302.789062 229.703125 302.804688 229.613281 302.820312 L 229.328125 302.855469 C 229.140625 302.878906 228.945312 302.910156 228.753906 302.925781 L 228.179688 302.980469 C 227.40625 303.039062 226.628906 303.078125 225.835938 303.066406 C 225.441406 303.066406 225.042969 303.050781 224.644531 303.042969 L 224.046875 303.011719 L 223.746094 302.996094 L 223.441406 302.972656 C 221.832031 302.847656 220.195312 302.640625 218.546875 302.355469 C 216.902344 302.074219 215.242188 301.746094 213.574219 301.382812 C 211.90625 301.019531 210.234375 300.625 208.554688 300.230469 L 206.03125 299.628906 C 205.191406 299.425781 204.335938 299.222656 203.515625 299.019531 C 202.691406 298.816406 201.851562 298.605469 201.019531 298.398438 L 199.777344 298.070312 C 199.363281 297.960938 198.949219 297.851562 198.539062 297.734375 C 195.230469 296.828125 191.941406 295.832031 188.671875 294.746094 C 185.90625 293.835938 183.160156 292.863281 180.441406 291.828125 C 178.28125 290.722656 176.101562 289.65625 173.925781 288.609375 C 171.316406 287.351562 168.695312 286.121094 166.039062 284.9375 C 163.378906 283.753906 160.679688 282.621094 157.894531 281.617188 C 156.503906 281.113281 155.097656 280.640625 153.667969 280.210938 C 153.316406 280.097656 152.957031 280 152.597656 279.894531 L 151.535156 279.597656 C 150.835938 279.402344 150.136719 279.207031 149.425781 279.023438 C 148.011719 278.648438 146.585938 278.285156 145.148438 277.960938 C 144.429688 277.792969 143.710938 277.632812 142.984375 277.480469 C 142.261719 277.328125 141.535156 277.1875 140.800781 277.054688 C 139.335938 276.78125 137.855469 276.554688 136.355469 276.367188 C 134.851562 276.183594 133.324219 276.0625 131.757812 276.023438 C 130.972656 276.003906 130.171875 276.011719 129.363281 276.054688 C 128.523438 276.101562 127.6875 276.195312 126.859375 276.335938 C 125.945312 276.488281 125.050781 276.730469 124.183594 277.058594 C 123.691406 277.253906 123.21875 277.480469 122.761719 277.742188 C 122.253906 278.042969 121.78125 278.394531 121.34375 278.796875 C 121.230469 278.90625 121.117188 279.011719 121.007812 279.128906 C 120.898438 279.25 120.792969 279.371094 120.6875 279.496094 C 120.585938 279.617188 120.488281 279.757812 120.390625 279.890625 C 120.292969 280.023438 120.207031 280.171875 120.121094 280.3125 C 119.789062 280.871094 119.539062 281.46875 119.375 282.097656 C 119.226562 282.664062 119.140625 283.242188 119.113281 283.824219 C 119.09375 284.351562 119.109375 284.875 119.171875 285.398438 C 119.285156 286.328125 119.496094 287.238281 119.796875 288.125 C 120.074219 288.9375 120.402344 289.730469 120.78125 290.5 C 121.15625 291.246094 121.550781 291.957031 121.976562 292.644531 C 122.402344 293.328125 122.847656 293.992188 123.316406 294.628906 C 124.246094 295.890625 125.25 297.089844 126.332031 298.226562 C 127.40625 299.347656 128.542969 300.40625 129.742188 301.394531 C 130.941406 302.386719 132.191406 303.304688 133.5 304.144531 C 134.15625 304.566406 134.828125 304.964844 135.515625 305.339844 C 136.199219 305.710938 136.902344 306.070312 137.617188 306.394531 C 139.046875 307.046875 140.515625 307.589844 142.027344 308.015625 C 142.214844 308.070312 142.402344 308.117188 142.59375 308.167969 C 142.789062 308.21875 142.96875 308.269531 143.160156 308.3125 C 143.542969 308.402344 143.917969 308.492188 144.300781 308.566406 C 145.0625 308.726562 145.832031 308.84375 146.597656 308.949219 C 148.125 309.140625 149.660156 309.230469 151.203125 309.210938 C 154.238281 309.171875 157.226562 308.777344 160.171875 308.03125 C 163.054688 307.304688 165.84375 306.3125 168.53125 305.046875 C 169.867188 304.429688 171.164062 303.742188 172.429688 303.011719 C 173.691406 302.28125 174.910156 301.480469 176.082031 300.609375 C 174.742188 301.171875 173.394531 301.6875 172.035156 302.152344 C 170.675781 302.617188 169.304688 303.039062 167.933594 303.414062 C 165.207031 304.160156 162.4375 304.691406 159.625 305.011719 C 156.878906 305.328125 154.125 305.359375 151.367188 305.105469 C 148.683594 304.859375 146.074219 304.269531 143.539062 303.335938 C 142.300781 302.875 141.105469 302.328125 139.941406 301.695312 C 138.78125 301.0625 137.667969 300.359375 136.597656 299.578125 C 134.4375 298 132.46875 296.207031 130.695312 294.203125 C 129.820312 293.214844 129.003906 292.179688 128.253906 291.097656 C 127.523438 290.058594 126.882812 288.964844 126.335938 287.816406 C 126.082031 287.289062 125.863281 286.746094 125.683594 286.1875 C 125.523438 285.703125 125.414062 285.210938 125.355469 284.703125 C 125.308594 284.371094 125.320312 284.039062 125.394531 283.707031 C 125.410156 283.636719 125.4375 283.570312 125.476562 283.507812 C 125.484375 283.496094 125.484375 283.484375 125.5 283.472656 C 125.507812 283.460938 125.519531 283.449219 125.527344 283.433594 C 125.539062 283.421875 125.550781 283.410156 125.5625 283.394531 C 125.574219 283.378906 125.597656 283.363281 125.609375 283.347656 C 125.707031 283.257812 125.8125 283.179688 125.925781 283.113281 C 126.097656 283.019531 126.273438 282.933594 126.457031 282.859375 C 126.941406 282.679688 127.4375 282.542969 127.945312 282.457031 C 128.539062 282.351562 129.136719 282.277344 129.738281 282.238281 C 130.367188 282.195312 131.011719 282.183594 131.671875 282.179688 C 132.988281 282.179688 134.34375 282.273438 135.707031 282.390625 C 137.074219 282.507812 138.453125 282.691406 139.835938 282.890625 C 140.523438 282.988281 141.21875 283.097656 141.910156 283.210938 C 142.605469 283.328125 143.296875 283.449219 143.992188 283.570312 C 145.378906 283.824219 146.773438 284.089844 148.164062 284.378906 L 150.265625 284.8125 L 151.300781 285.035156 C 151.640625 285.109375 151.984375 285.179688 152.324219 285.261719 C 153.691406 285.566406 155.046875 285.914062 156.40625 286.285156 C 161.835938 287.777344 167.289062 289.671875 172.785156 291.445312 C 174.15625 291.890625 175.539062 292.332031 176.914062 292.769531 L 179.640625 293.636719 C 182.21875 295.046875 184.847656 296.371094 187.523438 297.609375 C 190.707031 299.089844 193.953125 300.4375 197.257812 301.65625 C 197.671875 301.8125 198.085938 301.960938 198.5 302.113281 C 198.914062 302.261719 199.328125 302.410156 199.742188 302.554688 C 200.578125 302.832031 201.410156 303.128906 202.246094 303.398438 C 203.085938 303.671875 203.910156 303.9375 204.742188 304.199219 C 205.574219 304.464844 206.40625 304.726562 207.238281 304.984375 C 210.578125 306.015625 213.960938 307.007812 217.480469 307.78125 C 219.265625 308.179688 221.066406 308.484375 222.882812 308.699219 L 223.230469 308.738281 L 223.578125 308.773438 L 224.273438 308.835938 L 224.980469 308.882812 L 225.332031 308.90625 L 225.6875 308.917969 C 226.628906 308.960938 227.585938 308.945312 228.546875 308.90625 C 230.5 308.8125 232.421875 308.511719 234.308594 307.996094 C 236.191406 307.476562 238 306.765625 239.738281 305.863281 C 240.59375 305.421875 241.421875 304.941406 242.230469 304.425781 C 243.035156 303.910156 243.8125 303.367188 244.570312 302.789062 C 246.078125 301.632812 247.488281 300.367188 248.800781 298.996094 C 250.121094 297.613281 251.320312 296.132812 252.394531 294.554688 C 252.941406 293.75 253.445312 292.917969 253.90625 292.058594 C 254.136719 291.625 254.359375 291.179688 254.570312 290.722656 C 254.78125 290.269531 254.976562 289.800781 255.152344 289.3125 C 255.535156 288.300781 255.8125 287.261719 255.980469 286.195312 C 256.074219 285.605469 256.117188 285.015625 256.113281 284.417969 C 256.109375 283.757812 256.035156 283.105469 255.886719 282.460938 C 255.71875 281.738281 255.449219 281.054688 255.070312 280.410156 Z M 255.070312 280.410156 "/></g><g clip-rule="nonzero" clip-path="url(#f03e176d0f)"><path style=" stroke:none;fill-rule:nonzero;fill:#8727b4;fill-opacity:1;" d="M 187.828125 139.703125 C 188.007812 139.902344 188.164062 140.078125 188.304688 140.234375 C 188.4375 140.085938 188.585938 139.917969 188.746094 139.726562 C 192.191406 135.742188 202.292969 122.785156 202.484375 103.476562 C 202.695312 82.542969 191.109375 68.757812 188.304688 65.59375 C 185.585938 68.582031 173.503906 82.511719 173.832031 103.765625 C 174.128906 122.972656 184.355469 135.785156 187.828125 139.703125 Z M 187.828125 139.703125 "/></g><path style=" stroke:none;fill-rule:nonzero;fill:#8727b4;fill-opacity:1;" d="M 262.703125 97.140625 C 258.667969 97.328125 240.277344 98.636719 225.476562 113.898438 C 211.429688 128.386719 210.125 145.640625 209.925781 149.917969 C 214.296875 149.65625 231.5 148.109375 245.941406 133.953125 C 260.890625 119.300781 262.449219 101.363281 262.703125 97.140625 Z M 262.703125 97.140625 "/><path style=" stroke:none;fill-rule:nonzero;fill:#8727b4;fill-opacity:1;" d="M 130.15625 133.128906 C 144.640625 147.175781 161.898438 148.476562 166.171875 148.679688 C 165.910156 144.308594 164.363281 127.101562 150.210938 112.660156 C 135.558594 97.714844 117.617188 96.15625 113.394531 95.902344 C 113.585938 99.9375 114.890625 118.328125 130.15625 133.128906 Z M 130.15625 133.128906 "/><g clip-rule="nonzero" clip-path="url(#c5097197ff)"><path style=" stroke:none;fill-rule:nonzero;fill:#8727b4;fill-opacity:1;" d="M 156.488281 170.300781 C 153.214844 167.394531 139.957031 156.320312 119.734375 156.117188 C 98.804688 155.910156 85.019531 167.496094 81.855469 170.300781 C 84.84375 173.019531 98.769531 185.097656 120.027344 184.769531 C 140.203125 184.460938 153.324219 173.179688 156.488281 170.300781 Z M 156.488281 170.300781 "/></g><g clip-rule="nonzero" clip-path="url(#b5459b0730)"><path style=" stroke:none;fill-rule:nonzero;fill:#8727b4;fill-opacity:1;" d="M 254.832031 157.578125 C 234.65625 157.890625 221.535156 169.167969 218.367188 172.050781 C 221.644531 174.953125 234.902344 186.03125 255.125 186.230469 C 276.054688 186.441406 289.839844 174.855469 293.003906 172.050781 C 290.015625 169.332031 276.089844 157.25 254.832031 157.578125 Z M 254.832031 157.578125 "/></g></g></svg>