<svg xmlns="http://www.w3.org/2000/svg" xmlns:xlink="http://www.w3.org/1999/xlink" width="500" zoomAndPan="magnify" viewBox="0 0 375 374.999991" height="500" preserveAspectRatio="xMidYMid meet" version="1.0"><defs><clipPath id="a4c937ab0b"><path d="M 187.5 0 C 83.945312 0 0 83.945312 0 187.5 C 0 291.054688 83.945312 375 187.5 375 C 291.054688 375 375 291.054688 375 187.5 C 375 83.945312 291.054688 0 187.5 0 Z M 187.5 0 " clip-rule="nonzero"/></clipPath><clipPath id="dd8452e544"><path d="M 0 0 L 375 0 L 375 375 L 0 375 Z M 0 0 " clip-rule="nonzero"/></clipPath><clipPath id="873532822d"><path d="M 187.5 0 C 83.945312 0 0 83.945312 0 187.5 C 0 291.054688 83.945312 375 187.5 375 C 291.054688 375 375 291.054688 375 187.5 C 375 83.945312 291.054688 0 187.5 0 Z M 187.5 0 " clip-rule="nonzero"/></clipPath><clipPath id="8ee1ca205b"><rect x="0" width="375" y="0" height="375"/></clipPath><clipPath id="189d2596ca"><path d="M 119 276 L 257 276 L 257 309.289062 L 119 309.289062 Z M 119 276 " clip-rule="nonzero"/></clipPath><clipPath id="503972a926"><path d="M 173 65.539062 L 203 65.539062 L 203 141 L 173 141 Z M 173 65.539062 " clip-rule="nonzero"/></clipPath><clipPath id="4c465f2234"><path d="M 81.851562 156 L 157 156 L 157 185 L 81.851562 185 Z M 81.851562 156 " clip-rule="nonzero"/></clipPath><clipPath id="30e0631c74"><path d="M 218 157 L 293.351562 157 L 293.351562 187 L 218 187 Z M 218 157 " clip-rule="nonzero"/></clipPath></defs><rect x="-37.5" width="450" fill="#ffffff" y="-37.499999" height="449.999989" fill-opacity="1"/><rect x="-37.5" width="450" fill="#1c1e1a" y="-37.499999" height="449.999989" fill-opacity="1"/><g clip-path="url(#a4c937ab0b)"><g transform="matrix(1, 0, 0, 1, 0, 0)"><g clip-path="url(#8ee1ca205b)"><g clip-path="url(#dd8452e544)"><g clip-path="url(#873532822d)"><rect x="-82.5" width="540" fill="#2a2d24" height="539.999987" y="-82.499998" fill-opacity="1"/></g></g></g></g></g><path fill="#8727b4" d="M 164.492188 164.730469 C 164.375 165.363281 164.277344 165.996094 164.199219 166.636719 C 164.121094 167.273438 164.070312 167.910156 164.039062 168.546875 C 164.007812 169.183594 164.003906 169.824219 164.011719 170.445312 L 164.023438 170.894531 L 164.042969 171.378906 L 164.0625 171.859375 C 164.074219 172.023438 164.089844 172.183594 164.101562 172.34375 L 164.140625 172.824219 C 164.15625 172.984375 164.175781 173.144531 164.195312 173.304688 L 164.253906 173.785156 C 164.277344 173.945312 164.300781 174.101562 164.328125 174.261719 C 164.523438 175.53125 164.816406 176.78125 165.195312 178.007812 C 165.242188 178.160156 165.292969 178.3125 165.34375 178.464844 L 165.5 178.917969 C 165.601562 179.21875 165.71875 179.515625 165.828125 179.8125 C 165.941406 180.113281 166.066406 180.402344 166.191406 180.695312 C 166.320312 180.984375 166.445312 181.277344 166.585938 181.5625 C 167.121094 182.703125 167.730469 183.804688 168.40625 184.871094 C 169.078125 185.925781 169.808594 186.9375 170.601562 187.910156 C 171.214844 188.664062 171.863281 189.390625 172.542969 190.089844 C 172.769531 191.34375 172.773438 192.550781 172.496094 193.632812 C 172.328125 194.277344 172.066406 194.882812 171.707031 195.449219 C 171.667969 195.519531 171.621094 195.585938 171.574219 195.652344 L 171.433594 195.847656 L 171.28125 196.035156 C 171.253906 196.066406 171.230469 196.097656 171.207031 196.128906 L 171.125 196.214844 C 170.90625 196.453125 170.671875 196.667969 170.414062 196.863281 C 170.140625 197.070312 169.851562 197.257812 169.550781 197.421875 C 169.230469 197.589844 168.890625 197.75 168.523438 197.898438 C 168.160156 198.046875 167.765625 198.183594 167.351562 198.316406 C 167.152344 198.382812 166.933594 198.445312 166.726562 198.511719 L 166.074219 198.699219 C 165.1875 198.949219 164.25 199.203125 163.28125 199.503906 C 162.800781 199.652344 162.308594 199.820312 161.820312 200 C 161.332031 200.175781 160.835938 200.382812 160.347656 200.609375 C 159.34375 201.0625 158.394531 201.605469 157.5 202.246094 C 155.648438 203.554688 154.183594 205.210938 153.105469 207.207031 C 152.597656 208.15625 152.179688 209.144531 151.847656 210.171875 C 151.535156 211.15625 151.28125 212.152344 151.089844 213.164062 C 150.894531 214.15625 150.753906 215.136719 150.636719 216.109375 C 150.40625 218.058594 150.269531 219.96875 150.136719 221.859375 C 150.003906 223.75 149.875 225.621094 149.703125 227.480469 C 149.527344 229.339844 149.3125 231.183594 149.023438 233.019531 C 148.457031 236.695312 147.578125 240.296875 146.375 243.820312 C 145.769531 245.578125 145.085938 247.3125 144.324219 249.019531 C 144.132812 249.445312 143.933594 249.867188 143.734375 250.292969 L 143.425781 250.921875 C 143.324219 251.132812 143.222656 251.34375 143.113281 251.550781 C 142.902344 251.96875 142.691406 252.390625 142.46875 252.800781 C 142.246094 253.210938 142.023438 253.628906 141.796875 254.039062 C 139.945312 257.335938 137.847656 260.46875 135.507812 263.4375 C 138.195312 260.726562 140.613281 257.792969 142.769531 254.640625 C 144.945312 251.464844 146.796875 248.109375 148.324219 244.574219 C 149.851562 241.011719 151.035156 237.339844 151.871094 233.554688 C 152.726562 229.789062 153.246094 225.960938 153.714844 222.207031 C 153.957031 220.328125 154.191406 218.46875 154.503906 216.667969 C 154.820312 214.871094 155.210938 213.125 155.808594 211.550781 C 156.101562 210.785156 156.453125 210.050781 156.871094 209.34375 C 157.277344 208.675781 157.753906 208.058594 158.296875 207.492188 C 158.847656 206.9375 159.449219 206.449219 160.101562 206.019531 C 160.773438 205.585938 161.480469 205.21875 162.222656 204.925781 C 162.597656 204.765625 162.992188 204.632812 163.390625 204.496094 C 163.789062 204.363281 164.207031 204.246094 164.636719 204.132812 C 165.484375 203.898438 166.382812 203.695312 167.328125 203.464844 L 168.042969 203.285156 C 168.289062 203.21875 168.53125 203.160156 168.78125 203.085938 C 169.273438 202.953125 169.785156 202.789062 170.300781 202.609375 C 170.835938 202.414062 171.359375 202.195312 171.871094 201.945312 C 172.414062 201.675781 172.933594 201.371094 173.429688 201.023438 C 173.558594 200.941406 173.679688 200.839844 173.800781 200.746094 C 173.925781 200.652344 174.050781 200.558594 174.167969 200.453125 L 174.523438 200.140625 C 174.636719 200.035156 174.75 199.921875 174.859375 199.8125 L 175.027344 199.644531 C 175.082031 199.585938 175.132812 199.527344 175.183594 199.46875 L 175.496094 199.113281 C 175.589844 198.992188 175.6875 198.871094 175.78125 198.742188 C 175.878906 198.613281 175.96875 198.492188 176.054688 198.367188 C 176.761719 197.347656 177.285156 196.242188 177.632812 195.050781 C 177.964844 193.886719 178.125 192.703125 178.121094 191.496094 C 178.121094 190.917969 178.089844 190.34375 178.019531 189.769531 C 177.957031 189.203125 177.863281 188.648438 177.746094 188.109375 L 177.585938 187.363281 L 177.007812 186.769531 C 175.5625 185.28125 174.304688 183.652344 173.234375 181.878906 C 172.703125 181.003906 172.230469 180.097656 171.816406 179.164062 C 171.707031 178.933594 171.617188 178.699219 171.519531 178.464844 C 171.421875 178.230469 171.335938 178 171.246094 177.757812 C 171.15625 177.519531 171.078125 177.28125 171 177.042969 L 170.886719 176.683594 C 170.847656 176.566406 170.8125 176.445312 170.78125 176.324219 C 170.503906 175.363281 170.296875 174.390625 170.160156 173.398438 L 170.109375 173.027344 L 170.070312 172.652344 C 170.058594 172.53125 170.046875 172.40625 170.035156 172.28125 L 170.011719 171.90625 C 170.003906 171.785156 169.996094 171.660156 169.988281 171.535156 L 169.980469 171.160156 L 169.972656 170.789062 L 169.972656 170.382812 C 169.972656 169.863281 169.988281 169.363281 170.019531 168.859375 C 170.050781 168.359375 170.097656 167.863281 170.164062 167.367188 C 170.234375 166.875 170.316406 166.382812 170.414062 165.898438 C 170.515625 165.410156 170.636719 164.933594 170.769531 164.457031 C 171.308594 162.570312 172.132812 160.820312 173.25 159.203125 C 173.804688 158.40625 174.421875 157.664062 175.101562 156.972656 C 175.796875 156.253906 176.539062 155.585938 177.328125 154.972656 C 178.875 153.761719 180.570312 152.824219 182.417969 152.160156 C 183.320312 151.839844 184.242188 151.605469 185.183594 151.453125 C 186.125 151.300781 187.070312 151.242188 188.023438 151.265625 C 189.945312 151.3125 191.792969 151.703125 193.570312 152.4375 C 195.386719 153.191406 197.042969 154.207031 198.535156 155.488281 C 198.910156 155.808594 199.277344 156.140625 199.628906 156.488281 C 199.808594 156.664062 199.980469 156.839844 200.152344 157.023438 C 200.324219 157.203125 200.492188 157.382812 200.675781 157.589844 C 201.320312 158.3125 201.90625 159.082031 202.429688 159.898438 C 202.5 159.996094 202.558594 160.101562 202.617188 160.207031 C 202.679688 160.308594 202.746094 160.410156 202.804688 160.515625 C 202.921875 160.726562 203.042969 160.9375 203.152344 161.152344 C 203.378906 161.578125 203.582031 162.019531 203.769531 162.464844 C 203.960938 162.914062 204.125 163.371094 204.28125 163.835938 C 204.433594 164.296875 204.558594 164.765625 204.683594 165.25 C 204.914062 166.214844 205.078125 167.191406 205.164062 168.179688 C 205.210938 168.679688 205.238281 169.179688 205.25 169.6875 C 205.253906 169.941406 205.257812 170.199219 205.257812 170.460938 L 205.257812 170.664062 C 205.257812 170.730469 205.257812 170.789062 205.253906 170.847656 L 205.242188 171.222656 C 205.171875 173.226562 204.8125 175.175781 204.160156 177.074219 C 203.835938 178.03125 203.449219 178.964844 203 179.871094 C 202.542969 180.789062 202.035156 181.679688 201.472656 182.539062 C 200.332031 184.28125 199.015625 185.882812 197.527344 187.339844 L 196.917969 187.933594 L 196.746094 188.691406 C 196.476562 189.820312 196.34375 190.96875 196.339844 192.128906 C 196.335938 193.371094 196.519531 194.578125 196.898438 195.757812 L 196.972656 195.984375 C 196.996094 196.058594 197.027344 196.128906 197.054688 196.203125 L 197.226562 196.644531 C 197.289062 196.789062 197.355469 196.929688 197.421875 197.074219 L 197.523438 197.285156 C 197.558594 197.355469 197.597656 197.425781 197.636719 197.492188 L 197.863281 197.90625 C 197.941406 198.042969 198.03125 198.171875 198.113281 198.304688 L 198.242188 198.503906 L 198.308594 198.601562 L 198.378906 198.695312 L 198.667969 199.078125 C 198.761719 199.207031 198.871094 199.328125 198.976562 199.453125 C 199.082031 199.574219 199.1875 199.695312 199.300781 199.8125 L 199.644531 200.148438 C 199.703125 200.203125 199.757812 200.261719 199.820312 200.3125 L 200.007812 200.46875 C 200.128906 200.574219 200.25 200.679688 200.378906 200.777344 L 200.761719 201.054688 C 200.890625 201.148438 201.023438 201.234375 201.15625 201.316406 C 201.285156 201.402344 201.417969 201.488281 201.550781 201.5625 C 202.554688 202.132812 203.617188 202.574219 204.726562 202.890625 C 205.757812 203.195312 206.746094 203.40625 207.6875 203.601562 C 208.628906 203.796875 209.535156 203.976562 210.394531 204.183594 C 211.222656 204.378906 212.042969 204.621094 212.84375 204.910156 C 213.601562 205.183594 214.328125 205.523438 215.023438 205.9375 C 215.695312 206.335938 216.316406 206.800781 216.886719 207.335938 C 216.960938 207.398438 217.023438 207.46875 217.09375 207.535156 C 217.160156 207.605469 217.230469 207.671875 217.292969 207.742188 C 217.421875 207.886719 217.554688 208.023438 217.671875 208.175781 C 217.921875 208.472656 218.148438 208.785156 218.359375 209.109375 C 218.792969 209.789062 219.152344 210.507812 219.441406 211.261719 C 220.046875 212.808594 220.417969 214.550781 220.707031 216.351562 C 221 218.148438 221.1875 220.023438 221.402344 221.90625 C 221.808594 225.679688 222.28125 229.535156 223.125 233.324219 C 223.539062 235.21875 224.046875 237.089844 224.644531 238.941406 C 225.84375 242.632812 227.410156 246.160156 229.339844 249.523438 C 229.460938 249.734375 229.582031 249.941406 229.703125 250.148438 L 230.070312 250.769531 C 230.320312 251.179688 230.578125 251.585938 230.828125 251.992188 C 231.082031 252.402344 231.351562 252.796875 231.621094 253.195312 L 232.027344 253.789062 C 232.160156 253.988281 232.296875 254.1875 232.4375 254.382812 C 234.632812 257.515625 237.121094 260.40625 239.894531 263.042969 C 237.464844 260.136719 235.300781 257.042969 233.410156 253.757812 C 231.519531 250.511719 229.945312 247.121094 228.683594 243.582031 C 227.445312 240.070312 226.550781 236.46875 226 232.785156 C 225.859375 231.867188 225.738281 230.949219 225.636719 230.023438 C 225.53125 229.097656 225.441406 228.171875 225.367188 227.242188 C 225.214844 225.375 225.113281 223.511719 225.015625 221.613281 C 224.917969 219.714844 224.8125 217.800781 224.613281 215.839844 C 224.511719 214.859375 224.378906 213.871094 224.191406 212.867188 C 224.003906 211.839844 223.75 210.832031 223.421875 209.839844 C 223.082031 208.796875 222.636719 207.800781 222.09375 206.847656 C 221.527344 205.871094 220.851562 204.972656 220.070312 204.15625 C 219.289062 203.347656 218.429688 202.640625 217.488281 202.023438 C 216.570312 201.421875 215.605469 200.914062 214.589844 200.496094 C 213.621094 200.101562 212.632812 199.761719 211.625 199.484375 C 210.652344 199.203125 209.699219 198.984375 208.792969 198.757812 C 207.886719 198.53125 207.023438 198.304688 206.246094 198.046875 C 205.53125 197.820312 204.851562 197.511719 204.210938 197.125 C 204.140625 197.082031 204.074219 197.03125 204.007812 196.988281 C 203.9375 196.945312 203.875 196.898438 203.8125 196.847656 L 203.625 196.699219 C 203.566406 196.648438 203.511719 196.59375 203.453125 196.542969 L 203.367188 196.46875 C 203.339844 196.441406 203.316406 196.414062 203.289062 196.382812 C 203.238281 196.328125 203.183594 196.273438 203.132812 196.21875 C 203.078125 196.167969 203.039062 196.101562 202.988281 196.042969 C 202.9375 195.984375 202.890625 195.921875 202.847656 195.855469 C 202.804688 195.792969 202.757812 195.730469 202.714844 195.671875 L 202.679688 195.621094 L 202.648438 195.570312 L 202.589844 195.46875 C 202.550781 195.398438 202.507812 195.332031 202.46875 195.261719 L 202.359375 195.046875 C 202.34375 195.011719 202.324219 194.976562 202.304688 194.941406 L 202.261719 194.832031 L 202.167969 194.609375 L 202.089844 194.382812 C 202.074219 194.347656 202.0625 194.308594 202.050781 194.269531 L 202.019531 194.15625 C 201.835938 193.507812 201.757812 192.847656 201.785156 192.171875 C 201.796875 191.8125 201.828125 191.453125 201.886719 191.097656 C 201.90625 190.984375 201.925781 190.867188 201.945312 190.753906 C 203.53125 189.210938 204.953125 187.527344 206.210938 185.707031 C 206.921875 184.667969 207.566406 183.59375 208.152344 182.480469 C 208.742188 181.355469 209.253906 180.195312 209.683594 179 C 210.570312 176.5625 211.078125 174.054688 211.214844 171.46875 C 211.347656 168.976562 211.183594 166.378906 210.605469 163.847656 C 209.726562 159.929688 207.957031 156.46875 205.296875 153.460938 C 205.101562 153.238281 204.882812 152.996094 204.664062 152.765625 C 204.445312 152.535156 204.222656 152.300781 203.992188 152.070312 C 203.535156 151.617188 203.0625 151.179688 202.574219 150.757812 C 201.585938 149.914062 200.539062 149.148438 199.4375 148.464844 C 198.878906 148.121094 198.320312 147.789062 197.730469 147.492188 C 197.441406 147.339844 197.140625 147.203125 196.84375 147.058594 C 196.695312 146.988281 196.542969 146.925781 196.390625 146.859375 C 196.238281 146.792969 196.089844 146.722656 195.933594 146.664062 C 193.445312 145.636719 190.855469 145.09375 188.167969 145.03125 C 186.832031 145 185.507812 145.089844 184.1875 145.304688 C 182.875 145.519531 181.589844 145.847656 180.335938 146.296875 C 177.851562 147.195312 175.578125 148.464844 173.511719 150.105469 C 172.503906 150.898438 171.554688 151.761719 170.671875 152.691406 C 169.757812 153.636719 168.929688 154.65625 168.1875 155.742188 C 166.707031 157.929688 165.621094 160.296875 164.933594 162.847656 C 164.765625 163.46875 164.617188 164.09375 164.492188 164.730469 Z M 164.492188 164.730469 " fill-opacity="1" fill-rule="nonzero"/><path fill="#8727b4" d="M 169.8125 222.746094 C 169.253906 222.675781 168.648438 228.796875 166.226562 236.425781 C 163.929688 243.675781 160.726562 253.78125 151.960938 261.480469 C 151.320312 262.039062 150.539062 262.691406 149.601562 263.386719 C 146.128906 265.964844 140.539062 269.183594 132.335938 270.953125 C 144.308594 273.640625 154.476562 272.464844 159.320312 269.691406 C 162.375 267.941406 164.988281 265.507812 164.988281 265.507812 C 165.824219 264.851562 166.589844 264.125 167.285156 263.320312 C 167.839844 262.679688 168.335938 261.992188 168.769531 261.257812 C 170.953125 257.5625 170.90625 253.785156 170.800781 249.664062 C 170.75 247.78125 170.578125 245.910156 170.285156 244.046875 C 168.5625 232.472656 170.527344 222.828125 169.8125 222.746094 Z M 169.8125 222.746094 " fill-opacity="1" fill-rule="nonzero"/><path fill="#8727b4" d="M 204.625 249.664062 C 204.519531 253.785156 204.46875 257.5625 206.65625 261.257812 C 207.054688 261.933594 207.507812 262.574219 208.015625 263.171875 C 208.742188 264.035156 209.550781 264.8125 210.4375 265.503906 C 210.4375 265.503906 213.050781 267.9375 216.109375 269.6875 C 220.949219 272.460938 231.121094 273.640625 243.089844 270.949219 C 234.59375 269.117188 228.902344 265.726562 225.460938 263.105469 C 224.683594 262.515625 224.019531 261.960938 223.464844 261.476562 C 214.699219 253.777344 211.492188 243.671875 209.199219 236.425781 C 206.777344 228.792969 206.179688 222.671875 205.613281 222.742188 C 204.902344 222.828125 206.867188 232.46875 205.148438 244.046875 C 204.851562 245.90625 204.675781 247.78125 204.625 249.664062 Z M 204.625 249.664062 " fill-opacity="1" fill-rule="nonzero"/><g clip-path="url(#189d2596ca)"><path fill="#8727b4" d="M 255.1875 280.554688 C 254.800781 279.898438 254.316406 279.324219 253.742188 278.824219 C 253.230469 278.375 252.671875 278 252.0625 277.695312 C 251.527344 277.425781 250.972656 277.203125 250.402344 277.027344 C 249.878906 276.863281 249.347656 276.730469 248.808594 276.628906 C 248.292969 276.535156 247.78125 276.460938 247.285156 276.40625 C 246.316406 276.3125 245.34375 276.269531 244.367188 276.277344 C 242.519531 276.304688 240.679688 276.441406 238.847656 276.6875 C 235.257812 277.152344 231.789062 277.878906 228.367188 278.683594 C 226.65625 279.085938 224.960938 279.515625 223.273438 279.949219 L 220.710938 280.636719 C 219.859375 280.882812 219.011719 281.140625 218.164062 281.390625 C 214.785156 282.433594 211.46875 283.640625 208.214844 285.003906 C 204.972656 286.367188 201.804688 287.890625 198.714844 289.574219 C 197.945312 289.988281 197.179688 290.421875 196.421875 290.859375 C 196.042969 291.074219 195.667969 291.304688 195.289062 291.527344 C 194.914062 291.75 194.535156 291.96875 194.171875 292.203125 C 192.679688 293.125 191.21875 294.074219 189.789062 295.074219 C 191.390625 294.386719 192.988281 293.695312 194.597656 293.042969 C 196.207031 292.386719 197.816406 291.75 199.441406 291.152344 C 202.683594 289.949219 205.949219 288.851562 209.246094 287.882812 C 212.542969 286.910156 215.867188 286.070312 219.207031 285.347656 L 221.71875 284.835938 L 224.234375 284.367188 C 225.941406 284.0625 227.648438 283.769531 229.339844 283.484375 C 231.035156 283.199219 232.726562 282.9375 234.410156 282.710938 C 236.09375 282.484375 237.765625 282.289062 239.429688 282.15625 C 241.054688 282.015625 242.679688 281.96875 244.308594 282.007812 C 245.074219 282.027344 245.835938 282.089844 246.59375 282.191406 C 246.957031 282.246094 247.308594 282.304688 247.640625 282.378906 C 247.957031 282.449219 248.265625 282.539062 248.570312 282.644531 C 248.824219 282.730469 249.070312 282.839844 249.308594 282.96875 C 249.480469 283.058594 249.632812 283.171875 249.777344 283.300781 C 249.859375 283.378906 249.929688 283.464844 249.980469 283.566406 C 250.039062 283.683594 250.078125 283.808594 250.101562 283.941406 C 250.167969 284.273438 250.167969 284.792969 250.066406 285.382812 C 249.945312 286.03125 249.761719 286.664062 249.515625 287.277344 C 249 288.589844 248.25 289.933594 247.371094 291.203125 C 246.933594 291.839844 246.460938 292.460938 245.972656 293.066406 C 245.480469 293.671875 244.945312 294.261719 244.40625 294.832031 C 243.867188 295.402344 243.292969 295.953125 242.710938 296.484375 C 242.125 297.015625 241.515625 297.519531 240.894531 298 C 239.664062 298.960938 238.355469 299.8125 236.976562 300.554688 C 234.957031 301.660156 232.816406 302.421875 230.550781 302.839844 L 229.992188 302.933594 C 229.898438 302.949219 229.804688 302.964844 229.710938 302.980469 L 229.425781 303.015625 C 229.238281 303.039062 229.046875 303.070312 228.855469 303.085938 L 228.277344 303.140625 C 227.503906 303.199219 226.726562 303.238281 225.933594 303.226562 C 225.539062 303.226562 225.140625 303.210938 224.742188 303.203125 L 223.839844 303.15625 L 223.539062 303.132812 C 221.925781 303.007812 220.289062 302.796875 218.640625 302.515625 C 216.992188 302.234375 215.332031 301.902344 213.664062 301.539062 C 211.996094 301.175781 210.320312 300.785156 208.636719 300.390625 L 206.113281 299.785156 C 205.273438 299.582031 204.421875 299.382812 203.597656 299.175781 C 202.769531 298.972656 201.933594 298.765625 201.101562 298.554688 L 199.859375 298.226562 C 199.441406 298.117188 199.027344 298.007812 198.617188 297.890625 C 195.308594 296.980469 192.015625 295.984375 188.746094 294.898438 C 185.976562 293.988281 183.230469 293.015625 180.507812 291.980469 C 178.34375 290.871094 176.164062 289.808594 173.984375 288.757812 C 171.375 287.503906 168.753906 286.269531 166.09375 285.085938 C 163.433594 283.902344 160.730469 282.769531 157.945312 281.761719 C 156.554688 281.257812 155.148438 280.785156 153.71875 280.355469 C 153.363281 280.242188 153.003906 280.144531 152.648438 280.039062 L 151.582031 279.738281 C 150.882812 279.546875 150.183594 279.351562 149.472656 279.164062 C 148.054688 278.792969 146.628906 278.429688 145.191406 278.101562 C 144.472656 277.9375 143.75 277.777344 143.027344 277.625 C 142.304688 277.472656 141.574219 277.328125 140.839844 277.195312 C 139.375 276.921875 137.890625 276.695312 136.390625 276.511719 C 134.886719 276.324219 133.359375 276.203125 131.789062 276.164062 C 131.003906 276.144531 130.207031 276.15625 129.394531 276.199219 C 128.554688 276.242188 127.71875 276.335938 126.890625 276.476562 C 125.972656 276.628906 125.082031 276.871094 124.210938 277.203125 C 123.722656 277.394531 123.246094 277.621094 122.789062 277.886719 C 122.28125 278.1875 121.804688 278.535156 121.371094 278.9375 C 121.257812 279.050781 121.144531 279.15625 121.035156 279.273438 C 120.925781 279.394531 120.820312 279.515625 120.714844 279.636719 C 120.609375 279.761719 120.515625 279.902344 120.417969 280.035156 C 120.320312 280.167969 120.230469 280.316406 120.144531 280.457031 C 119.8125 281.015625 119.566406 281.613281 119.398438 282.242188 C 119.25 282.8125 119.164062 283.386719 119.140625 283.972656 C 119.117188 284.5 119.136719 285.023438 119.195312 285.546875 C 119.3125 286.476562 119.519531 287.386719 119.824219 288.277344 C 120.097656 289.089844 120.425781 289.882812 120.808594 290.652344 C 121.179688 291.398438 121.578125 292.109375 122.003906 292.796875 C 122.429688 293.480469 122.875 294.144531 123.34375 294.78125 C 124.273438 296.046875 125.28125 297.246094 126.363281 298.382812 C 127.4375 299.503906 128.574219 300.5625 129.777344 301.550781 C 130.972656 302.546875 132.226562 303.464844 133.535156 304.304688 C 134.191406 304.726562 134.863281 305.125 135.550781 305.5 C 136.238281 305.875 136.9375 306.234375 137.65625 306.558594 C 139.085938 307.210938 140.554688 307.75 142.070312 308.179688 C 142.257812 308.234375 142.441406 308.28125 142.636719 308.332031 C 142.828125 308.382812 143.007812 308.433594 143.203125 308.476562 C 143.582031 308.566406 143.960938 308.65625 144.34375 308.730469 C 145.105469 308.890625 145.875 309.007812 146.640625 309.113281 C 148.171875 309.304688 149.707031 309.394531 151.25 309.375 C 154.285156 309.335938 157.277344 308.941406 160.222656 308.191406 C 163.109375 307.46875 165.898438 306.472656 168.589844 305.210938 C 169.925781 304.589844 171.226562 303.902344 172.492188 303.171875 C 173.753906 302.441406 174.972656 301.636719 176.144531 300.765625 C 174.804688 301.332031 173.453125 301.847656 172.097656 302.3125 C 170.738281 302.777344 169.367188 303.199219 167.992188 303.574219 C 165.261719 304.320312 162.492188 304.855469 159.679688 305.175781 C 156.925781 305.488281 154.171875 305.519531 151.414062 305.269531 C 148.726562 305.019531 146.117188 304.429688 143.582031 303.496094 C 142.34375 303.035156 141.144531 302.488281 139.980469 301.855469 C 138.820312 301.222656 137.703125 300.515625 136.632812 299.734375 C 134.472656 298.15625 132.503906 296.363281 130.726562 294.355469 C 129.851562 293.367188 129.035156 292.332031 128.285156 291.25 C 127.554688 290.207031 126.914062 289.113281 126.367188 287.96875 C 126.113281 287.4375 125.894531 286.894531 125.710938 286.335938 C 125.550781 285.851562 125.441406 285.355469 125.382812 284.851562 C 125.335938 284.515625 125.351562 284.183594 125.421875 283.855469 C 125.441406 283.78125 125.46875 283.714844 125.503906 283.652344 C 125.515625 283.644531 125.515625 283.628906 125.527344 283.617188 C 125.539062 283.609375 125.546875 283.59375 125.554688 283.582031 C 125.570312 283.570312 125.582031 283.554688 125.59375 283.542969 C 125.605469 283.527344 125.625 283.511719 125.640625 283.492188 C 125.738281 283.40625 125.84375 283.328125 125.957031 283.261719 C 126.128906 283.164062 126.304688 283.078125 126.484375 283.007812 C 126.96875 282.824219 127.46875 282.691406 127.976562 282.601562 C 128.570312 282.496094 129.167969 282.421875 129.773438 282.382812 C 130.398438 282.339844 131.046875 282.328125 131.703125 282.328125 C 133.023438 282.328125 134.378906 282.421875 135.742188 282.539062 C 137.109375 282.65625 138.488281 282.839844 139.875 283.035156 C 140.566406 283.136719 141.257812 283.242188 141.949219 283.359375 C 142.644531 283.476562 143.339844 283.59375 144.035156 283.71875 C 145.421875 283.972656 146.816406 284.238281 148.210938 284.523438 L 150.308594 284.960938 L 151.347656 285.179688 C 151.6875 285.257812 152.03125 285.328125 152.375 285.40625 C 153.738281 285.714844 155.097656 286.0625 156.457031 286.433594 C 161.890625 287.925781 167.347656 289.820312 172.847656 291.597656 C 174.21875 292.042969 175.601562 292.484375 176.976562 292.921875 L 179.707031 293.789062 C 182.285156 295.203125 184.914062 296.527344 187.59375 297.765625 C 190.78125 299.246094 194.027344 300.59375 197.335938 301.816406 C 197.75 301.972656 198.164062 302.121094 198.578125 302.269531 C 198.992188 302.417969 199.40625 302.570312 199.824219 302.714844 C 200.65625 302.992188 201.488281 303.289062 202.328125 303.558594 C 203.167969 303.832031 203.992188 304.097656 204.824219 304.363281 C 205.65625 304.625 206.488281 304.886719 207.324219 305.144531 C 210.664062 306.179688 214.050781 307.171875 217.570312 307.941406 C 219.355469 308.34375 221.160156 308.648438 222.980469 308.863281 L 223.324219 308.902344 L 223.671875 308.9375 L 224.371094 309 L 225.074219 309.046875 L 225.429688 309.070312 L 225.78125 309.082031 C 226.726562 309.125 227.683594 309.109375 228.648438 309.070312 C 230.601562 308.976562 232.523438 308.675781 234.410156 308.160156 C 236.296875 307.636719 238.105469 306.925781 239.84375 306.027344 C 240.703125 305.585938 241.53125 305.101562 242.335938 304.585938 C 243.144531 304.070312 243.921875 303.527344 244.679688 302.949219 C 246.1875 301.792969 247.601562 300.527344 248.914062 299.152344 C 250.234375 297.769531 251.433594 296.289062 252.507812 294.710938 C 253.054688 293.902344 253.558594 293.070312 254.019531 292.210938 C 254.253906 291.777344 254.476562 291.332031 254.6875 290.875 C 254.898438 290.421875 255.089844 289.949219 255.269531 289.464844 C 255.652344 288.453125 255.929688 287.410156 256.097656 286.34375 C 256.191406 285.753906 256.234375 285.160156 256.230469 284.566406 C 256.226562 283.90625 256.152344 283.253906 256.003906 282.609375 C 255.835938 281.882812 255.566406 281.199219 255.1875 280.554688 Z M 255.1875 280.554688 " fill-opacity="1" fill-rule="nonzero"/></g><g clip-path="url(#503972a926)"><path fill="#8727b4" d="M 187.902344 139.753906 C 188.078125 139.953125 188.238281 140.128906 188.375 140.285156 C 188.507812 140.136719 188.65625 139.96875 188.820312 139.777344 C 192.265625 135.789062 202.375 122.820312 202.566406 103.5 C 202.777344 82.554688 191.183594 68.761719 188.375 65.59375 C 185.65625 68.585938 173.566406 82.523438 173.894531 103.792969 C 174.191406 123.011719 184.421875 135.832031 187.902344 139.753906 Z M 187.902344 139.753906 " fill-opacity="1" fill-rule="nonzero"/></g><path fill="#8727b4" d="M 262.824219 97.164062 C 258.785156 97.347656 240.382812 98.660156 225.574219 113.933594 C 211.515625 128.429688 210.210938 145.695312 210.011719 149.972656 C 214.382812 149.710938 231.601562 148.164062 246.054688 134 C 261.011719 119.339844 262.570312 101.386719 262.824219 97.164062 Z M 262.824219 97.164062 " fill-opacity="1" fill-rule="nonzero"/><path fill="#8727b4" d="M 130.1875 133.175781 C 144.683594 147.230469 161.949219 148.535156 166.230469 148.734375 C 165.964844 144.363281 164.421875 127.144531 150.253906 112.691406 C 135.59375 97.734375 117.640625 96.179688 113.417969 95.925781 C 113.609375 99.960938 114.914062 118.363281 130.1875 133.175781 Z M 130.1875 133.175781 " fill-opacity="1" fill-rule="nonzero"/><g clip-path="url(#4c465f2234)"><path fill="#8727b4" d="M 156.539062 170.371094 C 153.261719 167.464844 139.996094 156.382812 119.757812 156.179688 C 98.816406 155.96875 85.019531 167.5625 81.855469 170.371094 C 84.84375 173.089844 98.78125 185.179688 120.054688 184.851562 C 140.242188 184.542969 153.375 173.253906 156.539062 170.371094 Z M 156.539062 170.371094 " fill-opacity="1" fill-rule="nonzero"/></g><g clip-path="url(#30e0631c74)"><path fill="#8727b4" d="M 254.949219 157.640625 C 234.757812 157.949219 221.628906 169.238281 218.460938 172.121094 C 221.738281 175.027344 235.003906 186.109375 255.242188 186.3125 C 276.183594 186.523438 289.980469 174.929688 293.144531 172.121094 C 290.15625 169.402344 276.21875 157.3125 254.949219 157.640625 Z M 254.949219 157.640625 " fill-opacity="1" fill-rule="nonzero"/></g></svg>