<svg xmlns="http://www.w3.org/2000/svg" xmlns:xlink="http://www.w3.org/1999/xlink" width="500" zoomAndPan="magnify" viewBox="0 0 375 374.999991" height="500" preserveAspectRatio="xMidYMid meet" version="1.0"><defs><clipPath id="6ef6b13287"><path d="M 187.5 0 C 83.945312 0 0 83.945312 0 187.5 C 0 291.054688 83.945312 375 187.5 375 C 291.054688 375 375 291.054688 375 187.5 C 375 83.945312 291.054688 0 187.5 0 Z M 187.5 0 " clip-rule="nonzero"/></clipPath><clipPath id="5c336ddb99"><path d="M 0 0 L 375 0 L 375 375 L 0 375 Z M 0 0 " clip-rule="nonzero"/></clipPath><clipPath id="cba0138f66"><path d="M 187.5 0 C 83.945312 0 0 83.945312 0 187.5 C 0 291.054688 83.945312 375 187.5 375 C 291.054688 375 375 291.054688 375 187.5 C 375 83.945312 291.054688 0 187.5 0 Z M 187.5 0 " clip-rule="nonzero"/></clipPath><clipPath id="f1a179e15b"><rect x="0" width="375" y="0" height="375"/></clipPath><clipPath id="ec1a78dcef"><path d="M 90 73.449219 L 278 73.449219 L 278 234 L 90 234 Z M 90 73.449219 " clip-rule="nonzero"/></clipPath></defs><rect x="-37.5" width="450" fill="#ffffff" y="-37.499999" height="449.999989" fill-opacity="1"/><rect x="-37.5" width="450" fill="#1c1e1a" y="-37.499999" height="449.999989" fill-opacity="1"/><g clip-path="url(#6ef6b13287)"><g transform="matrix(1, 0, 0, 1, 0, 0)"><g clip-path="url(#f1a179e15b)"><g clip-path="url(#5c336ddb99)"><g clip-path="url(#cba0138f66)"><rect x="-82.5" width="540" fill="#2a2d24" height="539.999987" y="-82.499998" fill-opacity="1"/></g></g></g></g></g><path fill="#f0f8fa" d="M 297.691406 247.597656 C 296.515625 224.429688 277.585938 206.382812 254.746094 205.9375 C 248.082031 189.875 231.863281 178.960938 213.492188 179.898438 C 210.304688 180.058594 207.222656 180.574219 204.253906 181.394531 C 198.671875 168.191406 185.273438 159.25 170.121094 160.023438 C 151.464844 160.96875 136.964844 176.308594 136.785156 194.738281 C 134.363281 194.1875 131.824219 193.953125 129.222656 194.089844 C 113.957031 194.863281 102.214844 207.878906 102.988281 223.136719 C 103.050781 224.214844 103.167969 225.285156 103.335938 226.316406 C 103.285156 226.328125 103.222656 226.328125 103.160156 226.328125 C 87.890625 227.101562 76.148438 240.117188 76.925781 255.375 C 77.707031 270.644531 90.714844 282.382812 105.972656 281.609375 C 110.648438 281.367188 114.988281 279.988281 118.738281 277.742188 C 125.519531 290.925781 139.566406 299.628906 155.332031 298.835938 C 164.632812 298.355469 172.996094 294.652344 179.402344 288.851562 C 184.71875 293.964844 192.050781 296.957031 200.007812 296.546875 C 210.285156 296.023438 218.972656 289.949219 223.308594 281.378906 C 231.746094 289.546875 243.425781 294.328125 256.082031 293.6875 C 280.304688 292.449219 298.929688 271.8125 297.691406 247.597656 " fill-opacity="1" fill-rule="nonzero"/><path stroke-linecap="round" transform="matrix(0.08908, 0, 0, -0.08908, -2.062686, 375.544281)" fill="none" stroke-linejoin="round" d="M 3364.998072 1436.311153 C 3351.798914 1696.391573 3139.296855 1898.983301 2882.899921 1903.982318 C 2808.090075 2084.297726 2626.020625 2206.817486 2419.789262 2196.29324 C 2384.006827 2194.495348 2349.408369 2188.707013 2316.081591 2179.498298 C 2253.418479 2327.714757 2103.009468 2428.08975 1932.911349 2419.407247 C 1723.478861 2408.7953 1560.703861 2236.592331 1558.686714 2029.703202 C 1531.49908 2035.886196 1502.995915 2038.517258 1473.791133 2036.982472 C 1302.421333 2028.299969 1170.605157 1882.188359 1179.287659 1710.906261 C 1179.989276 1698.803379 1181.304807 1686.788199 1183.190401 1675.211528 C 1182.620337 1675.079975 1181.918721 1675.079975 1181.217105 1675.079975 C 1009.803454 1666.397473 877.987277 1520.285862 886.713631 1349.003765 C 895.483836 1177.590114 1041.507744 1045.817789 1212.789841 1054.500291 C 1265.279516 1057.219055 1313.998004 1072.698466 1356.094986 1097.912805 C 1432.220363 949.871749 1589.908643 852.171669 1766.891374 861.161129 C 1871.300661 866.510954 1965.185702 908.125575 2037.10138 973.156643 C 2096.782623 915.799504 2179.090994 882.20962 2268.415529 886.813978 C 2383.787572 892.646164 2481.312248 960.878356 2529.986884 1057.087502 C 2624.705094 965.395012 2755.819655 911.677508 2897.896971 918.912927 C 3169.817167 932.813701 3378.898847 1164.478658 3364.998072 1436.311153 Z M 3364.998072 1436.311153 " stroke="#2e2f53" stroke-width="40" stroke-opacity="1" stroke-miterlimit="10"/><g clip-path="url(#ec1a78dcef)"><path fill="#8727b4" d="M 242.015625 73.4375 C 243.894531 86.488281 243.03125 100.144531 239.015625 113.613281 C 224.164062 163.363281 171.792969 191.65625 122.042969 176.808594 C 110.382812 173.324219 99.898438 167.773438 90.867188 160.683594 C 94.402344 185.324219 107.667969 207.796875 127.753906 222.78125 C 133.765625 216.582031 142.183594 212.722656 151.503906 212.722656 C 165.566406 212.722656 177.566406 221.507812 182.351562 233.878906 C 188.292969 225.089844 198.359375 219.296875 209.777344 219.296875 C 213.253906 219.296875 216.59375 219.839844 219.746094 220.832031 C 224.246094 215.65625 230.871094 212.386719 238.265625 212.386719 C 242.238281 212.386719 245.980469 213.328125 249.292969 215.003906 C 260.546875 204.144531 269.238281 190.339844 274.03125 174.292969 C 285.398438 136.203125 271.492188 96.589844 242.015625 73.4375 " fill-opacity="1" fill-rule="nonzero"/></g><path fill="#8727b4" d="M 209.324219 147.925781 C 209.324219 147.925781 208.183594 149.726562 205.171875 147.925781 C 204.078125 147.046875 202.730469 146.722656 201.421875 146.761719 L 208.710938 134.421875 C 208.796875 134.308594 208.871094 134.191406 208.921875 134.066406 L 208.933594 134.046875 C 209.066406 133.746094 209.109375 133.453125 209.019531 133.167969 C 207.417969 135.785156 204.621094 134.894531 200.140625 133.683594 C 195.667969 132.460938 195.730469 135.472656 195.730469 135.472656 C 195.730469 135.472656 196.871094 133.664062 199.882812 135.472656 C 201.386719 136.675781 203.339844 136.835938 205.066406 136.460938 L 197.503906 147.9375 C 196.441406 148.621094 195.8125 149.484375 196.035156 150.234375 C 197.636719 147.605469 200.433594 148.496094 204.914062 149.71875 C 209.386719 150.929688 209.324219 147.925781 209.324219 147.925781 " fill-opacity="1" fill-rule="nonzero"/><path fill="#8727b4" d="M 185.28125 132.117188 C 185.28125 132.117188 183.804688 134.726562 179.4375 132.390625 C 177.835938 131.222656 175.917969 130.859375 174.074219 131 L 183.519531 113.132812 C 183.632812 112.964844 183.722656 112.792969 183.792969 112.617188 L 183.804688 112.589844 C 183.972656 112.152344 184.007812 111.734375 183.875 111.34375 C 181.796875 115.136719 177.78125 114.078125 171.394531 112.660156 C 165.015625 111.253906 165.300781 115.476562 165.300781 115.476562 C 165.300781 115.476562 166.789062 112.855469 171.152344 115.199219 C 173.34375 116.792969 176.113281 116.890625 178.511719 116.25 L 168.632812 132.925781 C 167.179688 133.949219 166.351562 135.214844 166.71875 136.25 C 168.792969 132.453125 172.808594 133.515625 179.199219 134.929688 C 185.574219 136.335938 185.28125 132.117188 185.28125 132.117188 " fill-opacity="1" fill-rule="nonzero"/><path fill="#8727b4" d="M 166.484375 105.933594 C 166.484375 105.933594 164.613281 108.910156 159.644531 105.933594 C 157.835938 104.484375 155.625 103.949219 153.460938 104.011719 L 165.480469 83.679688 C 165.621094 83.484375 165.738281 83.285156 165.828125 83.085938 L 165.851562 83.050781 L 165.84375 83.054688 C 166.066406 82.558594 166.128906 82.066406 165.996094 81.601562 C 163.359375 85.917969 158.726562 84.449219 151.351562 82.445312 C 143.976562 80.445312 144.082031 85.394531 144.082031 85.394531 C 144.082031 85.394531 145.960938 82.425781 150.933594 85.394531 C 153.398438 87.378906 156.625 87.648438 159.464844 87.03125 L 147.003906 105.953125 C 145.25 107.074219 144.207031 108.5 144.582031 109.730469 C 147.207031 105.417969 151.851562 106.886719 159.226562 108.882812 C 166.601562 110.886719 166.484375 105.933594 166.484375 105.933594 " fill-opacity="1" fill-rule="nonzero"/><path fill="#f0f8fa" d="M 220.300781 158.429688 C 220.300781 160.398438 221.679688 161.992188 223.371094 161.992188 C 225.074219 161.992188 226.453125 160.398438 226.453125 158.429688 L 220.300781 158.429688 " fill-opacity="1" fill-rule="nonzero"/><path fill="#f0f8fa" d="M 259.53125 132.90625 C 260.410156 132.105469 261.292969 130.679688 261.855469 128.152344 C 259.714844 131.527344 258.113281 132.125 257.195312 132.078125 C 258.433594 130.457031 259.636719 128.480469 260.785156 126.039062 C 248.554688 142.777344 233.222656 131.554688 233.222656 131.554688 C 233.222656 131.554688 244.464844 144.238281 254.753906 134.796875 C 255.886719 135.5625 259.964844 137.476562 265.292969 130.058594 C 262.816406 131.769531 260.9375 132.585938 259.53125 132.90625 " fill-opacity="1" fill-rule="nonzero"/><path stroke-linecap="round" transform="matrix(0.08908, 0, 0, -0.08908, -2.062686, 375.544281)" fill="none" stroke-linejoin="round" d="M 2507.710564 1277.000384 C 2507.710564 1438.503704 2638.693571 1569.486711 2800.19689 1569.486711 " stroke="#2e2f53" stroke-width="40" stroke-opacity="1" stroke-miterlimit="10"/><path stroke-linecap="round" transform="matrix(0.08908, 0, 0, -0.08908, -2.062686, 375.544281)" fill="none" stroke-linejoin="round" d="M 1615.386088 1108.612454 C 1470.502306 1037.398392 1295.185914 1097.079635 1223.88415 1242.09497 " stroke="#2e2f53" stroke-width="40" stroke-opacity="1" stroke-miterlimit="10"/></svg>