<svg xmlns="http://www.w3.org/2000/svg" xmlns:xlink="http://www.w3.org/1999/xlink" width="500" zoomAndPan="magnify" viewBox="0 0 375 374.999991" height="500" preserveAspectRatio="xMidYMid meet" version="1.2"><defs><clipPath id="36de59edab"><path d="M 187.5 0 C 83.945312 0 0 83.945312 0 187.5 C 0 291.054688 83.945312 375 187.5 375 C 291.054688 375 375 291.054688 375 187.5 C 375 83.945312 291.054688 0 187.5 0 Z M 187.5 0 "/></clipPath><clipPath id="6be4852ead"><path d="M 90 73.449219 L 278 73.449219 L 278 234 L 90 234 Z M 90 73.449219 "/></clipPath></defs><g id="3967dbb7ed"><rect x="0" width="375" y="0" height="374.999991" style="fill:#ffffff;fill-opacity:1;stroke:none;"/><rect x="0" width="375" y="0" height="374.999991" style="fill:#ffffff;fill-opacity:1;stroke:none;"/><g clip-rule="nonzero" clip-path="url(#36de59edab)"><rect x="0" width="375" y="0" height="374.999991" style="fill:#d6b1ff;fill-opacity:1;stroke:none;"/></g><path style=" stroke:none;fill-rule:nonzero;fill:#f0f8fa;fill-opacity:1;" d="M 297.601562 247.527344 C 296.425781 224.367188 277.503906 206.328125 254.671875 205.882812 C 248.011719 189.828125 231.796875 178.917969 213.4375 179.855469 C 210.25 180.015625 207.167969 180.53125 204.203125 181.351562 C 198.617188 168.152344 185.226562 159.214844 170.082031 159.988281 C 151.433594 160.933594 136.9375 176.265625 136.761719 194.6875 C 134.339844 194.136719 131.800781 193.90625 129.199219 194.039062 C 113.9375 194.8125 102.203125 207.824219 102.976562 223.074219 C 103.039062 224.152344 103.15625 225.222656 103.324219 226.253906 C 103.269531 226.261719 103.210938 226.261719 103.148438 226.261719 C 87.882812 227.039062 76.144531 240.046875 76.925781 255.300781 C 77.703125 270.5625 90.707031 282.296875 105.960938 281.523438 C 110.636719 281.285156 114.972656 279.902344 118.71875 277.660156 C 125.496094 290.835938 139.539062 299.539062 155.300781 298.746094 C 164.59375 298.265625 172.957031 294.558594 179.359375 288.761719 C 184.675781 293.875 192.003906 296.867188 199.953125 296.457031 C 210.230469 295.929688 218.914062 289.859375 223.25 281.292969 C 231.679688 289.457031 243.355469 294.238281 256.007812 293.597656 C 280.21875 292.359375 298.835938 271.730469 297.601562 247.527344 "/><path style="fill:none;stroke-width:40;stroke-linecap:round;stroke-linejoin:round;stroke:#2e2f53;stroke-opacity:1;stroke-miterlimit:10;" d="M 3365.020573 1436.296828 C 3351.815987 1696.396476 3139.314268 1898.983787 2882.899621 1903.98486 C 2808.102877 2084.28669 2626.002415 2206.81297 2419.817841 2196.284396 C 2384.020689 2194.485765 2349.408002 2188.695049 2316.111387 2179.482547 C 2253.378633 2327.716095 2102.995501 2428.088501 1932.915161 2419.402427 C 1723.484276 2408.786115 1560.686201 2236.600061 1558.712093 2029.713581 C 1531.513277 2035.899119 1502.998389 2038.487393 1473.781596 2036.995845 C 1302.385185 2028.309772 1170.602533 1882.181938 1179.288607 1710.917134 C 1179.990512 1698.809274 1181.306584 1686.789152 1183.192953 1675.20772 C 1182.578786 1675.119982 1181.92075 1675.119982 1181.218845 1675.119982 C 1009.778565 1666.39004 877.952045 1520.306075 886.725856 1348.997402 C 895.455799 1177.600991 1041.495894 1045.818339 1212.804567 1054.504413 C 1265.31583 1057.180425 1314.010485 1072.710072 1356.080912 1097.890912 C 1432.193729 949.876709 1589.902994 852.180315 1766.914644 861.129603 C 1871.279134 866.525498 1965.202788 908.113365 2037.104175 973.171179 C 2096.809964 915.79045 2179.108317 882.23062 2268.381851 886.793003 C 2383.801344 892.671456 2481.278392 960.887842 2530.016915 1057.092687 C 2624.686343 965.406355 2755.810959 911.710628 2897.902839 918.905153 C 3169.803263 932.811645 3378.883196 1164.484142 3365.020573 1436.296828 Z M 3365.020573 1436.296828 " transform="matrix(0.0890434,0,0,-0.0890434,-2.031302,375.420093)"/><g clip-rule="nonzero" clip-path="url(#6be4852ead)"><path style=" stroke:none;fill-rule:nonzero;fill:#8727b4;fill-opacity:1;" d="M 241.949219 73.4375 C 243.828125 86.484375 242.960938 100.132812 238.945312 113.597656 C 224.101562 163.328125 171.753906 191.609375 122.023438 176.765625 C 110.367188 173.28125 99.886719 167.734375 90.859375 160.648438 C 94.394531 185.277344 107.652344 207.742188 127.730469 222.71875 C 133.742188 216.523438 142.15625 212.667969 151.46875 212.667969 C 165.53125 212.667969 177.523438 221.445312 182.304688 233.8125 C 188.246094 225.027344 198.308594 219.238281 209.722656 219.238281 C 213.195312 219.238281 216.535156 219.78125 219.6875 220.769531 C 224.183594 215.597656 230.808594 212.328125 238.199219 212.328125 C 242.171875 212.328125 245.910156 213.273438 249.222656 214.945312 C 260.46875 204.089844 269.160156 190.289062 273.949219 174.253906 C 285.3125 136.179688 271.410156 96.582031 241.949219 73.4375 "/></g><path style=" stroke:none;fill-rule:nonzero;fill:#8727b4;fill-opacity:1;" d="M 209.269531 147.894531 C 209.269531 147.894531 208.128906 149.695312 205.121094 147.894531 C 204.023438 147.015625 202.679688 146.695312 201.371094 146.730469 L 208.652344 134.398438 C 208.742188 134.28125 208.816406 134.164062 208.867188 134.042969 L 208.875 134.023438 C 209.011719 133.71875 209.054688 133.425781 208.964844 133.140625 C 207.363281 135.761719 204.566406 134.871094 200.089844 133.660156 C 195.617188 132.4375 195.679688 135.449219 195.679688 135.449219 C 195.679688 135.449219 196.820312 133.640625 199.828125 135.449219 C 201.335938 136.648438 203.285156 136.808594 205.011719 136.4375 L 197.453125 147.90625 C 196.394531 148.589844 195.761719 149.453125 195.984375 150.203125 C 197.585938 147.574219 200.382812 148.464844 204.859375 149.6875 C 209.332031 150.898438 209.269531 147.894531 209.269531 147.894531 "/><path style=" stroke:none;fill-rule:nonzero;fill:#8727b4;fill-opacity:1;" d="M 185.234375 132.089844 C 185.234375 132.089844 183.757812 134.699219 179.394531 132.367188 C 177.792969 131.199219 175.878906 130.835938 174.035156 130.976562 L 183.472656 113.117188 C 183.589844 112.945312 183.675781 112.777344 183.75 112.597656 L 183.757812 112.574219 C 183.925781 112.136719 183.960938 111.71875 183.828125 111.328125 C 181.753906 115.121094 177.738281 114.058594 171.355469 112.644531 C 164.976562 111.238281 165.261719 115.457031 165.261719 115.457031 C 165.261719 115.457031 166.75 112.839844 171.113281 115.183594 C 173.304688 116.777344 176.074219 116.875 178.46875 116.234375 L 168.59375 132.902344 C 167.140625 133.925781 166.3125 135.191406 166.679688 136.222656 C 168.753906 132.429688 172.769531 133.488281 179.152344 134.90625 C 185.53125 136.3125 185.234375 132.089844 185.234375 132.089844 "/><path style=" stroke:none;fill-rule:nonzero;fill:#8727b4;fill-opacity:1;" d="M 166.449219 105.921875 C 166.449219 105.921875 164.578125 108.894531 159.609375 105.921875 C 157.800781 104.46875 155.59375 103.9375 153.429688 103.996094 L 165.441406 83.675781 C 165.585938 83.480469 165.699219 83.28125 165.789062 83.082031 L 165.816406 83.046875 L 165.804688 83.050781 C 166.027344 82.554688 166.089844 82.0625 165.957031 81.597656 C 163.324219 85.914062 158.691406 84.445312 151.320312 82.441406 C 143.945312 80.441406 144.054688 85.390625 144.054688 85.390625 C 144.054688 85.390625 145.933594 82.421875 150.902344 85.390625 C 153.367188 87.375 156.589844 87.640625 159.429688 87.027344 L 146.972656 105.9375 C 145.21875 107.0625 144.179688 108.484375 144.550781 109.714844 C 147.179688 105.40625 151.816406 106.875 159.191406 108.867188 C 166.5625 110.871094 166.449219 105.921875 166.449219 105.921875 "/><path style=" stroke:none;fill-rule:nonzero;fill:#f0f8fa;fill-opacity:1;" d="M 220.238281 158.394531 C 220.238281 160.363281 221.617188 161.957031 223.3125 161.957031 C 225.011719 161.957031 226.390625 160.363281 226.390625 158.394531 L 220.238281 158.394531 "/><path style=" stroke:none;fill-rule:nonzero;fill:#f0f8fa;fill-opacity:1;" d="M 259.453125 132.882812 C 260.335938 132.082031 261.214844 130.65625 261.777344 128.128906 C 259.640625 131.503906 258.039062 132.101562 257.121094 132.054688 C 258.359375 130.433594 259.558594 128.457031 260.710938 126.019531 C 248.484375 142.75 233.160156 131.53125 233.160156 131.53125 C 233.160156 131.53125 244.394531 144.210938 254.679688 134.769531 C 255.8125 135.539062 259.890625 137.453125 265.214844 130.035156 C 262.738281 131.742188 260.859375 132.5625 259.453125 132.882812 "/><path style="fill:none;stroke-width:40;stroke-linecap:round;stroke-linejoin:round;stroke:#2e2f53;stroke-opacity:1;stroke-miterlimit:10;" d="M 2507.687565 1277.008277 C 2507.687565 1438.490281 2638.680573 1569.48329 2800.206446 1569.48329 " transform="matrix(0.0890434,0,0,-0.0890434,-2.031302,375.420093)"/><path style="fill:none;stroke-width:40;stroke-linecap:round;stroke-linejoin:round;stroke:#2e2f53;stroke-opacity:1;stroke-miterlimit:10;" d="M 1615.390917 1108.594962 C 1470.491417 1037.39548 1295.190659 1097.101269 1223.903439 1242.088507 " transform="matrix(0.0890434,0,0,-0.0890434,-2.031302,375.420093)"/></g></svg>