<svg xmlns="http://www.w3.org/2000/svg" xmlns:xlink="http://www.w3.org/1999/xlink" width="500" zoomAndPan="magnify" viewBox="0 0 375 374.999991" height="500" preserveAspectRatio="xMidYMid meet" version="1.2"><defs><clipPath id="897a45397f"><path d="M 187.5 0 C 83.945312 0 0 83.945312 0 187.5 C 0 291.054688 83.945312 375 187.5 375 C 291.054688 375 375 291.054688 375 187.5 C 375 83.945312 291.054688 0 187.5 0 Z M 187.5 0 "/></clipPath><clipPath id="532c8320f6"><path d="M 90.5 135 L 173 135 L 173 299.773438 L 90.5 299.773438 Z M 90.5 135 "/></clipPath><clipPath id="477a27c849"><path d="M 239 265 L 248 265 L 248 299.773438 L 239 299.773438 Z M 239 265 "/></clipPath><clipPath id="870acfe783"><path d="M 165 75.523438 L 284.75 75.523438 L 284.75 203 L 165 203 Z M 165 75.523438 "/></clipPath></defs><g id="24b94089cb"><rect x="0" width="375" y="0" height="374.999991" style="fill:#ffffff;fill-opacity:1;stroke:none;"/><rect x="0" width="375" y="0" height="374.999991" style="fill:#ffffff;fill-opacity:1;stroke:none;"/><g clip-rule="nonzero" clip-path="url(#897a45397f)"><rect x="0" width="375" y="0" height="374.999991" style="fill:#f5f3bc;fill-opacity:1;stroke:none;"/></g><path style=" stroke:none;fill-rule:nonzero;fill:#d6b655;fill-opacity:1;" d="M 135.515625 130.746094 C 136.558594 130.746094 137.566406 130.335938 138.308594 129.480469 C 150.160156 116.140625 166.445312 107.792969 184.144531 106.042969 C 186.191406 105.855469 187.683594 104.027344 187.496094 101.980469 C 187.308594 99.929688 185.445312 98.441406 183.433594 98.625 C 163.871094 100.5625 145.875 109.765625 132.757812 124.523438 C 131.378906 126.050781 131.527344 128.398438 133.054688 129.777344 C 133.765625 130.410156 134.660156 130.707031 135.515625 130.707031 Z M 135.515625 130.746094 "/><path style=" stroke:none;fill-rule:nonzero;fill:#d6b655;fill-opacity:1;" d="M 263.511719 194.875 C 261.574219 194.277344 259.449219 195.394531 258.851562 197.332031 C 255.910156 206.910156 250.992188 215.667969 244.246094 223.34375 C 241.304688 226.660156 239.664062 231.019531 239.664062 235.5625 L 239.664062 254.753906 C 239.664062 256.804688 241.339844 258.480469 243.390625 258.480469 C 245.4375 258.480469 247.117188 256.804688 247.117188 254.753906 L 247.117188 235.5625 C 247.117188 232.84375 248.085938 230.273438 249.835938 228.296875 C 257.324219 219.800781 262.765625 210.113281 266.007812 199.53125 C 266.605469 197.558594 265.484375 195.46875 263.546875 194.875 Z M 263.511719 194.875 "/><g clip-rule="nonzero" clip-path="url(#532c8320f6)"><path style=" stroke:none;fill-rule:nonzero;fill:#d6b655;fill-opacity:1;" d="M 161.414062 273.386719 L 139.054688 273.386719 C 128.769531 273.386719 120.425781 265.039062 120.425781 254.753906 L 120.425781 232.398438 C 120.425781 230.347656 118.746094 228.671875 116.699219 228.671875 L 100.191406 228.671875 C 99 228.671875 98.066406 227.738281 98.066406 226.546875 C 98.066406 226.175781 98.179688 225.765625 98.367188 225.464844 L 116.699219 194.910156 C 119.15625 190.8125 120.425781 186.191406 120.425781 181.496094 L 120.425781 176.503906 C 120.425781 164.09375 123.703125 151.875 129.925781 141.140625 C 130.96875 139.351562 130.335938 137.082031 128.546875 136.039062 C 126.757812 134.992188 124.484375 135.628906 123.441406 137.414062 C 116.585938 149.300781 112.972656 162.792969 112.972656 176.503906 L 112.972656 181.496094 C 112.972656 184.851562 112.039062 188.167969 110.289062 191.109375 L 91.917969 221.703125 C 91.0625 223.191406 90.578125 224.871094 90.578125 226.546875 C 90.578125 231.839844 94.863281 236.125 100.152344 236.125 L 112.933594 236.125 L 112.933594 254.753906 C 112.933594 269.136719 124.636719 280.835938 139.019531 280.835938 L 161.375 280.835938 C 163.425781 280.835938 165.101562 282.515625 165.101562 284.5625 L 165.101562 295.742188 C 165.101562 297.792969 166.777344 299.46875 168.828125 299.46875 C 170.878906 299.46875 172.554688 297.792969 172.554688 295.742188 L 172.554688 284.5625 C 172.554688 278.414062 167.523438 273.386719 161.375 273.386719 Z M 161.414062 273.386719 "/></g><g clip-rule="nonzero" clip-path="url(#477a27c849)"><path style=" stroke:none;fill-rule:nonzero;fill:#d6b655;fill-opacity:1;" d="M 243.390625 265.933594 C 241.339844 265.933594 239.664062 267.609375 239.664062 269.660156 L 239.664062 295.742188 C 239.664062 297.792969 241.339844 299.46875 243.390625 299.46875 C 245.4375 299.46875 247.117188 297.792969 247.117188 295.742188 L 247.117188 269.660156 C 247.117188 267.609375 245.4375 265.933594 243.390625 265.933594 Z M 243.390625 265.933594 "/></g><g clip-rule="nonzero" clip-path="url(#870acfe783)"><path style=" stroke:none;fill-rule:nonzero;fill:#d6b655;fill-opacity:1;" d="M 280.652344 116.882812 C 282.703125 116.882812 284.378906 115.207031 284.378906 113.160156 L 284.378906 87.148438 C 284.378906 83.871094 282.960938 80.738281 280.464844 78.617188 C 278.007812 76.492188 274.726562 75.5625 271.375 76.046875 L 204.449219 88.75 C 199.046875 89.570312 194.949219 94.339844 194.949219 99.855469 L 194.949219 150.269531 C 193.199219 150.011719 191.445312 149.9375 189.65625 150.046875 C 177.882812 150.753906 167.785156 159.660156 165.625 171.25 C 164.132812 179.222656 166.257812 187.273438 171.398438 193.382812 C 176.390625 199.269531 183.582031 202.585938 191.261719 202.585938 C 191.484375 202.585938 191.667969 202.585938 191.894531 202.585938 C 205.902344 202.214844 217.304688 189.992188 217.304688 175.347656 L 217.304688 116.699219 L 262.019531 107.828125 L 262.019531 135.21875 C 260.269531 134.957031 258.519531 134.882812 256.730469 134.992188 C 244.953125 135.703125 234.855469 144.609375 232.695312 156.195312 C 231.203125 164.207031 233.328125 172.257812 238.507812 178.367188 C 243.652344 184.402344 250.917969 187.71875 258.929688 187.496094 C 272.9375 187.160156 284.378906 174.9375 284.378906 160.257812 L 284.378906 128.027344 C 284.378906 125.976562 282.703125 124.300781 280.652344 124.300781 C 278.601562 124.300781 276.925781 125.976562 276.925781 128.027344 L 276.925781 160.257812 C 276.925781 170.914062 268.765625 179.820312 258.742188 180.042969 C 253.078125 180.15625 247.824219 177.808594 244.171875 173.523438 C 240.445312 169.164062 238.917969 163.351562 240 157.574219 C 241.527344 149.300781 248.753906 142.929688 257.175781 142.410156 C 259.671875 142.261719 262.132812 142.59375 264.480469 143.453125 C 265.636719 143.863281 266.902344 143.714844 267.90625 143.003906 C 268.914062 142.296875 269.511719 141.179688 269.511719 139.949219 L 269.511719 103.246094 C 269.511719 102.128906 269.027344 101.085938 268.132812 100.378906 C 267.273438 99.667969 266.121094 99.371094 265.039062 99.59375 L 212.871094 109.953125 C 211.121094 110.289062 209.855469 111.816406 209.855469 113.605469 L 209.855469 175.3125 C 209.855469 185.96875 201.691406 194.835938 191.707031 195.097656 C 191.558594 195.097656 191.410156 195.097656 191.261719 195.097656 C 185.820312 195.097656 180.675781 192.710938 177.101562 188.503906 C 173.375 184.140625 171.882812 178.328125 172.964844 172.589844 C 174.492188 164.320312 181.722656 157.945312 190.140625 157.425781 C 192.636719 157.277344 195.097656 157.613281 197.445312 158.46875 C 198.601562 158.878906 199.867188 158.730469 200.875 158.023438 C 201.878906 157.3125 202.476562 156.195312 202.476562 154.964844 L 202.476562 99.78125 C 202.476562 97.917969 203.855469 96.316406 205.792969 96.019531 L 272.714844 83.3125 C 273.796875 83.164062 274.875 83.460938 275.695312 84.167969 C 276.554688 84.914062 277 85.917969 277 87.074219 L 277 113.082031 C 277 115.132812 278.675781 116.808594 280.726562 116.808594 Z M 280.652344 116.882812 "/></g></g></svg>